{"glyphs":{"0":{"ha":833,"x_min":84,"x_max":748,"o":"m 748 458 q 722 236 748 326 q 651 90 696 146 q 545 11 606 35 q 414 -14 484 -14 q 284 11 345 -14 q 179 90 224 35 q 110 235 135 145 q 84 458 84 326 q 110 687 84 596 q 180 832 135 778 q 286 907 224 886 q 418 929 347 929 q 547 907 487 929 q 652 832 607 886 q 722 687 696 778 q 748 458 748 596 m 624 458 q 610 637 624 566 q 570 752 597 709 q 506 812 544 795 q 418 830 467 830 q 328 812 367 830 q 261 751 288 794 q 221 637 235 709 q 208 458 208 566 q 221 282 208 353 q 262 168 235 211 q 328 105 289 124 q 416 86 366 86 q 503 105 464 86 q 568 168 541 124 q 609 282 595 211 q 624 458 624 353 m 336 376 l 336 545 l 496 545 l 496 376 l 336 376 z "},"1":{"ha":833,"x_min":100,"x_max":766,"o":"m 106 0 l 106 98 l 404 98 l 404 791 q 359 740 391 764 q 284 698 326 715 q 193 670 241 680 q 100 659 145 659 l 100 760 q 199 771 151 760 q 290 803 248 783 q 364 852 332 824 q 414 915 397 881 l 527 915 l 527 98 l 766 98 l 766 0 l 106 0 z "},"2":{"ha":833,"x_min":98,"x_max":735,"o":"m 98 0 l 98 79 q 176 201 127 145 q 280 306 225 256 q 392 399 336 355 q 493 488 448 444 q 566 577 538 532 q 595 672 595 622 q 582 742 595 713 q 544 791 568 772 q 487 820 520 810 q 414 829 454 829 q 346 819 378 829 q 291 788 315 808 q 252 738 267 768 q 233 667 237 707 l 108 679 q 136 776 114 730 q 195 856 157 821 q 288 909 233 890 q 414 929 342 929 q 542 913 486 929 q 638 865 599 897 q 699 787 678 833 q 720 680 720 740 q 691 561 720 616 q 616 458 662 507 q 515 365 570 409 q 406 277 459 321 q 310 190 353 234 q 245 99 267 146 l 735 99 l 735 0 l 98 0 z "},"3":{"ha":833,"x_min":87,"x_max":745,"o":"m 745 251 q 724 140 745 189 q 662 57 703 91 q 560 5 621 23 q 421 -14 500 -14 q 272 8 333 -14 q 172 67 211 31 q 113 150 132 103 q 87 245 93 196 l 213 257 q 233 188 218 219 q 273 134 248 157 q 335 100 298 112 q 421 87 372 87 q 566 130 513 87 q 618 255 618 173 q 595 332 618 301 q 537 380 572 362 q 461 406 502 398 q 385 413 420 413 l 316 413 l 316 519 l 382 519 q 454 527 417 519 q 523 554 492 536 q 573 603 553 573 q 593 676 593 633 q 548 788 593 748 q 414 829 503 829 q 284 787 334 829 q 226 671 234 746 l 103 680 q 138 790 111 743 q 207 868 165 837 q 302 914 248 899 q 416 929 355 929 q 554 910 496 929 q 648 859 611 891 q 702 782 684 826 q 719 689 719 739 q 706 617 719 652 q 669 553 694 582 q 607 502 644 524 q 519 470 569 480 l 519 467 q 617 441 574 461 q 688 391 659 420 q 731 326 716 361 q 745 251 745 290 z "},"4":{"ha":833,"x_min":70,"x_max":763,"o":"m 635 216 l 635 0 l 513 0 l 513 216 l 70 216 l 70 311 l 500 915 l 635 915 l 635 313 l 763 313 l 763 216 l 635 216 m 513 783 l 174 313 l 513 313 l 513 783 z "},"5":{"ha":833,"x_min":87,"x_max":745,"o":"m 745 301 q 724 175 745 233 q 659 76 702 117 q 553 10 616 34 q 406 -14 490 -14 q 275 4 331 -14 q 180 53 219 22 q 119 125 142 83 q 87 214 96 166 l 210 228 q 231 175 218 201 q 268 130 245 150 q 326 98 292 110 q 409 86 360 86 q 495 101 456 86 q 561 142 534 115 q 604 209 589 170 q 618 298 618 249 q 604 374 618 339 q 564 435 590 409 q 499 475 537 460 q 412 490 460 490 q 355 484 381 490 q 308 469 330 479 q 268 447 286 460 q 234 421 250 435 l 115 421 l 146 915 l 690 915 l 690 817 l 259 817 l 239 528 q 321 571 272 553 q 437 589 370 589 q 565 568 508 589 q 662 508 622 546 q 724 416 702 469 q 745 301 745 363 z "},"6":{"ha":833,"x_min":102,"x_max":743,"o":"m 743 302 q 723 177 743 235 q 664 76 703 119 q 568 10 625 34 q 435 -14 510 -14 q 289 18 351 -14 q 185 108 227 50 q 123 249 144 166 q 102 435 102 332 q 126 648 102 555 q 193 802 149 740 q 301 897 237 865 q 444 929 364 929 q 536 919 493 929 q 613 886 578 909 q 675 826 648 863 q 717 734 701 789 l 600 713 q 539 803 581 775 q 443 830 498 830 q 352 807 393 830 q 283 738 311 783 q 239 626 254 692 q 224 471 224 559 q 317 565 257 533 q 456 597 378 597 q 574 576 521 597 q 665 517 627 555 q 723 424 703 478 q 743 302 743 370 m 619 297 q 607 380 619 342 q 570 446 595 418 q 510 488 546 473 q 427 503 474 503 q 359 492 393 503 q 298 459 326 481 q 253 404 271 437 q 236 326 236 370 q 250 234 236 277 q 289 157 263 190 q 350 104 314 123 q 431 85 386 85 q 510 100 475 85 q 569 143 545 115 q 606 210 593 171 q 619 297 619 250 z "},"7":{"ha":833,"x_min":107,"x_max":725,"o":"m 725 821 q 602 627 660 727 q 500 424 544 528 q 430 214 456 321 q 404 0 404 108 l 277 0 q 304 214 277 107 q 376 425 331 321 q 481 627 422 528 q 607 817 541 726 l 107 817 l 107 915 l 725 915 l 725 821 z "},"8":{"ha":833,"x_min":90,"x_max":742,"o":"m 742 256 q 723 150 742 199 q 664 64 703 101 q 563 7 624 28 q 416 -14 501 -14 q 271 7 332 -14 q 169 64 210 28 q 110 150 129 100 q 90 255 90 199 q 106 342 90 303 q 149 410 122 381 q 210 456 176 438 q 281 479 244 473 l 281 482 q 209 513 241 492 q 156 562 178 534 q 124 625 135 591 q 113 694 113 659 q 132 783 113 741 q 189 858 151 825 q 283 910 227 890 q 414 929 340 929 q 549 909 492 929 q 644 857 606 890 q 700 782 682 825 q 718 693 718 739 q 707 624 718 658 q 674 562 696 590 q 622 512 653 533 q 549 484 590 492 l 549 481 q 625 456 590 474 q 687 410 661 438 q 727 343 713 381 q 742 256 742 304 m 591 686 q 582 746 591 718 q 552 794 573 774 q 497 826 531 814 q 414 838 463 838 q 333 826 366 838 q 278 794 299 814 q 247 746 256 774 q 237 686 237 718 q 245 633 237 661 q 272 582 252 606 q 326 544 292 559 q 415 528 361 528 q 508 544 473 528 q 561 583 543 559 q 586 634 580 606 q 591 686 591 662 m 615 268 q 606 329 615 298 q 573 383 596 359 q 511 422 550 407 q 414 437 472 437 q 322 422 360 437 q 261 382 285 407 q 227 328 238 358 q 216 265 216 297 q 227 191 216 225 q 262 132 238 157 q 324 92 286 106 q 418 78 363 78 q 512 92 474 78 q 572 131 549 106 q 605 192 595 157 q 615 268 615 227 z "},"9":{"ha":833,"x_min":96,"x_max":737,"o":"m 737 477 q 713 265 737 357 q 645 112 690 174 q 536 18 600 50 q 391 -14 472 -14 q 292 -2 336 -14 q 214 33 248 9 q 155 94 179 56 q 115 186 130 132 l 232 204 q 291 114 251 142 q 393 85 332 85 q 484 108 444 85 q 554 176 525 131 q 599 287 583 220 q 616 441 616 353 q 577 384 602 409 q 521 341 553 359 q 453 315 490 324 q 379 306 417 306 q 261 329 314 306 q 172 393 209 352 q 116 492 136 435 q 96 618 96 549 q 117 746 96 688 q 179 844 138 803 q 279 907 220 884 q 414 929 338 929 q 655 817 574 929 q 737 477 737 704 m 604 585 q 592 679 604 634 q 554 756 579 723 q 493 810 530 790 q 410 830 457 830 q 330 815 366 830 q 271 771 295 800 q 233 704 246 743 q 220 618 220 665 q 232 534 220 573 q 267 466 243 495 q 326 419 291 436 q 408 402 361 402 q 477 414 442 402 q 540 448 512 425 q 586 505 568 471 q 604 585 604 539 z "}," ":{"ha":833,"x_min":0,"x_max":0,"o":""}," ":{"ha":833,"x_min":0,"x_max":0,"o":""},"!":{"ha":833,"x_min":349,"x_max":484,"o":"m 467 269 l 367 269 l 351 914 l 484 914 l 467 269 m 349 0 l 349 136 l 481 136 l 481 0 l 349 0 z "},"\"":{"ha":833,"x_min":188,"x_max":644,"o":"m 616 573 l 519 573 l 492 1006 l 644 1006 l 616 573 m 311 573 l 216 573 l 188 1006 l 340 1006 l 311 573 z "},"#":{"ha":833,"x_min":37,"x_max":789,"o":"m 631 565 l 585 350 l 762 350 l 762 277 l 570 277 l 510 0 l 435 0 l 494 277 l 248 277 l 191 0 l 116 0 l 173 277 l 37 277 l 37 350 l 189 350 l 235 565 l 71 565 l 71 638 l 250 638 l 310 915 l 385 915 l 325 638 l 571 638 l 631 915 l 705 915 l 646 638 l 789 638 l 789 565 l 631 565 m 311 565 l 264 350 l 510 350 l 555 565 l 311 565 z "},"$":{"ha":833,"x_min":45,"x_max":780,"o":"m 780 258 q 761 163 780 207 q 703 88 742 120 q 605 36 665 56 q 465 14 546 17 l 465 -96 l 378 -96 l 378 14 q 150 81 233 18 q 45 257 68 144 l 160 282 q 183 215 168 245 q 224 161 198 184 q 288 124 250 138 q 378 107 326 110 l 378 439 q 368 441 373 440 q 361 444 366 442 q 358 444 359 444 q 292 462 325 452 q 229 485 258 472 q 173 517 199 498 q 128 561 147 536 q 99 618 109 585 q 88 694 88 651 q 110 790 88 749 q 170 857 132 830 q 262 897 209 884 q 378 913 315 911 l 378 1001 l 465 1001 l 465 913 q 584 895 534 910 q 667 853 633 880 q 724 786 702 826 q 759 695 745 747 l 641 673 q 621 732 634 705 q 586 778 608 759 q 535 809 565 798 q 465 823 505 820 l 465 534 q 543 514 505 524 q 617 489 582 503 q 682 454 652 474 q 733 407 711 435 q 768 343 755 380 q 780 258 780 307 m 205 690 q 218 630 205 654 q 255 590 232 606 q 310 564 279 574 q 378 544 342 553 l 378 824 q 297 811 330 822 q 243 782 264 800 q 214 740 223 764 q 205 690 205 717 m 663 260 q 647 330 663 302 q 604 375 631 357 q 541 404 576 393 q 465 425 505 415 l 465 106 q 546 119 509 109 q 608 148 582 129 q 649 195 634 167 q 663 260 663 222 z "},"%":{"ha":833,"x_min":0,"x_max":834,"o":"m 150 0 l 52 0 l 684 918 l 783 918 l 150 0 m 197 923 q 272 912 237 923 q 333 876 307 902 q 374 806 359 850 q 389 695 389 762 q 374 586 389 630 q 332 515 359 542 q 271 476 306 488 q 195 464 235 464 q 118 476 154 464 q 56 514 83 488 q 15 586 30 541 q 0 695 0 630 q 15 806 0 762 q 57 876 31 850 q 119 912 83 902 q 197 923 155 923 m 290 695 q 283 770 290 740 q 266 818 277 800 q 236 843 254 836 q 197 850 219 850 q 155 842 173 850 q 124 817 136 835 q 106 769 112 799 q 100 695 100 740 q 106 622 100 652 q 125 574 113 593 q 155 548 137 556 q 196 541 173 541 q 235 548 218 541 q 264 574 252 556 q 283 622 277 593 q 290 695 290 652 m 642 451 q 716 440 682 451 q 778 404 751 430 q 819 334 804 378 q 834 223 834 290 q 819 114 834 158 q 777 43 804 70 q 715 4 751 16 q 640 -8 680 -8 q 563 4 599 -8 q 501 42 528 16 q 460 114 475 69 q 445 223 445 158 q 460 334 445 290 q 502 404 475 378 q 564 440 528 430 q 642 451 600 451 m 734 223 q 728 298 734 268 q 710 346 722 328 q 681 371 699 363 q 642 378 664 378 q 600 370 618 378 q 569 345 581 363 q 551 297 557 327 q 545 223 545 268 q 551 150 545 180 q 570 102 557 121 q 600 76 582 84 q 641 68 618 68 q 680 76 663 68 q 709 102 697 84 q 728 150 722 121 q 734 223 734 180 z "},"&":{"ha":833,"x_min":29,"x_max":804,"o":"m 727 -8 q 673 -1 699 -8 q 625 18 648 6 q 583 46 602 30 q 548 79 563 62 q 505 45 529 62 q 452 16 481 28 q 388 -5 422 3 q 313 -14 353 -14 q 185 6 239 -14 q 97 60 132 26 q 46 142 62 95 q 29 243 29 189 q 44 338 29 295 q 86 415 60 380 q 149 478 113 450 q 227 527 185 505 q 208 569 217 546 q 192 617 199 592 q 180 667 184 642 q 176 718 176 693 q 191 797 176 760 q 235 862 205 834 q 309 905 264 889 q 414 920 354 920 q 501 908 461 920 q 570 873 541 897 q 616 817 600 850 q 632 739 632 783 q 609 654 632 691 q 547 589 586 618 q 459 536 509 559 q 356 490 409 512 q 398 419 377 453 q 442 353 419 385 q 490 289 465 320 q 544 226 515 257 q 594 352 572 285 q 629 501 615 419 l 727 472 q 680 300 709 378 q 617 159 650 222 q 679 105 646 122 q 739 87 712 87 q 773 90 757 87 q 804 98 789 92 l 804 7 q 768 -4 787 -1 q 727 -8 749 -8 m 529 736 q 521 778 529 759 q 497 810 513 797 q 460 831 482 823 q 412 838 439 838 q 358 830 382 838 q 315 806 333 821 q 287 767 297 790 q 277 716 277 745 q 290 633 277 672 q 318 564 302 593 q 400 600 361 583 q 467 636 438 616 q 512 680 496 656 q 529 736 529 704 m 479 147 q 364 291 418 215 q 264 446 309 368 q 175 365 207 415 q 143 245 143 314 q 154 179 143 210 q 186 125 165 148 q 241 89 208 102 q 318 75 274 75 q 369 82 345 75 q 413 98 393 88 q 450 121 433 109 q 479 147 467 134 z "},"'":{"ha":833,"x_min":340,"x_max":492,"o":"m 464 573 l 368 573 l 340 1006 l 492 1006 l 464 573 z "},"(":{"ha":833,"x_min":232,"x_max":604,"o":"m 359 359 q 373 183 359 266 q 416 22 387 100 q 493 -132 446 -56 q 604 -288 539 -208 l 475 -288 q 367 -137 413 -212 q 291 15 321 -63 q 247 178 261 93 q 232 361 232 263 q 247 543 232 458 q 291 705 261 627 q 367 856 321 783 q 475 1006 413 930 l 604 1006 q 493 850 539 926 q 416 696 446 774 q 373 535 387 618 q 359 359 359 452 z "},")":{"ha":833,"x_min":228,"x_max":600,"o":"m 600 361 q 586 178 600 263 q 542 15 572 93 q 466 -137 512 -63 q 358 -288 420 -212 l 228 -288 q 340 -132 293 -208 q 416 22 387 -56 q 460 183 446 100 q 475 359 475 266 q 460 535 475 452 q 416 696 446 618 q 340 850 387 774 q 228 1006 293 926 l 358 1006 q 466 856 420 930 q 542 705 512 783 q 586 543 572 627 q 600 361 600 458 z "},"*":{"ha":833,"x_min":168,"x_max":665,"o":"m 455 806 l 634 876 l 665 786 l 473 736 l 599 567 l 518 518 l 416 693 l 311 519 l 230 568 l 358 736 l 168 786 l 199 877 l 380 804 l 372 1006 l 464 1006 l 455 806 z "},"+":{"ha":833,"x_min":79,"x_max":753,"o":"m 466 412 l 466 122 l 366 122 l 366 412 l 79 412 l 79 511 l 366 511 l 366 802 l 466 802 l 466 511 l 753 511 l 753 412 l 466 412 z "},",":{"ha":833,"x_min":176,"x_max":470,"o":"m 176 -246 l 290 203 l 470 203 l 259 -246 l 176 -246 z "},"-":{"ha":833,"x_min":227,"x_max":606,"o":"m 227 315 l 227 423 l 606 423 l 606 315 l 227 315 z "},"­":{"ha":833,"x_min":227,"x_max":606,"o":"m 227 315 l 227 423 l 606 423 l 606 315 l 227 315 z "},".":{"ha":833,"x_min":336,"x_max":496,"o":"m 336 0 l 336 203 l 496 203 l 496 0 l 336 0 z "},"/":{"ha":833,"x_min":77,"x_max":755,"o":"m 77 -14 l 634 1006 l 755 1006 l 201 -14 l 77 -14 z "},":":{"ha":833,"x_min":336,"x_max":496,"o":"m 336 0 l 336 203 l 496 203 l 496 0 l 336 0 m 336 531 l 336 734 l 496 734 l 496 531 l 336 531 z "},";":{"ha":833,"x_min":239,"x_max":533,"o":"m 336 531 l 336 734 l 496 734 l 496 531 l 336 531 m 239 -246 l 353 203 l 533 203 l 322 -246 l 239 -246 z "},";":{"ha":833,"x_min":239,"x_max":533,"o":"m 336 531 l 336 734 l 496 734 l 496 531 l 336 531 m 239 -246 l 353 203 l 533 203 l 322 -246 l 239 -246 z "},"<":{"ha":833,"x_min":79,"x_max":753,"o":"m 79 387 l 79 526 l 753 810 l 753 705 l 172 457 l 753 208 l 753 104 l 79 387 z "},"=":{"ha":833,"x_min":79,"x_max":753,"o":"m 79 581 l 79 681 l 753 681 l 753 581 l 79 581 m 79 233 l 79 334 l 753 334 l 753 233 l 79 233 z "},">":{"ha":833,"x_min":79,"x_max":753,"o":"m 79 104 l 79 208 l 661 457 l 79 705 l 79 810 l 753 526 l 753 387 l 79 104 z "},"?":{"ha":833,"x_min":64,"x_max":728,"o":"m 728 680 q 715 597 728 633 q 682 534 703 562 q 634 484 661 507 q 579 442 607 462 q 525 402 551 422 q 476 359 498 382 q 442 308 455 336 q 428 242 429 279 l 309 242 q 324 322 311 288 q 358 384 337 357 q 406 434 379 412 q 459 476 432 456 q 512 516 486 496 q 559 559 538 536 q 592 610 579 582 q 604 674 604 638 q 590 740 604 711 q 550 788 576 768 q 487 817 524 807 q 404 827 450 827 q 320 814 358 827 q 255 778 283 802 q 210 719 227 753 q 189 643 193 685 l 64 651 q 97 763 72 712 q 165 851 122 814 q 267 908 208 888 q 403 929 327 929 q 536 913 476 929 q 639 865 596 897 q 705 787 682 833 q 728 680 728 741 m 304 0 l 304 136 l 436 136 l 436 0 l 304 0 z "},"@":{"ha":833,"x_min":30,"x_max":806,"o":"m 806 512 q 792 333 806 414 q 752 194 779 252 q 687 103 726 136 q 600 71 648 71 q 562 76 579 71 q 531 94 544 81 q 510 127 517 106 q 503 177 503 147 q 503 182 503 178 q 503 190 503 186 q 504 197 503 194 q 504 203 504 201 l 500 203 q 474 152 490 176 q 438 110 458 128 q 394 81 418 92 q 340 71 369 71 q 269 93 298 71 q 221 151 239 115 q 196 234 203 187 q 188 332 188 281 q 196 434 188 383 q 218 531 203 485 q 255 617 233 577 q 305 685 277 656 q 366 730 332 714 q 437 747 399 747 q 486 738 465 747 q 522 712 507 728 q 546 675 536 696 q 562 629 555 654 l 565 629 l 587 732 l 665 732 l 598 388 q 588 332 593 359 q 579 280 583 304 q 573 234 575 255 q 571 199 571 214 q 581 152 571 164 q 604 140 591 140 q 653 167 631 140 q 691 243 675 194 q 716 360 707 292 q 724 511 724 429 q 706 674 724 598 q 654 806 688 750 q 570 895 620 863 q 454 928 519 928 q 310 882 373 928 q 203 759 246 837 q 138 574 160 680 q 115 349 115 469 q 135 161 115 245 q 193 15 155 76 q 286 -79 231 -45 q 410 -112 340 -112 q 484 -103 450 -112 q 549 -81 519 -95 q 607 -47 579 -66 q 660 -5 634 -27 l 708 -64 q 646 -112 679 -89 q 575 -153 613 -135 q 495 -181 538 -171 q 403 -192 452 -192 q 248 -154 317 -192 q 130 -45 178 -115 q 56 125 82 26 q 30 349 30 225 q 58 611 30 490 q 141 819 87 731 q 275 957 196 907 q 456 1006 354 1006 q 611 966 545 1006 q 720 859 677 926 q 785 701 764 791 q 806 512 806 612 m 526 532 q 502 641 526 604 q 438 677 478 677 q 391 663 413 677 q 352 622 370 648 q 321 563 334 597 q 298 491 307 529 q 284 412 289 452 q 279 333 279 372 q 283 257 279 292 q 296 197 287 222 q 320 157 305 172 q 357 142 335 142 q 407 161 383 142 q 451 214 431 180 q 486 296 471 248 q 511 404 502 345 q 515 434 513 416 q 520 470 518 452 q 524 505 523 488 q 526 532 526 522 z "},"A":{"ha":833,"x_min":0,"x_max":833,"o":"m 701 0 l 608 259 l 226 259 l 133 0 l 0 0 l 346 915 l 493 915 l 833 0 l 701 0 m 475 647 q 457 699 467 673 q 440 749 448 726 q 426 791 432 773 q 418 817 420 809 q 410 791 415 809 q 396 749 404 772 q 380 699 389 725 q 363 647 372 672 l 260 360 l 574 360 l 475 647 z "},"B":{"ha":833,"x_min":110,"x_max":781,"o":"m 781 258 q 753 139 781 188 q 676 59 724 90 q 564 14 628 28 q 430 0 500 0 l 110 0 l 110 915 l 389 915 q 531 902 469 915 q 637 862 593 889 q 703 793 680 836 q 726 693 726 751 q 714 621 726 655 q 681 559 703 587 q 624 512 658 532 q 544 482 590 492 q 646 457 602 476 q 720 409 690 438 q 766 341 750 379 q 781 258 781 302 m 595 677 q 544 780 595 749 q 391 811 493 811 l 239 811 l 239 529 l 392 529 q 486 539 447 529 q 549 569 524 550 q 584 616 573 589 q 595 677 595 643 m 650 269 q 633 342 650 312 q 584 391 616 372 q 509 419 553 410 q 410 428 465 428 l 239 428 l 239 104 l 420 104 q 512 112 469 104 q 585 138 554 119 q 633 189 616 157 q 650 269 650 221 z "},"C":{"ha":833,"x_min":77,"x_max":774,"o":"m 213 462 q 227 304 213 373 q 269 188 240 235 q 341 116 297 140 q 448 92 386 92 q 525 108 491 92 q 586 151 559 124 q 633 212 613 177 q 667 283 652 246 l 774 239 q 728 146 755 191 q 661 65 700 101 q 569 8 621 30 q 447 -14 516 -14 q 282 21 351 -14 q 166 117 212 55 q 99 267 121 180 q 77 462 77 355 q 98 662 77 574 q 165 808 120 749 q 278 898 210 867 q 440 929 347 929 q 560 910 509 929 q 649 860 612 892 q 713 788 687 829 q 756 702 739 747 l 642 658 q 614 719 632 689 q 572 772 597 749 q 514 809 547 795 q 441 823 481 823 q 337 800 380 823 q 267 731 294 777 q 226 618 239 686 q 213 462 213 551 z "},"D":{"ha":833,"x_min":110,"x_max":763,"o":"m 763 467 q 736 266 763 353 q 657 119 709 178 q 531 30 606 60 q 361 0 456 0 l 110 0 l 110 915 l 321 915 q 510 889 428 915 q 649 808 593 863 q 734 668 705 753 q 763 467 763 583 m 633 467 q 614 623 633 558 q 556 729 595 688 q 459 790 517 770 q 321 809 401 809 l 239 809 l 239 106 l 349 106 q 563 196 493 106 q 633 467 633 286 z "},"E":{"ha":833,"x_min":110,"x_max":761,"o":"m 110 0 l 110 915 l 733 915 l 733 809 l 239 809 l 239 523 l 692 523 l 692 418 l 239 418 l 239 106 l 761 106 l 761 0 l 110 0 z "},"F":{"ha":833,"x_min":132,"x_max":736,"o":"m 261 809 l 261 474 l 720 474 l 720 367 l 261 367 l 261 0 l 132 0 l 132 915 l 736 915 l 736 809 l 261 809 z "},"G":{"ha":833,"x_min":77,"x_max":748,"o":"m 747 90 q 690 56 722 74 q 618 22 658 37 q 533 -3 579 7 q 433 -14 486 -14 q 275 22 342 -14 q 164 121 208 58 q 98 271 120 184 q 77 462 77 358 q 98 662 77 575 q 163 809 119 749 q 275 899 207 868 q 435 929 342 929 q 554 911 503 929 q 643 864 606 894 q 706 792 681 833 q 748 705 732 751 l 632 667 q 559 782 606 741 q 437 823 512 823 q 333 800 376 823 q 263 731 290 777 q 225 617 237 685 q 213 462 213 550 q 270 186 213 280 q 444 92 328 92 q 505 97 477 92 q 556 111 533 103 q 595 127 578 119 q 621 142 612 136 l 621 370 l 422 370 l 422 478 l 747 478 l 747 90 z "},"H":{"ha":833,"x_min":110,"x_max":723,"o":"m 593 0 l 593 422 l 239 422 l 239 0 l 110 0 l 110 915 l 239 915 l 239 531 l 593 531 l 593 915 l 723 915 l 723 0 l 593 0 z "},"I":{"ha":833,"x_min":137,"x_max":695,"o":"m 137 915 l 695 915 l 695 809 l 481 809 l 481 106 l 695 106 l 695 0 l 137 0 l 137 106 l 351 106 l 351 809 l 137 809 l 137 915 z "},"J":{"ha":833,"x_min":119,"x_max":669,"o":"m 669 285 q 651 162 669 217 q 600 67 634 106 q 515 7 566 28 q 397 -14 464 -14 q 212 47 281 -14 q 119 237 143 107 l 246 258 q 267 183 253 215 q 301 132 281 152 q 346 101 321 111 q 398 92 370 92 q 504 140 469 92 q 540 282 540 189 l 540 809 l 329 809 l 329 915 l 669 915 l 669 285 z "},"K":{"ha":833,"x_min":110,"x_max":832,"o":"m 680 0 l 350 433 l 239 318 l 239 0 l 110 0 l 110 915 l 239 915 l 239 458 l 627 915 l 780 915 l 438 527 l 832 0 l 680 0 z "},"L":{"ha":833,"x_min":161,"x_max":746,"o":"m 161 0 l 161 915 l 290 915 l 290 106 l 746 106 l 746 0 l 161 0 z "},"M":{"ha":833,"x_min":87,"x_max":745,"o":"m 635 0 l 635 589 q 636 659 635 623 q 637 725 636 695 q 640 793 639 760 q 616 720 628 755 q 596 655 607 689 q 575 595 585 621 l 464 298 l 371 298 l 258 595 q 250 620 254 606 q 240 649 245 633 q 229 682 235 665 q 218 715 224 699 q 193 793 206 752 q 195 725 194 760 q 196 659 195 694 q 196 589 196 623 l 196 0 l 87 0 l 87 915 l 248 915 l 374 583 q 388 542 380 568 q 403 490 395 515 q 420 427 411 460 q 437 488 429 458 q 453 539 445 513 q 467 583 461 566 l 593 915 l 745 915 l 745 0 l 635 0 z "},"N":{"ha":833,"x_min":110,"x_max":723,"o":"m 567 0 l 214 766 q 220 707 217 737 q 223 651 222 681 q 225 594 225 621 l 225 0 l 110 0 l 110 915 l 260 915 l 618 143 q 612 201 615 170 q 608 261 610 228 q 606 329 606 294 l 606 915 l 723 915 l 723 0 l 567 0 z "},"O":{"ha":833,"x_min":69,"x_max":764,"o":"m 764 462 q 740 256 764 345 q 671 107 716 167 q 562 17 627 47 q 416 -14 497 -14 q 264 18 330 -14 q 156 111 199 50 q 91 260 113 172 q 69 462 69 349 q 92 667 69 579 q 159 812 115 754 q 268 900 203 871 q 417 929 333 929 q 674 811 585 929 q 764 462 764 694 m 627 462 q 574 734 627 645 q 417 823 520 823 q 258 734 311 823 q 205 462 205 645 q 259 185 205 279 q 416 92 313 92 q 577 186 527 92 q 627 462 627 281 z "},"P":{"ha":833,"x_min":110,"x_max":759,"o":"m 759 641 q 739 531 759 584 q 678 438 719 479 q 575 373 637 397 q 430 349 513 349 l 239 349 l 239 0 l 110 0 l 110 915 l 422 915 q 570 895 507 915 q 675 840 633 876 q 738 753 717 804 q 759 641 759 703 m 629 639 q 573 767 629 724 q 406 811 517 811 l 239 811 l 239 451 l 412 451 q 508 466 467 451 q 576 505 549 480 q 616 565 603 530 q 629 639 629 600 z "},"Q":{"ha":833,"x_min":69,"x_max":771,"o":"m 764 462 q 746 282 764 362 q 696 144 729 203 q 615 49 663 86 q 506 -3 567 12 q 579 -127 534 -88 q 693 -165 625 -165 q 734 -163 712 -165 q 771 -157 755 -160 l 771 -248 q 714 -258 745 -254 q 650 -262 684 -262 q 549 -245 593 -262 q 472 -196 505 -228 q 416 -117 439 -163 q 374 -11 392 -70 q 241 32 298 -3 q 145 127 184 66 q 88 272 107 187 q 69 462 69 356 q 92 667 69 579 q 159 812 115 754 q 268 900 203 871 q 417 929 333 929 q 674 811 585 929 q 764 462 764 694 m 627 462 q 574 734 627 645 q 417 823 520 823 q 258 734 311 823 q 205 462 205 645 q 259 185 205 279 q 416 92 313 92 q 577 186 527 92 q 627 462 627 281 z "},"R":{"ha":833,"x_min":110,"x_max":798,"o":"m 649 0 l 401 390 l 239 390 l 239 0 l 110 0 l 110 915 l 437 915 q 579 898 518 915 q 680 847 640 880 q 740 768 720 814 q 760 662 760 721 q 747 578 760 620 q 705 502 734 536 q 633 441 677 467 q 527 405 589 415 l 798 0 l 649 0 m 630 660 q 424 811 630 811 l 239 811 l 239 492 l 429 492 q 524 506 486 492 q 586 542 562 519 q 620 595 609 565 q 630 660 630 626 z "},"S":{"ha":833,"x_min":54,"x_max":765,"o":"m 765 251 q 744 145 765 193 q 680 61 723 96 q 571 6 637 26 q 414 -14 505 -14 q 166 49 255 -14 q 54 229 78 111 l 179 254 q 203 186 187 217 q 248 134 220 156 q 318 100 277 112 q 417 87 359 87 q 506 97 466 87 q 575 125 547 106 q 621 176 604 145 q 637 249 637 206 q 615 326 637 296 q 557 375 593 356 q 476 406 521 394 q 385 429 431 418 q 316 448 351 438 q 250 471 281 458 q 190 502 218 484 q 142 546 163 520 q 110 605 121 571 q 98 685 98 640 q 123 797 98 750 q 190 872 147 843 q 291 916 233 902 q 417 929 349 929 q 551 915 496 929 q 645 873 606 901 q 706 805 683 846 q 743 709 729 764 l 615 687 q 593 749 608 722 q 554 794 578 776 q 496 822 530 812 q 416 831 463 831 q 326 820 362 831 q 267 790 289 809 q 234 744 244 770 q 224 687 224 718 q 242 621 224 646 q 291 579 260 595 q 363 551 322 562 q 451 528 404 541 q 526 508 488 519 q 599 484 564 498 q 664 450 634 469 q 717 403 694 431 q 752 338 739 375 q 765 251 765 300 z "},"T":{"ha":833,"x_min":52,"x_max":781,"o":"m 481 809 l 481 0 l 352 0 l 352 809 l 52 809 l 52 915 l 781 915 l 781 809 l 481 809 z "},"U":{"ha":833,"x_min":96,"x_max":736,"o":"m 736 332 q 716 174 736 239 q 656 66 696 108 q 554 5 616 24 q 410 -14 493 -14 q 273 4 332 -14 q 175 62 214 22 q 116 165 136 102 q 96 320 96 229 l 96 915 l 226 915 l 226 338 q 234 225 226 272 q 263 149 243 178 q 320 105 284 119 q 410 92 355 92 q 504 105 466 92 q 564 149 541 119 q 597 228 587 179 q 607 347 607 277 l 607 915 l 736 915 l 736 332 z "},"V":{"ha":833,"x_min":7,"x_max":826,"o":"m 484 0 l 349 0 l 7 915 l 143 915 l 360 303 q 381 240 371 273 q 399 178 391 207 q 417 114 408 146 q 435 177 425 144 q 453 238 443 205 q 474 303 463 271 l 690 915 l 826 915 l 484 0 z "},"W":{"ha":833,"x_min":0,"x_max":833,"o":"m 690 0 l 549 0 l 479 262 q 471 293 475 275 q 461 331 466 311 q 451 372 456 351 q 441 414 446 393 q 418 513 429 461 q 394 413 406 460 q 384 371 389 393 q 374 330 379 350 q 364 293 369 310 q 356 262 359 275 l 284 0 l 143 0 l 0 915 l 128 915 l 202 349 q 211 262 208 304 q 218 187 215 220 q 224 114 222 149 q 246 206 235 161 q 256 247 251 226 q 266 288 260 267 q 275 327 271 308 q 284 361 280 345 l 358 631 l 477 631 l 551 361 q 559 327 555 346 q 569 288 564 308 q 579 247 574 268 q 589 207 584 227 q 610 114 600 161 q 613 137 611 114 q 618 195 615 160 q 626 271 622 229 q 634 349 630 312 l 705 915 l 833 915 l 690 0 z "},"X":{"ha":833,"x_min":24,"x_max":809,"o":"m 416 567 l 642 915 l 781 915 l 486 478 l 809 0 l 670 0 l 416 389 l 163 0 l 24 0 l 347 478 l 52 915 l 191 915 l 416 567 z "},"Y":{"ha":833,"x_min":24,"x_max":808,"o":"m 480 396 l 480 0 l 353 0 l 353 396 l 24 915 l 163 915 l 417 500 l 669 915 l 808 915 l 480 396 z "},"Z":{"ha":833,"x_min":50,"x_max":783,"o":"m 783 0 l 50 0 l 50 97 l 604 809 l 99 809 l 99 915 l 751 915 l 751 821 l 197 106 l 783 106 l 783 0 z "},"[":{"ha":833,"x_min":278,"x_max":649,"o":"m 278 -288 l 278 1006 l 649 1006 l 649 912 l 400 912 l 400 -194 l 649 -194 l 649 -288 l 278 -288 z "},"\\":{"ha":833,"x_min":78,"x_max":755,"o":"m 632 -14 l 78 1006 l 199 1006 l 755 -14 l 632 -14 z "},"]":{"ha":833,"x_min":183,"x_max":554,"o":"m 183 -288 l 183 -194 l 432 -194 l 432 912 l 183 912 l 183 1006 l 554 1006 l 554 -288 l 183 -288 z "},"^":{"ha":833,"x_min":90,"x_max":742,"o":"m 637 300 l 414 844 l 193 300 l 90 300 l 347 915 l 484 915 l 742 300 l 637 300 z "},"_":{"ha":833,"x_min":-3,"x_max":836,"o":"m -3 -149 l -3 -84 l 836 -84 l 836 -149 l -3 -149 z "},"`":{"ha":833,"x_min":273,"x_max":560,"o":"m 476 814 l 273 970 l 273 990 l 406 990 l 560 828 l 560 814 l 476 814 z "},"a":{"ha":833,"x_min":87,"x_max":787,"o":"m 747 75 q 767 77 757 75 q 787 80 777 78 l 787 4 q 741 -4 764 -1 q 692 -7 718 -7 q 633 2 658 -7 q 593 30 608 12 q 569 76 577 49 q 559 140 561 104 l 555 140 q 513 77 536 105 q 460 28 490 48 q 391 -3 430 8 q 302 -14 353 -14 q 141 45 195 -14 q 87 205 87 103 q 114 324 87 277 q 184 397 140 370 q 282 434 227 423 q 395 445 338 444 l 555 448 l 555 488 q 546 565 555 533 q 518 616 536 597 q 471 645 499 636 q 404 654 442 654 q 343 649 370 654 q 296 631 315 644 q 263 595 276 618 q 247 538 251 572 l 119 549 q 145 629 126 593 q 197 692 163 665 q 282 733 231 718 q 406 747 334 747 q 610 684 542 747 q 678 500 678 621 l 678 184 q 692 103 678 130 q 747 75 707 75 m 334 79 q 431 101 390 79 q 500 155 473 122 q 541 227 528 187 q 555 302 555 266 l 555 362 l 426 359 q 351 354 389 359 q 283 332 313 349 q 234 285 253 316 q 215 203 215 254 q 245 113 215 147 q 334 79 275 79 z "},"b":{"ha":833,"x_min":121,"x_max":739,"o":"m 739 370 q 670 82 739 178 q 473 -14 602 -14 q 337 16 395 -14 q 247 111 279 45 l 245 111 q 245 75 245 94 q 243 41 244 56 q 241 14 242 25 q 239 0 240 3 l 121 0 q 123 21 122 6 q 124 56 123 35 q 125 100 125 76 q 125 151 125 125 l 125 1006 l 248 1006 l 248 720 q 247 681 248 700 q 246 646 247 661 q 245 613 245 629 l 248 613 q 337 716 280 684 q 474 749 395 749 q 673 655 606 749 q 739 370 739 561 m 613 366 q 603 497 613 442 q 571 586 593 551 q 518 638 550 621 q 441 654 486 654 q 360 639 396 654 q 299 589 324 624 q 261 497 275 554 q 248 355 248 439 q 261 221 248 275 q 299 135 275 168 q 360 90 324 103 q 439 77 395 77 q 515 92 482 77 q 569 142 547 108 q 602 232 591 177 q 613 366 613 288 z "},"c":{"ha":833,"x_min":88,"x_max":732,"o":"m 88 368 q 117 551 88 478 q 194 668 146 625 q 303 729 242 711 q 429 747 364 747 q 547 730 495 747 q 637 684 600 713 q 699 614 675 654 q 731 528 722 574 l 601 519 q 547 616 590 581 q 423 652 503 652 q 325 633 365 652 q 261 579 286 614 q 227 491 237 543 q 216 370 216 438 q 227 249 216 302 q 261 157 237 195 q 325 100 286 120 q 422 81 365 81 q 544 117 496 81 q 604 227 592 153 l 732 218 q 703 131 726 173 q 642 57 680 89 q 549 6 603 25 q 428 -14 496 -14 q 270 16 335 -14 q 165 96 205 45 q 106 217 125 147 q 88 368 88 286 z "},"d":{"ha":833,"x_min":94,"x_max":711,"o":"m 585 118 q 496 15 551 47 q 359 -18 441 -18 q 158 77 222 -18 q 94 361 94 171 q 359 745 94 745 q 497 715 441 745 q 585 620 552 686 l 587 620 q 586 637 587 623 q 586 669 586 652 q 586 701 586 686 q 585 722 585 716 l 585 1006 l 707 1006 l 707 151 q 708 100 707 125 q 709 56 708 76 q 710 21 709 35 q 711 0 711 6 l 595 0 q 593 15 594 3 q 590 44 591 27 q 589 81 589 61 q 588 118 588 100 l 585 118 m 220 365 q 230 235 220 289 q 260 145 239 180 q 313 93 281 110 q 391 77 346 77 q 474 93 438 77 q 535 145 511 109 q 573 237 560 180 q 585 376 585 294 q 573 508 585 454 q 536 593 560 561 q 475 640 511 626 q 393 654 439 654 q 317 639 349 654 q 263 589 284 623 q 231 499 241 554 q 220 365 220 444 z "},"e":{"ha":833,"x_min":90,"x_max":742,"o":"m 218 341 q 231 235 218 283 q 270 152 244 186 q 334 97 296 117 q 422 78 372 78 q 491 86 460 78 q 548 110 523 95 q 590 145 573 125 q 615 191 607 166 l 722 160 q 690 99 711 130 q 632 43 668 68 q 545 2 596 18 q 422 -14 493 -14 q 283 11 345 -14 q 178 83 221 35 q 113 204 136 132 q 90 372 90 276 q 117 549 90 477 q 189 665 144 621 q 294 728 235 709 q 418 747 353 747 q 569 719 507 747 q 669 639 630 690 q 725 516 707 588 q 742 357 742 444 l 742 341 l 218 341 m 420 657 q 354 647 389 657 q 291 612 320 637 q 242 544 262 587 q 220 435 222 501 l 616 435 q 593 541 610 498 q 549 610 575 584 q 490 646 523 635 q 420 657 456 657 z "},"f":{"ha":833,"x_min":94,"x_max":745,"o":"m 393 637 l 393 0 l 271 0 l 271 637 l 94 637 l 94 734 l 271 734 l 271 751 q 287 868 271 819 q 336 947 302 916 q 424 992 370 978 q 555 1006 477 1006 q 602 1005 574 1006 q 656 1002 629 1004 q 707 998 683 1000 q 745 992 731 995 l 745 894 q 709 898 733 896 q 657 902 684 900 q 606 904 631 903 q 569 905 582 905 q 491 899 524 905 q 436 873 458 892 q 404 823 414 855 q 393 741 393 791 l 393 734 l 726 734 l 726 637 l 393 637 z "},"g":{"ha":833,"x_min":97,"x_max":715,"o":"m 417 -288 q 310 -275 356 -288 q 230 -238 263 -262 q 175 -180 196 -214 q 146 -106 155 -147 l 271 -90 q 320 -168 282 -140 q 421 -195 359 -195 q 491 -184 460 -195 q 544 -147 522 -172 q 577 -81 566 -121 q 589 18 589 -40 l 589 150 l 588 150 q 555 97 575 123 q 507 52 535 71 q 441 20 479 32 q 355 8 404 8 q 237 31 286 8 q 157 98 189 53 q 112 212 126 144 q 97 372 97 281 q 112 530 97 461 q 158 647 126 600 q 242 720 191 695 q 368 745 294 745 q 502 710 445 745 q 589 608 558 674 l 591 608 q 592 646 591 625 q 594 686 593 667 q 596 718 595 705 q 599 734 598 732 l 715 734 q 713 713 714 728 q 712 678 713 699 q 711 633 711 658 q 711 582 711 608 l 711 22 q 639 -210 711 -132 q 417 -288 567 -288 m 589 374 q 573 504 589 450 q 530 591 557 557 q 469 640 503 625 q 399 654 435 654 q 320 639 353 654 q 265 590 287 624 q 233 504 243 557 q 223 374 223 450 q 233 241 223 294 q 265 157 243 189 q 319 112 286 125 q 397 98 352 98 q 467 113 433 98 q 529 160 502 127 q 573 245 556 193 q 589 374 589 298 z "},"h":{"ha":833,"x_min":125,"x_max":711,"o":"m 125 1006 l 248 1006 l 248 742 q 246 674 248 708 q 242 608 244 640 l 244 608 q 282 666 260 640 q 332 710 304 692 q 395 738 359 728 q 474 747 431 747 q 574 732 530 747 q 649 686 618 718 q 695 606 680 655 q 711 489 711 557 l 711 0 l 589 0 l 589 471 q 577 561 589 526 q 546 616 566 595 q 499 645 526 637 q 439 653 472 653 q 365 638 399 653 q 303 594 330 623 q 262 523 277 565 q 248 425 248 480 l 248 0 l 125 0 l 125 1006 z "},"i":{"ha":833,"x_min":97,"x_max":763,"o":"m 505 96 l 763 96 l 763 0 l 97 0 l 97 96 l 383 96 l 383 637 l 167 637 l 167 734 l 505 734 l 505 96 m 370 876 l 370 1006 l 505 1006 l 505 876 l 370 876 z "},"j":{"ha":833,"x_min":79,"x_max":567,"o":"m 567 -19 q 543 -144 567 -93 q 479 -228 519 -195 q 386 -274 439 -260 q 275 -288 333 -288 q 219 -286 247 -288 q 165 -279 191 -283 q 118 -270 140 -275 q 79 -259 96 -265 l 79 -164 q 115 -172 94 -168 q 159 -179 135 -176 q 211 -185 184 -182 q 264 -187 237 -187 q 335 -178 302 -187 q 393 -148 368 -168 q 431 -95 417 -127 q 445 -17 445 -62 l 445 637 l 169 637 l 169 734 l 567 734 l 567 -19 m 431 876 l 431 1006 l 567 1006 l 567 876 l 431 876 z "},"k":{"ha":833,"x_min":160,"x_max":763,"o":"m 620 0 l 372 338 l 282 272 l 282 0 l 160 0 l 160 1006 l 282 1006 l 282 378 l 604 734 l 747 734 l 450 418 l 763 0 l 620 0 z "},"l":{"ha":833,"x_min":91,"x_max":757,"o":"m 499 96 l 757 96 l 757 0 l 91 0 l 91 96 l 377 96 l 377 910 l 181 910 l 181 1006 l 499 1006 l 499 96 z "},"m":{"ha":833,"x_min":67,"x_max":762,"o":"m 360 0 l 360 465 q 356 555 360 519 q 343 613 352 591 q 319 644 334 635 q 283 653 304 653 q 243 636 260 653 q 212 587 225 618 q 193 511 199 555 q 186 412 186 467 l 186 0 l 71 0 l 71 577 q 71 626 71 600 q 70 674 71 651 q 68 713 69 696 q 67 734 68 729 l 168 734 q 170 716 169 730 q 171 685 170 703 q 172 648 172 667 q 172 615 172 629 l 174 615 q 195 666 182 642 q 224 708 207 690 q 265 737 241 726 q 320 747 289 747 q 409 715 380 747 q 452 614 439 682 l 453 614 q 480 671 465 646 q 513 713 494 696 q 557 739 532 730 q 613 747 581 747 q 683 732 654 747 q 729 686 711 718 q 754 606 747 655 q 762 489 762 557 l 762 0 l 648 0 l 648 465 q 644 555 648 519 q 631 613 640 591 q 607 644 622 635 q 571 653 593 653 q 500 596 526 653 q 474 425 474 539 l 474 0 l 360 0 z "},"n":{"ha":833,"x_min":121,"x_max":711,"o":"m 589 0 l 589 471 q 577 561 589 526 q 546 616 566 595 q 499 645 526 637 q 439 653 472 653 q 365 638 399 653 q 303 594 330 623 q 262 523 277 565 q 248 425 248 480 l 248 0 l 125 0 l 125 577 q 125 626 125 600 q 124 674 125 651 q 123 713 123 696 q 121 734 122 729 l 237 734 q 238 715 237 730 q 240 681 239 701 q 241 642 241 662 q 242 608 242 622 l 244 608 q 282 666 260 640 q 333 710 304 692 q 398 738 362 728 q 479 747 434 747 q 578 732 535 747 q 651 686 622 718 q 696 606 681 655 q 711 489 711 557 l 711 0 l 589 0 z "},"o":{"ha":833,"x_min":88,"x_max":744,"o":"m 744 368 q 721 200 744 271 q 656 81 699 128 q 552 10 613 33 q 413 -14 490 -14 q 279 9 339 -14 q 177 80 219 33 q 111 199 134 127 q 88 368 88 271 q 174 652 88 557 q 417 747 260 747 q 663 653 583 747 q 744 368 744 559 m 616 368 q 601 509 616 453 q 561 597 587 564 q 498 644 534 631 q 419 657 463 657 q 338 643 375 657 q 274 596 300 629 q 232 507 247 562 q 216 368 216 451 q 232 226 216 282 q 275 137 248 170 q 337 90 302 104 q 412 77 373 77 q 493 90 456 77 q 558 136 531 103 q 601 226 585 170 q 616 368 616 282 z "},"p":{"ha":833,"x_min":121,"x_max":739,"o":"m 739 370 q 726 216 739 287 q 681 95 712 146 q 599 15 650 44 q 473 -14 548 -14 q 402 -7 436 -14 q 339 15 368 0 q 287 54 310 30 q 249 111 264 77 l 245 111 q 247 99 246 110 q 247 73 247 89 q 248 38 248 58 q 248 -1 248 18 l 248 -288 l 125 -288 l 125 582 q 125 634 125 609 q 124 679 125 659 q 123 713 123 699 q 121 734 122 728 l 240 734 q 242 719 241 732 q 244 689 243 707 q 246 651 245 671 q 247 613 247 631 l 250 613 q 288 674 267 648 q 336 716 309 700 q 397 741 363 733 q 473 749 431 749 q 599 722 548 749 q 681 645 650 694 q 726 525 712 595 q 739 370 739 455 m 613 370 q 605 491 613 438 q 577 580 597 544 q 524 635 557 616 q 441 654 491 654 q 366 642 401 654 q 305 596 331 629 q 263 505 279 564 q 248 355 248 447 q 261 224 248 277 q 298 138 273 171 q 358 91 322 105 q 440 77 394 77 q 523 96 490 77 q 576 153 556 115 q 605 245 596 190 q 613 370 613 300 z "},"q":{"ha":833,"x_min":94,"x_max":712,"o":"m 359 745 q 438 737 404 745 q 499 714 473 730 q 547 675 526 699 q 584 620 568 652 l 585 620 q 586 656 585 637 q 588 692 587 675 q 591 721 589 709 q 593 734 593 732 l 712 734 q 711 715 711 728 q 709 678 710 701 q 708 622 709 655 q 708 543 708 589 l 708 -288 l 585 -288 l 585 9 q 586 47 585 27 q 587 84 586 66 q 588 123 587 104 l 587 123 q 548 62 570 89 q 499 18 527 36 q 438 -9 472 0 q 359 -18 404 -18 q 158 78 222 -18 q 94 361 94 173 q 160 648 94 551 q 359 745 226 745 m 585 376 q 572 510 585 456 q 533 595 558 564 q 472 641 508 627 q 393 654 437 654 q 314 637 347 654 q 260 584 281 620 q 230 494 239 549 q 220 365 220 439 q 229 239 220 293 q 259 149 239 185 q 312 95 279 113 q 391 77 345 77 q 467 90 431 77 q 528 137 502 103 q 570 228 555 170 q 585 376 585 286 z "},"r":{"ha":833,"x_min":164,"x_max":709,"o":"m 709 623 q 642 632 677 628 q 565 635 607 635 q 463 612 508 635 q 386 550 417 589 q 338 457 355 510 q 321 345 321 404 l 321 0 l 199 0 l 199 475 q 195 553 199 513 q 186 627 191 592 q 174 690 180 662 q 164 734 168 718 l 280 734 q 290 696 285 718 q 300 653 295 675 q 308 607 304 630 q 313 564 311 584 l 316 564 q 356 640 335 606 q 406 698 377 674 q 474 734 435 722 q 569 747 513 747 q 644 744 607 747 q 709 736 680 741 l 709 623 z "},"s":{"ha":833,"x_min":113,"x_max":719,"o":"m 719 210 q 699 117 719 158 q 641 46 679 75 q 548 2 603 18 q 421 -14 492 -14 q 306 -4 357 -14 q 216 26 255 5 q 152 82 178 47 q 113 168 125 117 l 221 189 q 247 130 229 152 q 291 96 265 108 q 349 81 316 85 q 421 77 382 77 q 494 83 460 77 q 552 103 528 89 q 590 139 576 117 q 604 193 604 161 q 587 248 604 227 q 540 283 570 269 q 469 307 510 297 q 380 330 428 317 q 294 355 336 342 q 217 391 251 369 q 163 447 184 413 q 142 533 142 481 q 214 689 142 633 q 422 745 286 745 q 523 735 476 745 q 606 704 570 726 q 668 649 643 683 q 702 569 692 616 l 592 555 q 572 605 587 586 q 533 635 556 624 q 482 650 511 646 q 422 654 454 654 q 256 552 256 654 q 271 502 256 521 q 312 469 286 482 q 375 447 338 456 q 456 427 412 438 q 546 401 500 416 q 631 363 593 387 q 694 303 669 340 q 719 210 719 266 z "},"t":{"ha":833,"x_min":129,"x_max":690,"o":"m 129 637 l 129 734 l 244 734 l 283 925 l 365 925 l 365 734 l 658 734 l 658 637 l 365 637 l 365 195 q 394 116 365 142 q 488 90 422 90 q 544 93 515 90 q 600 98 573 95 q 650 106 627 102 q 690 113 673 110 l 690 20 q 651 11 675 16 q 598 1 627 5 q 534 -7 568 -4 q 463 -11 499 -11 q 298 36 353 -11 q 243 182 243 82 l 243 637 l 129 637 z "},"u":{"ha":833,"x_min":125,"x_max":715,"o":"m 248 734 l 248 269 q 255 179 248 215 q 281 121 263 143 q 328 90 299 99 q 399 81 357 81 q 478 96 443 81 q 537 140 513 111 q 575 211 562 169 q 589 309 589 254 l 589 734 l 711 734 l 711 157 q 712 108 711 134 q 713 60 712 83 q 714 21 713 37 q 715 0 715 5 l 600 0 q 599 18 600 3 q 597 53 598 33 q 595 92 596 72 q 595 125 595 112 l 593 125 q 554 68 575 94 q 505 24 533 42 q 441 -4 477 6 q 358 -14 406 -14 q 253 1 297 -14 q 180 47 209 16 q 139 128 152 79 q 125 245 125 177 l 125 734 l 248 734 z "},"v":{"ha":833,"x_min":47,"x_max":786,"o":"m 485 0 l 340 0 l 47 734 l 184 734 l 366 256 q 377 220 371 241 q 390 176 383 199 q 402 131 397 153 q 412 96 408 110 q 423 131 416 110 q 436 175 429 153 q 450 219 443 197 q 463 255 457 240 l 650 734 l 786 734 l 485 0 z "},"w":{"ha":833,"x_min":14,"x_max":819,"o":"m 690 0 l 552 0 l 455 319 q 443 361 450 338 q 430 406 436 385 q 416 456 422 431 q 403 407 410 431 q 390 362 397 386 q 376 317 383 338 l 276 0 l 138 0 l 14 734 l 135 734 l 198 322 q 204 277 200 306 q 211 216 208 248 q 218 152 215 183 q 220 101 220 121 q 235 159 228 132 q 248 208 241 183 q 260 246 255 233 l 351 534 l 482 534 l 570 245 q 581 208 574 232 q 593 160 587 184 q 608 101 601 132 q 610 152 608 121 q 617 215 613 182 q 625 276 621 247 q 631 322 629 305 l 700 734 l 819 734 l 690 0 z "},"x":{"ha":833,"x_min":64,"x_max":768,"o":"m 632 0 l 414 301 l 195 0 l 64 0 l 345 377 l 76 734 l 211 734 l 414 448 l 616 734 l 753 734 l 484 378 l 768 0 l 632 0 z "},"y":{"ha":833,"x_min":45,"x_max":787,"o":"m 478 0 q 426 -120 453 -66 q 366 -211 399 -173 q 292 -268 332 -248 q 198 -288 251 -288 q 155 -287 175 -288 q 114 -281 136 -286 l 114 -189 q 143 -192 127 -191 q 171 -193 159 -193 q 272 -153 224 -193 q 351 -26 319 -113 l 363 7 l 45 734 l 175 734 l 354 298 q 372 253 361 280 q 393 200 383 227 q 411 153 404 174 q 420 126 419 132 q 430 154 422 134 q 448 200 438 175 q 469 253 458 226 q 488 299 479 279 l 659 734 l 787 734 l 478 0 z "},"z":{"ha":833,"x_min":100,"x_max":724,"o":"m 100 0 l 100 93 l 562 640 l 127 640 l 127 734 l 699 734 l 699 641 l 237 94 l 724 94 l 724 0 l 100 0 z "},"{":{"ha":833,"x_min":154,"x_max":720,"o":"m 540 -288 q 459 -273 496 -288 q 396 -231 422 -258 q 355 -166 370 -204 q 340 -83 340 -129 l 340 155 q 325 228 340 198 q 282 275 309 257 q 222 302 256 294 q 154 313 189 311 l 154 406 q 222 416 189 407 q 282 443 256 425 q 325 491 309 462 q 340 562 340 520 l 340 801 q 355 886 340 848 q 396 951 370 924 q 459 992 422 978 q 540 1006 496 1006 l 720 1006 l 720 912 l 575 912 q 523 905 545 912 q 486 882 500 898 q 466 842 472 867 q 459 780 459 817 l 459 545 q 445 475 459 507 q 409 421 431 444 q 358 382 387 397 q 302 361 330 368 l 302 359 q 360 337 332 353 q 410 299 388 322 q 446 244 432 276 q 459 174 459 213 l 459 -62 q 486 -164 459 -134 q 575 -194 513 -194 l 720 -194 l 720 -288 l 540 -288 z "},"|":{"ha":833,"x_min":360,"x_max":473,"o":"m 360 -288 l 360 1006 l 473 1006 l 473 -288 l 360 -288 z "},"}":{"ha":833,"x_min":113,"x_max":679,"o":"m 113 -288 l 113 -194 l 258 -194 q 347 -164 319 -194 q 374 -62 374 -134 l 374 174 q 388 244 374 213 q 424 299 401 276 q 473 337 446 322 q 530 359 501 353 l 530 361 q 475 382 503 368 q 425 421 447 397 q 388 475 402 444 q 374 545 374 507 l 374 780 q 368 842 374 817 q 347 882 361 867 q 310 905 332 898 q 258 912 288 912 l 113 912 l 113 1006 l 293 1006 q 374 992 337 1006 q 437 951 410 978 q 478 886 463 924 q 492 801 492 848 l 492 562 q 508 491 492 520 q 551 443 524 462 q 611 416 577 425 q 679 406 644 407 l 679 313 q 611 302 644 311 q 551 275 577 294 q 508 228 524 257 q 492 155 492 198 l 492 -83 q 478 -166 492 -129 q 437 -231 463 -204 q 374 -273 410 -258 q 293 -288 337 -288 l 113 -288 z "},"~":{"ha":833,"x_min":73,"x_max":760,"o":"m 252 547 q 306 543 279 547 q 359 532 333 538 q 411 516 385 525 q 461 498 436 507 q 492 488 475 494 q 527 478 509 483 q 561 471 544 473 q 594 468 578 468 q 683 485 641 468 q 760 530 724 502 l 760 429 q 718 404 739 414 q 677 387 698 393 q 633 378 656 380 q 583 375 610 375 q 487 390 536 375 q 389 422 438 405 q 241 453 301 453 q 194 449 216 453 q 151 437 172 445 q 112 418 131 429 q 73 393 93 408 l 73 490 q 152 532 107 516 q 252 547 197 547 z "},"¡":{"ha":833,"x_min":349,"x_max":484,"o":"m 366 465 l 466 465 l 482 -180 l 349 -180 l 366 465 m 484 734 l 484 597 l 352 597 l 352 734 l 484 734 z "},"¢":{"ha":833,"x_min":90,"x_max":742,"o":"m 387 186 l 387 714 q 269 650 312 703 q 214 453 214 581 q 271 251 214 319 q 387 186 315 198 m 473 715 l 473 186 q 500 192 488 188 q 556 220 532 201 q 596 266 581 238 q 618 330 612 293 l 742 321 q 716 240 736 279 q 663 170 696 201 q 582 117 629 138 q 473 91 534 96 l 473 -41 l 387 -41 l 387 91 q 256 124 312 96 q 164 199 201 153 q 109 308 127 245 q 90 445 90 370 q 110 590 90 525 q 168 701 130 654 q 261 776 205 748 q 387 810 316 804 l 387 935 l 473 935 l 473 810 q 577 787 532 806 q 655 739 622 768 q 708 672 688 710 q 738 592 729 635 l 612 583 q 556 681 601 644 q 473 715 525 707 z "},"£":{"ha":833,"x_min":38,"x_max":794,"o":"m 794 163 q 777 104 788 134 q 748 52 766 75 q 702 15 730 29 q 635 0 675 0 l 38 0 l 38 104 q 92 136 67 119 q 133 176 116 152 q 160 234 151 199 q 170 319 170 269 l 170 415 l 44 415 l 44 511 l 170 511 l 170 661 q 188 773 170 723 q 240 857 205 823 q 329 910 275 892 q 456 929 383 929 q 549 919 507 929 q 626 890 592 909 q 685 841 661 870 q 722 773 709 812 q 718 771 722 773 q 705 766 713 769 q 686 760 696 764 q 664 753 675 757 q 604 734 637 745 q 549 799 589 777 q 456 821 509 821 q 333 782 374 821 q 292 658 292 743 l 292 511 l 569 511 l 569 415 l 292 415 l 292 321 q 287 248 292 281 q 270 190 282 216 q 237 143 258 163 q 187 107 217 123 l 594 107 q 653 125 634 107 q 680 179 673 143 l 794 163 z "},"¤":{"ha":833,"x_min":107,"x_max":726,"o":"m 123 464 q 137 555 123 512 q 176 635 151 598 l 109 703 l 179 772 l 246 704 q 326 745 283 730 q 418 760 369 760 q 509 745 467 760 q 589 705 552 731 l 654 771 l 725 700 l 660 635 q 700 555 685 598 q 714 464 714 512 q 699 372 714 416 q 659 293 684 329 l 726 225 l 657 154 l 589 222 q 509 183 552 197 q 418 170 467 170 q 326 184 370 170 q 248 224 283 198 l 176 153 l 107 224 l 176 293 q 137 373 151 330 q 123 464 123 416 m 228 465 q 243 391 228 426 q 284 331 258 357 q 345 290 310 305 q 418 275 379 275 q 492 290 457 275 q 552 331 526 305 q 593 391 578 357 q 608 465 608 426 q 593 539 608 505 q 552 600 578 574 q 492 641 526 626 q 418 656 457 656 q 345 641 379 656 q 284 600 310 626 q 243 539 258 574 q 228 465 228 505 z "},"¥":{"ha":833,"x_min":35,"x_max":798,"o":"m 518 460 l 736 460 l 736 364 l 476 364 l 476 271 l 736 271 l 736 174 l 476 174 l 476 0 l 355 0 l 355 174 l 97 174 l 97 271 l 355 271 l 357 364 l 97 364 l 97 460 l 314 460 l 35 915 l 170 915 l 415 496 l 663 915 l 798 915 l 518 460 z "},"¦":{"ha":833,"x_min":360,"x_max":473,"o":"m 360 458 l 360 986 l 473 986 l 473 458 l 360 458 m 360 -309 l 360 220 l 473 220 l 473 -309 l 360 -309 z "},"§":{"ha":833,"x_min":108,"x_max":724,"o":"m 429 1006 q 529 996 482 1006 q 612 965 576 986 q 674 910 649 943 q 709 830 699 877 l 600 817 q 578 868 594 847 q 540 901 563 888 q 489 919 517 913 q 429 925 460 925 q 300 895 344 925 q 256 817 256 865 q 273 764 256 786 q 318 727 290 743 q 384 701 347 711 q 460 680 420 690 q 554 654 507 669 q 639 613 601 638 q 701 553 677 589 q 724 465 724 517 q 715 405 724 435 q 687 351 705 376 q 640 308 668 326 q 576 280 612 289 q 636 249 609 266 q 681 210 663 231 q 710 160 700 188 q 720 98 720 133 q 701 9 720 49 q 643 -59 681 -31 q 549 -102 605 -87 q 421 -117 494 -117 q 306 -107 358 -117 q 214 -77 254 -98 q 148 -20 174 -55 q 108 68 121 16 l 217 89 q 244 27 225 52 q 289 -11 262 3 q 349 -30 315 -24 q 421 -35 382 -35 q 495 -28 460 -35 q 556 -6 530 -21 q 597 33 582 9 q 612 87 612 56 q 592 149 612 124 q 541 191 573 174 q 467 220 509 208 q 381 243 425 232 q 293 269 337 253 q 213 309 248 284 q 156 370 178 334 q 134 455 134 406 q 144 514 134 486 q 175 566 155 542 q 224 608 195 590 q 288 636 252 626 q 234 661 260 646 q 190 699 209 677 q 159 747 170 720 q 148 807 148 774 q 219 954 148 901 q 429 1006 291 1006 m 617 450 q 599 506 617 482 q 551 546 581 529 q 483 575 522 564 q 404 597 445 587 q 334 584 364 595 q 283 555 304 572 q 253 514 263 537 q 242 464 242 490 q 259 410 242 433 q 303 372 275 388 q 368 344 331 355 q 445 322 404 332 q 513 331 481 323 q 568 355 545 339 q 604 395 591 371 q 617 450 617 418 z "},"¨":{"ha":833,"x_min":227,"x_max":605,"o":"m 494 827 l 494 951 l 605 951 l 605 827 l 494 827 m 227 827 l 227 951 l 339 951 l 339 827 l 227 827 z "},"©":{"ha":833,"x_min":21,"x_max":812,"o":"m 270 517 q 279 428 270 469 q 308 358 289 387 q 355 313 327 329 q 422 296 384 296 q 471 306 450 296 q 508 330 492 315 q 535 364 524 345 q 555 402 547 383 l 633 378 q 602 322 620 349 q 559 273 585 294 q 501 239 534 252 q 422 226 467 226 q 316 248 361 226 q 241 308 271 269 q 197 400 212 347 q 182 517 182 454 q 197 637 182 584 q 241 727 212 690 q 314 785 270 765 q 417 805 358 805 q 496 793 463 805 q 554 761 530 781 q 595 715 578 741 q 623 663 612 690 l 545 641 q 528 675 538 659 q 501 705 517 692 q 465 726 486 718 q 418 734 445 734 q 351 718 379 734 q 305 674 323 703 q 278 606 287 646 q 270 517 270 566 m 812 516 q 781 297 812 389 q 696 144 750 204 q 571 55 643 83 q 416 26 498 26 q 263 55 335 26 q 137 144 191 83 q 52 297 83 204 q 21 516 21 389 q 52 735 21 643 q 137 888 83 828 q 262 977 191 948 q 416 1006 334 1006 q 571 977 498 1006 q 696 888 643 948 q 781 735 750 828 q 812 516 812 643 m 749 516 q 723 710 749 629 q 652 842 697 791 q 546 918 606 894 q 416 942 486 942 q 288 918 348 942 q 182 842 227 894 q 112 710 138 791 q 85 516 85 629 q 112 321 85 402 q 182 189 138 240 q 288 113 227 137 q 416 90 348 90 q 546 113 486 90 q 652 189 606 137 q 723 321 697 240 q 749 516 749 402 z "},"ª":{"ha":833,"x_min":140,"x_max":692,"o":"m 140 590 q 159 668 140 637 q 213 718 179 699 q 290 745 246 737 q 382 754 334 753 l 512 757 l 512 786 q 480 879 512 849 q 390 909 448 909 q 302 886 333 909 q 263 811 271 863 l 162 818 q 184 878 168 850 q 229 926 200 905 q 298 959 257 947 q 393 971 339 971 q 553 926 496 971 q 609 790 609 880 l 609 593 q 620 533 609 553 q 659 513 630 513 q 677 514 667 513 q 692 518 686 516 l 692 454 q 658 448 677 450 q 623 446 639 446 q 542 474 568 446 q 515 554 517 503 l 512 554 q 433 472 483 502 q 315 441 384 441 q 186 480 233 441 q 140 590 140 519 m 239 604 q 245 568 239 585 q 264 538 252 551 q 297 517 277 525 q 342 510 316 510 q 414 525 382 510 q 467 564 445 541 q 500 614 489 587 q 512 667 512 642 l 512 701 l 408 699 q 343 693 374 698 q 290 679 313 689 q 253 651 267 669 q 239 604 239 633 z "},"«":{"ha":833,"x_min":86,"x_max":760,"o":"m 637 96 l 408 343 l 408 386 l 637 637 l 758 637 l 758 616 l 529 364 l 760 115 l 760 96 l 637 96 m 314 96 l 86 343 l 86 386 l 314 637 l 434 637 l 434 616 l 207 364 l 435 115 l 435 96 l 314 96 z "},"¬":{"ha":833,"x_min":79,"x_max":753,"o":"m 655 122 l 655 412 l 79 412 l 79 511 l 753 511 l 753 122 l 655 122 z "},"®":{"ha":833,"x_min":21,"x_max":812,"o":"m 812 516 q 781 297 812 389 q 696 144 750 204 q 571 55 643 83 q 416 26 498 26 q 263 55 335 26 q 137 144 191 83 q 52 297 83 204 q 21 516 21 389 q 52 735 21 643 q 137 888 83 828 q 262 977 191 948 q 416 1006 334 1006 q 571 977 498 1006 q 696 888 643 948 q 781 735 750 828 q 812 516 812 643 m 749 516 q 723 710 749 629 q 652 842 697 791 q 546 918 606 894 q 416 942 486 942 q 288 918 348 942 q 182 842 227 894 q 112 710 138 791 q 85 516 85 629 q 112 321 85 402 q 182 189 138 240 q 288 113 227 137 q 416 90 348 90 q 546 113 486 90 q 652 189 606 137 q 723 321 697 240 q 749 516 749 402 m 553 233 l 418 460 l 309 460 l 309 233 l 222 233 l 222 796 l 431 796 q 578 753 527 796 q 629 635 629 711 q 594 525 629 566 q 501 470 559 483 l 651 233 l 553 233 m 543 634 q 511 705 543 681 q 424 730 479 730 l 309 730 l 309 526 l 432 526 q 515 554 486 526 q 543 634 543 583 z "},"¯":{"ha":833,"x_min":-3,"x_max":836,"o":"m -3 1032 l -3 1097 l 836 1097 l 836 1032 l -3 1032 z "},"°":{"ha":833,"x_min":222,"x_max":611,"o":"m 611 736 q 596 661 611 696 q 554 599 581 625 q 492 558 528 573 q 416 543 456 543 q 341 558 376 543 q 279 599 306 573 q 237 661 253 625 q 222 736 222 696 q 237 812 222 777 q 279 873 253 847 q 341 914 306 899 q 416 929 376 929 q 492 914 456 929 q 554 873 528 899 q 596 812 581 847 q 611 736 611 777 m 537 736 q 528 784 537 762 q 503 822 519 806 q 464 848 486 839 q 416 858 442 858 q 369 848 391 858 q 331 822 347 839 q 305 784 315 806 q 296 736 296 762 q 305 689 296 711 q 331 650 315 667 q 369 624 347 633 q 416 614 391 614 q 464 624 442 614 q 503 650 486 633 q 528 689 519 667 q 537 736 537 711 z "},"±":{"ha":833,"x_min":79,"x_max":753,"o":"m 466 461 l 466 193 l 366 193 l 366 461 l 79 461 l 79 559 l 366 559 l 366 827 l 466 827 l 466 559 l 753 559 l 753 461 l 466 461 m 79 0 l 79 98 l 753 98 l 753 0 l 79 0 z "},"²":{"ha":833,"x_min":212,"x_max":621,"o":"m 213 382 l 212 452 q 260 525 230 493 q 323 585 290 557 q 392 636 357 612 q 455 685 427 660 q 500 737 483 709 q 518 799 518 765 q 494 866 518 841 q 420 892 470 892 q 344 867 374 892 q 309 796 314 842 l 218 802 q 238 866 222 836 q 279 917 254 895 q 342 951 305 939 q 424 964 378 964 q 562 921 513 964 q 611 802 611 878 q 593 727 611 760 q 546 666 574 694 q 482 613 517 638 q 413 564 447 589 q 352 513 380 539 q 309 454 323 486 l 620 454 l 621 382 l 213 382 z "},"³":{"ha":833,"x_min":208,"x_max":625,"o":"m 625 539 q 572 417 625 460 q 423 374 519 374 q 325 387 364 374 q 261 422 286 400 q 224 471 236 444 q 208 528 212 498 l 300 536 q 336 468 306 491 q 423 444 366 444 q 504 469 475 444 q 532 545 532 493 q 519 593 532 575 q 488 622 507 612 q 446 634 469 631 q 404 637 423 637 l 362 637 l 362 711 l 401 711 q 441 716 420 711 q 479 731 462 720 q 507 759 496 741 q 517 804 517 777 q 492 868 517 845 q 419 892 467 892 q 345 868 373 892 q 312 800 316 844 l 220 808 q 242 877 225 848 q 286 925 259 906 q 348 954 313 945 q 422 964 382 964 q 504 952 469 964 q 563 921 539 941 q 598 874 587 901 q 610 817 610 848 q 581 728 610 766 q 491 677 552 691 l 491 676 q 552 660 526 673 q 593 629 577 648 q 617 588 610 611 q 625 539 625 565 z "},"´":{"ha":833,"x_min":273,"x_max":560,"o":"m 273 814 l 273 828 l 427 990 l 560 990 l 560 970 l 357 814 l 273 814 z "},"µ":{"ha":833,"x_min":98,"x_max":735,"o":"m 621 0 q 620 21 621 4 q 617 58 618 37 q 615 101 616 79 q 614 135 614 122 l 612 135 q 519 24 576 61 q 385 -14 463 -14 q 286 8 330 -14 q 221 69 243 30 l 218 69 q 221 26 220 47 q 221 -14 221 5 l 221 -267 l 98 -267 l 98 734 l 221 734 l 221 297 q 230 211 221 250 q 261 143 239 172 q 316 98 282 114 q 400 82 351 82 q 484 100 446 82 q 549 148 522 117 q 593 222 577 179 q 608 315 608 264 l 608 734 l 731 734 l 731 158 q 731 109 731 135 q 732 61 732 83 q 734 21 733 38 q 735 0 734 5 l 621 0 z "},"¶":{"ha":833,"x_min":86,"x_max":732,"o":"m 645 832 l 645 -220 l 555 -220 l 555 832 l 422 832 l 422 -220 l 332 -220 l 332 430 q 232 445 277 430 q 155 490 187 460 q 104 566 122 520 q 86 671 86 611 q 103 773 86 728 q 152 849 120 818 q 231 898 184 881 q 337 915 278 915 l 732 915 l 732 832 l 645 832 z "},"·":{"ha":833,"x_min":336,"x_max":496,"o":"m 336 285 l 336 488 l 496 488 l 496 285 l 336 285 z "},"¸":{"ha":833,"x_min":81,"x_max":328,"o":"m 328 -175 q 317 -227 328 -203 q 285 -267 307 -250 q 228 -292 263 -283 q 142 -301 193 -301 q 113 -301 128 -301 q 81 -298 98 -300 l 81 -232 q 139 -236 115 -236 q 186 -232 167 -236 q 217 -220 205 -227 q 234 -201 229 -212 q 239 -178 239 -191 q 218 -136 239 -151 q 149 -122 197 -122 q 129 -122 139 -122 q 110 -123 119 -122 l 154 0 l 227 0 l 200 -68 q 296 -98 264 -70 q 328 -175 328 -126 z "},"¹":{"ha":833,"x_min":193,"x_max":626,"o":"m 197 382 l 197 454 l 377 454 l 377 868 q 350 836 368 850 q 306 812 331 822 q 252 796 281 802 q 193 790 222 790 l 193 864 q 255 870 226 864 q 310 888 285 876 q 353 917 334 900 q 384 956 372 934 l 466 956 l 466 454 l 626 454 l 626 382 l 197 382 z "},"º":{"ha":833,"x_min":153,"x_max":680,"o":"m 680 707 q 663 599 680 648 q 613 515 646 551 q 530 461 580 480 q 414 441 481 441 q 302 461 351 441 q 221 515 254 480 q 171 599 188 551 q 153 707 153 648 q 170 812 153 764 q 219 896 186 861 q 301 951 252 931 q 417 971 351 971 q 537 951 487 971 q 618 897 587 932 q 665 813 650 861 q 680 707 680 764 m 578 707 q 538 854 578 809 q 420 900 497 900 q 299 854 341 900 q 256 707 256 808 q 268 618 256 655 q 300 558 279 581 q 350 524 321 534 q 413 513 378 513 q 535 558 492 513 q 578 707 578 603 z "},"»":{"ha":833,"x_min":73,"x_max":746,"o":"m 517 96 l 396 96 l 396 115 l 625 364 l 397 616 l 397 637 l 517 637 l 746 386 l 746 343 l 517 96 m 195 96 l 73 96 l 73 115 l 302 364 l 74 616 l 74 637 l 195 637 l 422 386 l 422 343 l 195 96 z "},"¼":{"ha":833,"x_min":18,"x_max":833,"o":"m 43 399 l 43 472 l 134 472 l 134 820 q 110 790 125 802 q 76 770 94 778 q 43 759 59 762 q 18 755 27 755 l 18 836 q 47 840 31 836 q 80 853 63 844 q 114 878 98 863 q 141 915 130 892 l 223 915 l 223 472 l 302 472 l 302 399 l 43 399 m 218 0 l 138 0 l 615 915 l 693 915 l 218 0 m 751 110 l 751 1 l 665 1 l 665 110 l 410 110 l 410 177 l 655 517 l 751 517 l 751 178 l 833 178 l 833 110 l 751 110 m 665 431 q 654 414 661 425 q 639 392 647 404 q 623 370 631 380 q 610 352 615 359 l 485 178 l 665 178 l 665 355 q 665 374 665 363 q 665 396 665 385 q 665 415 665 406 q 665 431 665 425 z "},"½":{"ha":833,"x_min":12,"x_max":814,"o":"m 36 399 l 36 472 l 127 472 l 127 820 q 103 790 119 802 q 70 770 87 778 q 36 759 52 762 q 12 755 20 755 l 12 836 q 40 840 24 836 q 74 853 56 844 q 107 878 91 863 q 134 915 123 892 l 216 915 l 216 472 l 295 472 l 295 399 l 36 399 m 208 0 l 127 0 l 604 915 l 682 915 l 208 0 m 460 1 l 460 66 q 501 133 476 104 q 555 186 526 161 q 612 232 583 210 q 663 275 640 253 q 701 320 686 296 q 715 374 715 345 q 697 435 715 413 q 640 456 680 456 q 578 435 598 456 q 553 373 558 414 l 465 376 q 482 435 469 408 q 517 482 495 463 q 570 513 539 502 q 643 524 602 524 q 765 486 724 524 q 806 378 806 448 q 791 311 806 341 q 751 255 775 281 q 698 208 727 230 q 641 164 669 186 q 590 121 613 143 q 556 73 567 99 l 814 73 l 814 1 l 460 1 z "},"¾":{"ha":833,"x_min":7,"x_max":833,"o":"m 357 538 q 343 474 357 502 q 307 426 330 446 q 252 397 284 407 q 182 387 220 387 q 108 400 139 387 q 56 433 77 412 q 23 479 35 453 q 7 531 12 505 l 100 540 q 128 478 106 499 q 182 458 150 458 q 241 478 219 458 q 264 543 264 498 q 255 584 264 568 q 233 608 247 600 q 201 621 219 617 q 163 624 182 624 l 135 624 l 135 698 l 160 698 q 228 717 206 698 q 250 781 250 736 q 231 834 250 817 q 185 851 213 851 q 132 830 155 851 q 106 770 110 808 l 14 778 q 34 842 19 814 q 72 887 49 869 q 124 914 95 905 q 185 923 153 923 q 254 912 224 923 q 303 883 283 902 q 333 840 323 865 q 342 786 342 814 q 320 712 342 741 q 250 666 297 684 l 250 665 q 331 618 306 652 q 357 538 357 585 m 235 0 l 155 0 l 632 915 l 710 915 l 235 0 m 751 110 l 751 1 l 665 1 l 665 110 l 410 110 l 410 177 l 655 517 l 751 517 l 751 178 l 833 178 l 833 110 l 751 110 m 665 431 q 654 414 661 425 q 639 392 647 404 q 623 370 631 380 q 610 352 615 359 l 485 178 l 665 178 l 665 355 q 665 374 665 363 q 665 396 665 385 q 665 415 665 406 q 665 431 665 425 z "},"¿":{"ha":833,"x_min":104,"x_max":768,"o":"m 104 54 q 116 136 104 100 q 150 199 129 171 q 198 249 171 227 q 252 291 224 271 q 307 331 280 311 q 355 374 334 351 q 390 426 376 397 q 404 491 403 454 l 522 491 q 508 411 521 446 q 473 349 494 376 q 426 299 452 321 q 372 257 399 277 q 319 217 345 237 q 273 174 293 197 q 240 123 252 151 q 227 59 227 95 q 241 -7 227 22 q 281 -55 255 -35 q 344 -84 307 -74 q 427 -94 381 -94 q 511 -81 473 -94 q 576 -44 549 -68 q 621 14 604 -20 q 643 90 638 48 l 768 82 q 734 -30 760 21 q 667 -118 709 -81 q 565 -175 624 -155 q 429 -196 505 -196 q 295 -180 355 -196 q 193 -132 235 -163 q 127 -54 150 -100 q 104 54 104 -7 m 528 733 l 528 597 l 395 597 l 395 733 l 528 733 z "},"À":{"ha":833,"x_min":0,"x_max":833,"o":"m 701 0 l 608 259 l 226 259 l 133 0 l 0 0 l 346 915 l 493 915 l 833 0 l 701 0 m 475 647 q 457 699 467 673 q 440 749 448 726 q 426 791 432 773 q 418 817 420 809 q 410 791 415 809 q 396 749 404 772 q 380 699 389 725 q 363 647 372 672 l 260 360 l 574 360 l 475 647 m 413 979 l 210 1135 l 210 1155 l 343 1155 l 497 993 l 497 979 l 413 979 z "},"Á":{"ha":833,"x_min":0,"x_max":833,"o":"m 701 0 l 608 259 l 226 259 l 133 0 l 0 0 l 346 915 l 493 915 l 833 0 l 701 0 m 475 647 q 457 699 467 673 q 440 749 448 726 q 426 791 432 773 q 418 817 420 809 q 410 791 415 809 q 396 749 404 772 q 380 699 389 725 q 363 647 372 672 l 260 360 l 574 360 l 475 647 m 336 980 l 336 994 l 490 1156 l 623 1156 l 623 1136 l 420 980 l 336 980 z "},"Â":{"ha":833,"x_min":0,"x_max":833,"o":"m 701 0 l 608 259 l 226 259 l 133 0 l 0 0 l 346 915 l 493 915 l 833 0 l 701 0 m 475 647 q 457 699 467 673 q 440 749 448 726 q 426 791 432 773 q 418 817 420 809 q 410 791 415 809 q 396 749 404 772 q 380 699 389 725 q 363 647 372 672 l 260 360 l 574 360 l 475 647 m 641 994 l 641 980 l 570 980 l 421 1074 l 420 1074 l 262 980 l 192 980 l 192 994 l 364 1156 l 475 1156 l 641 994 z "},"Ã":{"ha":833,"x_min":0,"x_max":833,"o":"m 701 0 l 608 259 l 226 259 l 133 0 l 0 0 l 346 915 l 493 915 l 833 0 l 701 0 m 475 647 q 457 699 467 673 q 440 749 448 726 q 426 791 432 773 q 418 817 420 809 q 410 791 415 809 q 396 749 404 772 q 380 699 389 725 q 363 647 372 672 l 260 360 l 574 360 l 475 647 m 522 980 q 465 992 494 980 q 410 1020 437 1005 q 356 1048 382 1036 q 307 1061 330 1061 q 281 1055 291 1061 q 265 1040 271 1050 q 255 1015 258 1029 q 248 980 252 1000 l 173 980 q 183 1040 176 1010 q 205 1094 190 1070 q 245 1133 220 1118 q 311 1148 271 1148 q 369 1136 340 1148 q 425 1108 397 1123 q 477 1080 452 1093 q 524 1067 502 1067 q 550 1073 540 1067 q 567 1089 560 1078 q 577 1114 574 1099 q 583 1148 581 1129 l 659 1148 q 649 1088 656 1118 q 628 1035 642 1059 q 588 995 613 1010 q 522 980 563 980 z "},"Ä":{"ha":833,"x_min":0,"x_max":833,"o":"m 701 0 l 608 259 l 226 259 l 133 0 l 0 0 l 346 915 l 493 915 l 833 0 l 701 0 m 475 647 q 457 699 467 673 q 440 749 448 726 q 426 791 432 773 q 418 817 420 809 q 410 791 415 809 q 396 749 404 772 q 380 699 389 725 q 363 647 372 672 l 260 360 l 574 360 l 475 647 m 494 980 l 494 1105 l 605 1105 l 605 980 l 494 980 m 227 980 l 227 1105 l 339 1105 l 339 980 l 227 980 z "},"Å":{"ha":833,"x_min":0,"x_max":833,"o":"m 701 0 l 608 259 l 226 259 l 133 0 l 0 0 l 346 915 l 493 915 l 833 0 l 701 0 m 475 647 q 457 699 467 673 q 440 749 448 726 q 426 791 432 773 q 418 817 420 809 q 410 791 415 809 q 396 749 404 772 q 380 699 389 725 q 363 647 372 672 l 260 360 l 574 360 l 475 647 m 583 972 q 572 921 583 945 q 542 878 562 897 q 491 847 522 859 q 418 836 460 836 q 346 847 377 836 q 295 878 315 859 q 264 921 275 897 q 254 972 254 945 q 264 1023 254 998 q 295 1066 275 1047 q 346 1096 315 1084 q 418 1107 377 1107 q 491 1096 460 1107 q 542 1066 522 1084 q 572 1023 562 1047 q 583 972 583 998 m 500 972 q 496 992 500 982 q 482 1010 492 1002 q 456 1023 472 1018 q 418 1028 441 1028 q 380 1023 396 1028 q 355 1010 365 1018 q 340 992 345 1002 q 336 972 336 982 q 340 951 336 962 q 355 933 345 941 q 380 920 365 925 q 418 915 396 915 q 456 920 441 915 q 482 933 472 925 q 496 951 492 941 q 500 972 500 962 z "},"Æ":{"ha":833,"x_min":1,"x_max":810,"o":"m 438 279 l 211 279 l 115 0 l 1 0 l 330 915 l 783 915 l 783 812 l 554 812 l 554 520 l 776 520 l 776 418 l 554 418 l 554 103 l 810 103 l 810 0 l 438 0 l 438 279 m 438 815 l 389 815 q 379 782 386 804 q 365 735 372 760 q 351 688 358 711 q 340 652 344 665 l 245 380 l 438 380 l 438 815 z "},"Ç":{"ha":833,"x_min":77,"x_max":774,"o":"m 213 462 q 227 304 213 373 q 269 188 240 235 q 341 116 297 140 q 448 92 386 92 q 525 108 491 92 q 586 151 559 124 q 633 212 613 177 q 667 283 652 246 l 774 239 q 728 146 755 191 q 661 65 700 101 q 569 8 621 30 q 447 -14 516 -14 q 282 21 351 -14 q 166 117 212 55 q 99 267 121 180 q 77 462 77 355 q 98 662 77 574 q 165 808 120 749 q 278 898 210 867 q 440 929 347 929 q 560 910 509 929 q 649 860 612 892 q 713 788 687 829 q 756 702 739 747 l 642 658 q 614 719 632 689 q 572 772 597 749 q 514 809 547 795 q 441 823 481 823 q 337 800 380 823 q 267 731 294 777 q 226 618 239 686 q 213 462 213 551 m 568 -175 q 557 -227 568 -203 q 525 -267 547 -250 q 468 -292 503 -283 q 382 -301 433 -301 q 353 -301 368 -301 q 321 -298 338 -300 l 321 -232 q 379 -236 355 -236 q 426 -232 407 -236 q 457 -220 446 -227 q 474 -201 469 -212 q 479 -178 479 -191 q 458 -136 479 -151 q 389 -122 437 -122 q 369 -122 379 -122 q 350 -123 359 -122 l 394 0 l 467 0 l 440 -68 q 536 -98 504 -70 q 568 -175 568 -126 z "},"È":{"ha":833,"x_min":110,"x_max":761,"o":"m 110 0 l 110 915 l 733 915 l 733 809 l 239 809 l 239 523 l 692 523 l 692 418 l 239 418 l 239 106 l 761 106 l 761 0 l 110 0 m 428 980 l 224 1136 l 224 1156 l 358 1156 l 512 994 l 512 980 l 428 980 z "},"É":{"ha":833,"x_min":110,"x_max":761,"o":"m 110 0 l 110 915 l 733 915 l 733 809 l 239 809 l 239 523 l 692 523 l 692 418 l 239 418 l 239 106 l 761 106 l 761 0 l 110 0 m 334 980 l 334 994 l 488 1156 l 622 1156 l 622 1136 l 418 980 l 334 980 z "},"Ê":{"ha":833,"x_min":110,"x_max":761,"o":"m 110 0 l 110 915 l 733 915 l 733 809 l 239 809 l 239 523 l 692 523 l 692 418 l 239 418 l 239 106 l 761 106 l 761 0 l 110 0 m 641 994 l 641 980 l 570 980 l 421 1074 l 420 1074 l 262 980 l 192 980 l 192 994 l 364 1156 l 475 1156 l 641 994 z "},"Ë":{"ha":833,"x_min":110,"x_max":761,"o":"m 110 0 l 110 915 l 733 915 l 733 809 l 239 809 l 239 523 l 692 523 l 692 418 l 239 418 l 239 106 l 761 106 l 761 0 l 110 0 m 508 980 l 508 1105 l 618 1105 l 618 980 l 508 980 m 241 980 l 241 1105 l 353 1105 l 353 980 l 241 980 z "},"Ì":{"ha":833,"x_min":137,"x_max":695,"o":"m 137 915 l 695 915 l 695 809 l 481 809 l 481 106 l 695 106 l 695 0 l 137 0 l 137 106 l 351 106 l 351 809 l 137 809 l 137 915 m 421 980 l 218 1136 l 218 1156 l 351 1156 l 505 994 l 505 980 l 421 980 z "},"Í":{"ha":833,"x_min":137,"x_max":695,"o":"m 137 915 l 695 915 l 695 809 l 481 809 l 481 106 l 695 106 l 695 0 l 137 0 l 137 106 l 351 106 l 351 809 l 137 809 l 137 915 m 342 980 l 342 994 l 496 1156 l 630 1156 l 630 1136 l 427 980 l 342 980 z "},"Î":{"ha":833,"x_min":137,"x_max":695,"o":"m 137 915 l 695 915 l 695 809 l 481 809 l 481 106 l 695 106 l 695 0 l 137 0 l 137 106 l 351 106 l 351 809 l 137 809 l 137 915 m 641 994 l 641 980 l 570 980 l 421 1074 l 420 1074 l 262 980 l 192 980 l 192 994 l 364 1156 l 475 1156 l 641 994 z "},"Ï":{"ha":833,"x_min":137,"x_max":695,"o":"m 137 915 l 695 915 l 695 809 l 481 809 l 481 106 l 695 106 l 695 0 l 137 0 l 137 106 l 351 106 l 351 809 l 137 809 l 137 915 m 494 980 l 494 1105 l 605 1105 l 605 980 l 494 980 m 227 980 l 227 1105 l 339 1105 l 339 980 l 227 980 z "},"Ð":{"ha":833,"x_min":18,"x_max":763,"o":"m 763 467 q 736 266 763 353 q 657 119 709 178 q 531 30 606 60 q 361 0 456 0 l 110 0 l 110 405 l 18 405 l 18 506 l 110 506 l 110 915 l 321 915 q 510 889 428 915 q 649 808 593 863 q 734 668 705 753 q 763 467 763 583 m 435 405 l 239 405 l 239 106 l 349 106 q 563 196 493 106 q 633 467 633 286 q 614 623 633 558 q 556 729 595 688 q 459 790 517 770 q 321 809 401 809 l 239 809 l 239 506 l 435 506 l 435 405 z "},"Ñ":{"ha":833,"x_min":110,"x_max":723,"o":"m 567 0 l 214 766 q 220 707 217 737 q 223 651 222 681 q 225 594 225 621 l 225 0 l 110 0 l 110 915 l 260 915 l 618 143 q 612 201 615 170 q 608 261 610 228 q 606 329 606 294 l 606 915 l 723 915 l 723 0 l 567 0 m 522 981 q 465 993 494 981 q 410 1021 437 1006 q 356 1049 382 1036 q 307 1061 330 1061 q 281 1056 291 1061 q 265 1040 271 1050 q 255 1015 258 1030 q 248 981 252 1000 l 173 981 q 183 1041 176 1011 q 205 1095 190 1071 q 245 1134 220 1119 q 311 1149 271 1149 q 369 1136 340 1149 q 425 1108 397 1124 q 477 1081 452 1093 q 524 1068 502 1068 q 550 1074 540 1068 q 567 1089 560 1079 q 577 1115 574 1100 q 583 1149 581 1130 l 659 1149 q 649 1089 656 1119 q 628 1035 642 1059 q 588 996 613 1011 q 522 981 563 981 z "},"Ò":{"ha":833,"x_min":69,"x_max":764,"o":"m 764 462 q 740 256 764 345 q 671 107 716 167 q 562 17 627 47 q 416 -14 497 -14 q 264 18 330 -14 q 156 111 199 50 q 91 260 113 172 q 69 462 69 349 q 92 667 69 579 q 159 812 115 754 q 268 900 203 871 q 417 929 333 929 q 674 811 585 929 q 764 462 764 694 m 627 462 q 574 734 627 645 q 417 823 520 823 q 258 734 311 823 q 205 462 205 645 q 259 185 205 279 q 416 92 313 92 q 577 186 527 92 q 627 462 627 281 m 418 980 l 214 1136 l 214 1156 l 348 1156 l 502 994 l 502 980 l 418 980 z "},"Ó":{"ha":833,"x_min":69,"x_max":764,"o":"m 764 462 q 740 256 764 345 q 671 107 716 167 q 562 17 627 47 q 416 -14 497 -14 q 264 18 330 -14 q 156 111 199 50 q 91 260 113 172 q 69 462 69 349 q 92 667 69 579 q 159 812 115 754 q 268 900 203 871 q 417 929 333 929 q 674 811 585 929 q 764 462 764 694 m 627 462 q 574 734 627 645 q 417 823 520 823 q 258 734 311 823 q 205 462 205 645 q 259 185 205 279 q 416 92 313 92 q 577 186 527 92 q 627 462 627 281 m 339 980 l 339 994 l 493 1156 l 627 1156 l 627 1136 l 423 980 l 339 980 z "},"Ô":{"ha":833,"x_min":69,"x_max":764,"o":"m 764 462 q 740 256 764 345 q 671 107 716 167 q 562 17 627 47 q 416 -14 497 -14 q 264 18 330 -14 q 156 111 199 50 q 91 260 113 172 q 69 462 69 349 q 92 667 69 579 q 159 812 115 754 q 268 900 203 871 q 417 929 333 929 q 674 811 585 929 q 764 462 764 694 m 627 462 q 574 734 627 645 q 417 823 520 823 q 258 734 311 823 q 205 462 205 645 q 259 185 205 279 q 416 92 313 92 q 577 186 527 92 q 627 462 627 281 m 641 994 l 641 980 l 570 980 l 421 1074 l 420 1074 l 262 980 l 192 980 l 192 994 l 364 1156 l 475 1156 l 641 994 z "},"Õ":{"ha":833,"x_min":69,"x_max":764,"o":"m 764 462 q 740 256 764 345 q 671 107 716 167 q 562 17 627 47 q 416 -14 497 -14 q 264 18 330 -14 q 156 111 199 50 q 91 260 113 172 q 69 462 69 349 q 92 667 69 579 q 159 812 115 754 q 268 900 203 871 q 417 929 333 929 q 674 811 585 929 q 764 462 764 694 m 627 462 q 574 734 627 645 q 417 823 520 823 q 258 734 311 823 q 205 462 205 645 q 259 185 205 279 q 416 92 313 92 q 577 186 527 92 q 627 462 627 281 m 522 980 q 465 992 494 980 q 410 1020 437 1005 q 356 1048 382 1036 q 307 1061 330 1061 q 281 1055 291 1061 q 265 1040 271 1050 q 255 1015 258 1029 q 248 980 252 1000 l 173 980 q 183 1040 176 1010 q 205 1094 190 1070 q 245 1133 220 1118 q 311 1148 271 1148 q 369 1136 340 1148 q 425 1108 397 1123 q 477 1080 452 1093 q 524 1067 502 1067 q 550 1073 540 1067 q 567 1089 560 1078 q 577 1114 574 1099 q 583 1148 581 1129 l 659 1148 q 649 1088 656 1118 q 628 1035 642 1059 q 588 995 613 1010 q 522 980 563 980 z "},"Ö":{"ha":833,"x_min":69,"x_max":764,"o":"m 764 462 q 740 256 764 345 q 671 107 716 167 q 562 17 627 47 q 416 -14 497 -14 q 264 18 330 -14 q 156 111 199 50 q 91 260 113 172 q 69 462 69 349 q 92 667 69 579 q 159 812 115 754 q 268 900 203 871 q 417 929 333 929 q 674 811 585 929 q 764 462 764 694 m 627 462 q 574 734 627 645 q 417 823 520 823 q 258 734 311 823 q 205 462 205 645 q 259 185 205 279 q 416 92 313 92 q 577 186 527 92 q 627 462 627 281 m 496 980 l 496 1105 l 607 1105 l 607 980 l 496 980 m 229 980 l 229 1105 l 341 1105 l 341 980 l 229 980 z "},"×":{"ha":833,"x_min":106,"x_max":726,"o":"m 106 224 l 347 464 l 108 703 l 178 772 l 416 533 l 653 771 l 724 700 l 487 464 l 726 225 l 656 154 l 417 393 l 176 153 l 106 224 z "},"Ø":{"ha":833,"x_min":38,"x_max":793,"o":"m 764 462 q 740 256 764 345 q 671 107 716 167 q 562 17 627 47 q 416 -14 497 -14 q 282 10 340 -14 q 181 80 224 34 l 102 -26 l 38 18 l 134 146 q 85 285 101 206 q 69 462 69 363 q 92 667 69 579 q 159 812 115 754 q 268 900 203 871 q 417 929 333 929 q 651 838 564 929 l 730 944 l 793 900 l 699 773 q 747 638 731 715 q 764 462 764 561 m 627 462 q 607 650 627 573 l 260 185 q 416 92 313 92 q 577 186 527 92 q 627 462 627 281 m 205 462 q 226 271 205 349 l 573 734 q 507 801 547 779 q 417 823 468 823 q 258 734 311 823 q 205 462 205 645 z "},"Ù":{"ha":833,"x_min":96,"x_max":736,"o":"m 736 332 q 716 174 736 239 q 656 66 696 108 q 554 5 616 24 q 410 -14 493 -14 q 273 4 332 -14 q 175 62 214 22 q 116 165 136 102 q 96 320 96 229 l 96 915 l 226 915 l 226 338 q 234 225 226 272 q 263 149 243 178 q 320 105 284 119 q 410 92 355 92 q 504 105 466 92 q 564 149 541 119 q 597 228 587 179 q 607 347 607 277 l 607 915 l 736 915 l 736 332 m 410 980 l 207 1136 l 207 1156 l 340 1156 l 494 994 l 494 980 l 410 980 z "},"Ú":{"ha":833,"x_min":96,"x_max":736,"o":"m 736 332 q 716 174 736 239 q 656 66 696 108 q 554 5 616 24 q 410 -14 493 -14 q 273 4 332 -14 q 175 62 214 22 q 116 165 136 102 q 96 320 96 229 l 96 915 l 226 915 l 226 338 q 234 225 226 272 q 263 149 243 178 q 320 105 284 119 q 410 92 355 92 q 504 105 466 92 q 564 149 541 119 q 597 228 587 179 q 607 347 607 277 l 607 915 l 736 915 l 736 332 m 331 980 l 331 994 l 485 1156 l 618 1156 l 618 1136 l 415 980 l 331 980 z "},"Û":{"ha":833,"x_min":96,"x_max":736,"o":"m 736 332 q 716 174 736 239 q 656 66 696 108 q 554 5 616 24 q 410 -14 493 -14 q 273 4 332 -14 q 175 62 214 22 q 116 165 136 102 q 96 320 96 229 l 96 915 l 226 915 l 226 338 q 234 225 226 272 q 263 149 243 178 q 320 105 284 119 q 410 92 355 92 q 504 105 466 92 q 564 149 541 119 q 597 228 587 179 q 607 347 607 277 l 607 915 l 736 915 l 736 332 m 641 994 l 641 980 l 570 980 l 421 1074 l 420 1074 l 262 980 l 192 980 l 192 994 l 364 1156 l 475 1156 l 641 994 z "},"Ü":{"ha":833,"x_min":96,"x_max":736,"o":"m 736 332 q 716 174 736 239 q 656 66 696 108 q 554 5 616 24 q 410 -14 493 -14 q 273 4 332 -14 q 175 62 214 22 q 116 165 136 102 q 96 320 96 229 l 96 915 l 226 915 l 226 338 q 234 225 226 272 q 263 149 243 178 q 320 105 284 119 q 410 92 355 92 q 504 105 466 92 q 564 149 541 119 q 597 228 587 179 q 607 347 607 277 l 607 915 l 736 915 l 736 332 m 494 980 l 494 1105 l 605 1105 l 605 980 l 494 980 m 227 980 l 227 1105 l 339 1105 l 339 980 l 227 980 z "},"Ý":{"ha":833,"x_min":24,"x_max":808,"o":"m 480 396 l 480 0 l 353 0 l 353 396 l 24 915 l 163 915 l 417 500 l 669 915 l 808 915 l 480 396 m 341 980 l 341 994 l 495 1156 l 629 1156 l 629 1136 l 425 980 l 341 980 z "},"Þ":{"ha":833,"x_min":110,"x_max":759,"o":"m 759 469 q 739 356 759 410 q 678 261 719 302 q 575 196 637 220 q 430 172 513 172 l 239 172 l 239 0 l 110 0 l 110 915 l 239 915 l 239 755 l 422 755 q 570 735 507 755 q 675 677 633 715 q 738 587 717 640 q 759 469 759 534 m 629 467 q 573 608 629 557 q 406 659 517 659 l 239 659 l 239 268 l 412 268 q 508 283 467 268 q 576 325 549 298 q 616 388 603 351 q 629 467 629 424 z "},"ß":{"ha":833,"x_min":96,"x_max":791,"o":"m 791 200 q 778 115 791 155 q 734 45 764 75 q 659 -2 705 16 q 549 -20 613 -20 q 444 -11 494 -20 q 357 14 394 -3 l 355 125 q 395 106 373 115 q 443 91 418 97 q 494 81 468 85 q 546 78 521 78 q 642 110 608 78 q 675 196 675 142 q 656 264 675 236 q 611 313 638 292 q 551 354 583 334 q 491 397 519 373 q 446 453 464 421 q 427 532 427 485 q 438 592 427 567 q 466 636 450 616 q 503 672 483 656 q 539 706 522 688 q 567 745 555 724 q 578 795 578 766 q 567 842 578 821 q 534 878 555 863 q 482 902 513 893 q 413 911 452 911 q 331 899 367 911 q 270 861 294 887 q 232 793 245 835 q 218 692 218 752 l 218 0 l 96 0 l 96 696 q 118 836 96 777 q 180 932 139 894 q 279 988 220 970 q 413 1006 338 1006 q 535 991 482 1006 q 623 948 587 975 q 676 884 659 921 q 694 805 694 847 q 683 735 694 765 q 655 683 672 706 q 618 643 637 661 q 581 609 598 625 q 552 575 564 592 q 541 536 541 558 q 560 489 541 509 q 606 448 578 468 q 666 407 634 429 q 726 357 699 385 q 773 291 754 328 q 791 200 791 253 z "},"à":{"ha":833,"x_min":87,"x_max":787,"o":"m 747 75 q 767 77 757 75 q 787 80 777 78 l 787 4 q 741 -4 764 -1 q 692 -7 718 -7 q 633 2 658 -7 q 593 30 608 12 q 569 76 577 49 q 559 140 561 104 l 555 140 q 513 77 536 105 q 460 28 490 48 q 391 -3 430 8 q 302 -14 353 -14 q 141 45 195 -14 q 87 205 87 103 q 114 324 87 277 q 184 397 140 370 q 282 434 227 423 q 395 445 338 444 l 555 448 l 555 488 q 546 565 555 533 q 518 616 536 597 q 471 645 499 636 q 404 654 442 654 q 343 649 370 654 q 296 631 315 644 q 263 595 276 618 q 247 538 251 572 l 119 549 q 145 629 126 593 q 197 692 163 665 q 282 733 231 718 q 406 747 334 747 q 610 684 542 747 q 678 500 678 621 l 678 184 q 692 103 678 130 q 747 75 707 75 m 334 79 q 431 101 390 79 q 500 155 473 122 q 541 227 528 187 q 555 302 555 266 l 555 362 l 426 359 q 351 354 389 359 q 283 332 313 349 q 234 285 253 316 q 215 203 215 254 q 245 113 215 147 q 334 79 275 79 m 399 814 l 195 970 l 195 990 l 329 990 l 483 828 l 483 814 l 399 814 z "},"á":{"ha":833,"x_min":87,"x_max":787,"o":"m 747 75 q 767 77 757 75 q 787 80 777 78 l 787 4 q 741 -4 764 -1 q 692 -7 718 -7 q 633 2 658 -7 q 593 30 608 12 q 569 76 577 49 q 559 140 561 104 l 555 140 q 513 77 536 105 q 460 28 490 48 q 391 -3 430 8 q 302 -14 353 -14 q 141 45 195 -14 q 87 205 87 103 q 114 324 87 277 q 184 397 140 370 q 282 434 227 423 q 395 445 338 444 l 555 448 l 555 488 q 546 565 555 533 q 518 616 536 597 q 471 645 499 636 q 404 654 442 654 q 343 649 370 654 q 296 631 315 644 q 263 595 276 618 q 247 538 251 572 l 119 549 q 145 629 126 593 q 197 692 163 665 q 282 733 231 718 q 406 747 334 747 q 610 684 542 747 q 678 500 678 621 l 678 184 q 692 103 678 130 q 747 75 707 75 m 334 79 q 431 101 390 79 q 500 155 473 122 q 541 227 528 187 q 555 302 555 266 l 555 362 l 426 359 q 351 354 389 359 q 283 332 313 349 q 234 285 253 316 q 215 203 215 254 q 245 113 215 147 q 334 79 275 79 m 325 814 l 325 828 l 479 990 l 612 990 l 612 970 l 409 814 l 325 814 z "},"â":{"ha":833,"x_min":87,"x_max":787,"o":"m 747 75 q 767 77 757 75 q 787 80 777 78 l 787 4 q 741 -4 764 -1 q 692 -7 718 -7 q 633 2 658 -7 q 593 30 608 12 q 569 76 577 49 q 559 140 561 104 l 555 140 q 513 77 536 105 q 460 28 490 48 q 391 -3 430 8 q 302 -14 353 -14 q 141 45 195 -14 q 87 205 87 103 q 114 324 87 277 q 184 397 140 370 q 282 434 227 423 q 395 445 338 444 l 555 448 l 555 488 q 546 565 555 533 q 518 616 536 597 q 471 645 499 636 q 404 654 442 654 q 343 649 370 654 q 296 631 315 644 q 263 595 276 618 q 247 538 251 572 l 119 549 q 145 629 126 593 q 197 692 163 665 q 282 733 231 718 q 406 747 334 747 q 610 684 542 747 q 678 500 678 621 l 678 184 q 692 103 678 130 q 747 75 707 75 m 334 79 q 431 101 390 79 q 500 155 473 122 q 541 227 528 187 q 555 302 555 266 l 555 362 l 426 359 q 351 354 389 359 q 283 332 313 349 q 234 285 253 316 q 215 203 215 254 q 245 113 215 147 q 334 79 275 79 m 629 828 l 629 814 l 557 814 l 409 908 l 408 908 l 250 814 l 180 814 l 180 828 l 352 990 l 463 990 l 629 828 z "},"ã":{"ha":833,"x_min":87,"x_max":787,"o":"m 747 75 q 767 77 757 75 q 787 80 777 78 l 787 4 q 741 -4 764 -1 q 692 -7 718 -7 q 633 2 658 -7 q 593 30 608 12 q 569 76 577 49 q 559 140 561 104 l 555 140 q 513 77 536 105 q 460 28 490 48 q 391 -3 430 8 q 302 -14 353 -14 q 141 45 195 -14 q 87 205 87 103 q 114 324 87 277 q 184 397 140 370 q 282 434 227 423 q 395 445 338 444 l 555 448 l 555 488 q 546 565 555 533 q 518 616 536 597 q 471 645 499 636 q 404 654 442 654 q 343 649 370 654 q 296 631 315 644 q 263 595 276 618 q 247 538 251 572 l 119 549 q 145 629 126 593 q 197 692 163 665 q 282 733 231 718 q 406 747 334 747 q 610 684 542 747 q 678 500 678 621 l 678 184 q 692 103 678 130 q 747 75 707 75 m 334 79 q 431 101 390 79 q 500 155 473 122 q 541 227 528 187 q 555 302 555 266 l 555 362 l 426 359 q 351 354 389 359 q 283 332 313 349 q 234 285 253 316 q 215 203 215 254 q 245 113 215 147 q 334 79 275 79 m 517 814 q 460 827 488 814 q 404 855 431 840 q 351 883 377 870 q 301 895 325 895 q 276 890 286 895 q 259 874 266 884 q 250 849 253 864 q 243 814 246 834 l 168 814 q 178 875 171 845 q 200 929 184 905 q 240 968 215 953 q 305 983 265 983 q 363 970 335 983 q 419 942 392 958 q 471 915 446 927 q 519 902 496 902 q 545 907 534 902 q 562 923 555 913 q 572 949 568 934 q 578 983 575 964 l 654 983 q 644 923 650 953 q 622 869 637 893 q 583 830 608 845 q 517 814 557 814 z "},"ä":{"ha":833,"x_min":87,"x_max":787,"o":"m 747 75 q 767 77 757 75 q 787 80 777 78 l 787 4 q 741 -4 764 -1 q 692 -7 718 -7 q 633 2 658 -7 q 593 30 608 12 q 569 76 577 49 q 559 140 561 104 l 555 140 q 513 77 536 105 q 460 28 490 48 q 391 -3 430 8 q 302 -14 353 -14 q 141 45 195 -14 q 87 205 87 103 q 114 324 87 277 q 184 397 140 370 q 282 434 227 423 q 395 445 338 444 l 555 448 l 555 488 q 546 565 555 533 q 518 616 536 597 q 471 645 499 636 q 404 654 442 654 q 343 649 370 654 q 296 631 315 644 q 263 595 276 618 q 247 538 251 572 l 119 549 q 145 629 126 593 q 197 692 163 665 q 282 733 231 718 q 406 747 334 747 q 610 684 542 747 q 678 500 678 621 l 678 184 q 692 103 678 130 q 747 75 707 75 m 334 79 q 431 101 390 79 q 500 155 473 122 q 541 227 528 187 q 555 302 555 266 l 555 362 l 426 359 q 351 354 389 359 q 283 332 313 349 q 234 285 253 316 q 215 203 215 254 q 245 113 215 147 q 334 79 275 79 m 484 827 l 484 951 l 594 951 l 594 827 l 484 827 m 216 827 l 216 951 l 328 951 l 328 827 l 216 827 z "},"å":{"ha":833,"x_min":87,"x_max":787,"o":"m 747 75 q 767 77 757 75 q 787 80 777 78 l 787 4 q 741 -4 764 -1 q 692 -7 718 -7 q 633 2 658 -7 q 593 30 608 12 q 569 76 577 49 q 559 140 561 104 l 555 140 q 513 77 536 105 q 460 28 490 48 q 391 -3 430 8 q 302 -14 353 -14 q 141 45 195 -14 q 87 205 87 103 q 114 324 87 277 q 184 397 140 370 q 282 434 227 423 q 395 445 338 444 l 555 448 l 555 488 q 546 565 555 533 q 518 616 536 597 q 471 645 499 636 q 404 654 442 654 q 343 649 370 654 q 296 631 315 644 q 263 595 276 618 q 247 538 251 572 l 119 549 q 145 629 126 593 q 197 692 163 665 q 282 733 231 718 q 406 747 334 747 q 610 684 542 747 q 678 500 678 621 l 678 184 q 692 103 678 130 q 747 75 707 75 m 334 79 q 431 101 390 79 q 500 155 473 122 q 541 227 528 187 q 555 302 555 266 l 555 362 l 426 359 q 351 354 389 359 q 283 332 313 349 q 234 285 253 316 q 215 203 215 254 q 245 113 215 147 q 334 79 275 79 m 575 914 q 565 863 575 888 q 534 820 555 839 q 483 790 514 801 q 411 779 452 779 q 339 790 370 779 q 288 820 308 801 q 257 863 267 839 q 247 914 247 888 q 257 965 247 941 q 288 1008 267 989 q 339 1038 308 1027 q 411 1049 370 1049 q 483 1038 452 1049 q 534 1008 514 1027 q 565 965 555 989 q 575 914 575 941 m 493 914 q 489 934 493 924 q 474 952 484 944 q 449 965 465 960 q 411 970 433 970 q 373 965 389 970 q 347 952 357 960 q 333 934 337 944 q 328 914 328 924 q 333 894 328 904 q 347 876 337 884 q 373 862 357 867 q 411 857 389 857 q 449 862 433 857 q 474 876 465 867 q 489 894 484 884 q 493 914 493 904 z "},"æ":{"ha":833,"x_min":14,"x_max":819,"o":"m 460 341 l 460 330 q 468 228 461 274 q 490 149 475 182 q 529 97 505 115 q 586 78 553 78 q 667 110 637 78 q 708 191 697 142 l 802 160 q 779 99 793 130 q 740 43 764 68 q 678 2 715 18 q 589 -14 641 -14 q 519 -5 550 -14 q 463 21 488 3 q 421 70 439 40 q 391 144 403 100 q 358 82 376 111 q 315 32 340 53 q 259 -1 290 11 q 189 -14 228 -14 q 110 1 142 -14 q 55 45 77 16 q 24 114 34 73 q 14 205 14 154 q 33 324 14 277 q 84 397 52 370 q 155 434 115 423 q 237 445 195 444 l 351 448 l 351 488 q 346 565 351 533 q 329 616 340 597 q 300 645 318 636 q 258 654 283 654 q 219 649 237 654 q 189 631 202 644 q 169 595 176 618 q 158 538 161 572 l 44 549 q 63 629 50 593 q 102 692 77 665 q 165 733 127 718 q 258 747 203 747 q 360 724 319 747 q 425 653 401 700 q 498 725 456 703 q 592 747 541 747 q 701 718 657 747 q 771 635 745 688 q 808 511 798 583 q 819 357 819 440 l 819 341 l 460 341 m 128 203 q 148 113 128 147 q 205 79 167 79 q 271 101 243 79 q 316 155 298 122 q 342 227 334 187 q 351 302 351 266 l 351 362 l 268 359 q 218 354 243 359 q 173 332 193 349 q 141 285 153 316 q 128 203 128 254 m 583 657 q 543 647 564 657 q 504 612 522 637 q 475 544 487 587 q 462 435 463 501 l 707 435 q 671 604 701 551 q 583 657 641 657 z "},"ç":{"ha":833,"x_min":88,"x_max":732,"o":"m 88 368 q 117 551 88 478 q 194 668 146 625 q 303 729 242 711 q 429 747 364 747 q 547 730 495 747 q 637 684 600 713 q 699 614 675 654 q 731 528 722 574 l 601 519 q 547 616 590 581 q 423 652 503 652 q 325 633 365 652 q 261 579 286 614 q 227 491 237 543 q 216 370 216 438 q 227 249 216 302 q 261 157 237 195 q 325 100 286 120 q 422 81 365 81 q 544 117 496 81 q 604 227 592 153 l 732 218 q 703 131 726 173 q 642 57 680 89 q 549 6 603 25 q 428 -14 496 -14 q 270 16 335 -14 q 165 96 205 45 q 106 217 125 147 q 88 368 88 286 m 556 -175 q 546 -227 556 -203 q 514 -267 536 -250 q 456 -292 492 -283 q 370 -301 421 -301 q 341 -301 357 -301 q 309 -298 326 -300 l 309 -232 q 368 -236 343 -236 q 415 -232 395 -236 q 446 -220 434 -227 q 462 -201 457 -212 q 467 -178 467 -191 q 447 -136 467 -151 q 377 -122 426 -122 q 358 -122 368 -122 q 338 -123 348 -122 l 382 0 l 455 0 l 429 -68 q 524 -98 492 -70 q 556 -175 556 -126 z "},"è":{"ha":833,"x_min":90,"x_max":742,"o":"m 218 341 q 231 235 218 283 q 270 152 244 186 q 334 97 296 117 q 422 78 372 78 q 491 86 460 78 q 548 110 523 95 q 590 145 573 125 q 615 191 607 166 l 722 160 q 690 99 711 130 q 632 43 668 68 q 545 2 596 18 q 422 -14 493 -14 q 283 11 345 -14 q 178 83 221 35 q 113 204 136 132 q 90 372 90 276 q 117 549 90 477 q 189 665 144 621 q 294 728 235 709 q 418 747 353 747 q 569 719 507 747 q 669 639 630 690 q 725 516 707 588 q 742 357 742 444 l 742 341 l 218 341 m 420 657 q 354 647 389 657 q 291 612 320 637 q 242 544 262 587 q 220 435 222 501 l 616 435 q 593 541 610 498 q 549 610 575 584 q 490 646 523 635 q 420 657 456 657 m 422 814 l 219 970 l 219 990 l 353 990 l 507 828 l 507 814 l 422 814 z "},"é":{"ha":833,"x_min":90,"x_max":742,"o":"m 218 341 q 231 235 218 283 q 270 152 244 186 q 334 97 296 117 q 422 78 372 78 q 491 86 460 78 q 548 110 523 95 q 590 145 573 125 q 615 191 607 166 l 722 160 q 690 99 711 130 q 632 43 668 68 q 545 2 596 18 q 422 -14 493 -14 q 283 11 345 -14 q 178 83 221 35 q 113 204 136 132 q 90 372 90 276 q 117 549 90 477 q 189 665 144 621 q 294 728 235 709 q 418 747 353 747 q 569 719 507 747 q 669 639 630 690 q 725 516 707 588 q 742 357 742 444 l 742 341 l 218 341 m 420 657 q 354 647 389 657 q 291 612 320 637 q 242 544 262 587 q 220 435 222 501 l 616 435 q 593 541 610 498 q 549 610 575 584 q 490 646 523 635 q 420 657 456 657 m 348 814 l 348 828 l 502 990 l 635 990 l 635 970 l 432 814 l 348 814 z "},"ê":{"ha":833,"x_min":90,"x_max":742,"o":"m 218 341 q 231 235 218 283 q 270 152 244 186 q 334 97 296 117 q 422 78 372 78 q 491 86 460 78 q 548 110 523 95 q 590 145 573 125 q 615 191 607 166 l 722 160 q 690 99 711 130 q 632 43 668 68 q 545 2 596 18 q 422 -14 493 -14 q 283 11 345 -14 q 178 83 221 35 q 113 204 136 132 q 90 372 90 276 q 117 549 90 477 q 189 665 144 621 q 294 728 235 709 q 418 747 353 747 q 569 719 507 747 q 669 639 630 690 q 725 516 707 588 q 742 357 742 444 l 742 341 l 218 341 m 420 657 q 354 647 389 657 q 291 612 320 637 q 242 544 262 587 q 220 435 222 501 l 616 435 q 593 541 610 498 q 549 610 575 584 q 490 646 523 635 q 420 657 456 657 m 646 828 l 646 814 l 574 814 l 426 908 l 425 908 l 267 814 l 197 814 l 197 828 l 369 990 l 480 990 l 646 828 z "},"ë":{"ha":833,"x_min":90,"x_max":742,"o":"m 218 341 q 231 235 218 283 q 270 152 244 186 q 334 97 296 117 q 422 78 372 78 q 491 86 460 78 q 548 110 523 95 q 590 145 573 125 q 615 191 607 166 l 722 160 q 690 99 711 130 q 632 43 668 68 q 545 2 596 18 q 422 -14 493 -14 q 283 11 345 -14 q 178 83 221 35 q 113 204 136 132 q 90 372 90 276 q 117 549 90 477 q 189 665 144 621 q 294 728 235 709 q 418 747 353 747 q 569 719 507 747 q 669 639 630 690 q 725 516 707 588 q 742 357 742 444 l 742 341 l 218 341 m 420 657 q 354 647 389 657 q 291 612 320 637 q 242 544 262 587 q 220 435 222 501 l 616 435 q 593 541 610 498 q 549 610 575 584 q 490 646 523 635 q 420 657 456 657 m 500 827 l 500 951 l 610 951 l 610 827 l 500 827 m 233 827 l 233 951 l 345 951 l 345 827 l 233 827 z "},"ì":{"ha":833,"x_min":97,"x_max":763,"o":"m 505 96 l 763 96 l 763 0 l 97 0 l 97 96 l 383 96 l 383 637 l 167 637 l 167 734 l 505 734 l 505 96 m 431 814 l 227 970 l 227 990 l 361 990 l 515 828 l 515 814 l 431 814 z "},"í":{"ha":833,"x_min":97,"x_max":763,"o":"m 505 96 l 763 96 l 763 0 l 97 0 l 97 96 l 383 96 l 383 637 l 167 637 l 167 734 l 505 734 l 505 96 m 343 814 l 343 828 l 497 990 l 631 990 l 631 970 l 427 814 l 343 814 z "},"î":{"ha":833,"x_min":97,"x_max":763,"o":"m 505 96 l 763 96 l 763 0 l 97 0 l 97 96 l 383 96 l 383 637 l 167 637 l 167 734 l 505 734 l 505 96 m 648 828 l 648 814 l 576 814 l 428 908 l 427 908 l 269 814 l 199 814 l 199 828 l 371 990 l 482 990 l 648 828 z "},"ï":{"ha":833,"x_min":97,"x_max":763,"o":"m 505 96 l 763 96 l 763 0 l 97 0 l 97 96 l 383 96 l 383 637 l 167 637 l 167 734 l 505 734 l 505 96 m 522 827 l 522 951 l 633 951 l 633 827 l 522 827 m 255 827 l 255 951 l 367 951 l 367 827 l 255 827 z "},"ð":{"ha":833,"x_min":85,"x_max":747,"o":"m 415 664 q 503 653 463 664 q 572 624 543 642 q 510 738 545 684 q 422 839 474 792 l 246 761 l 209 836 l 357 899 q 278 956 319 930 q 193 1006 237 983 l 334 1006 q 393 976 365 993 q 450 937 421 958 l 629 1015 l 666 941 l 523 879 q 691 647 634 778 q 747 350 747 515 l 747 346 q 728 197 747 264 q 668 84 709 131 q 564 12 627 37 q 410 -14 500 -14 q 264 11 326 -14 q 163 81 203 36 q 104 188 123 125 q 85 326 85 251 q 102 460 85 399 q 159 568 120 522 q 262 638 199 613 q 415 664 325 664 m 619 326 q 608 436 619 390 q 573 513 597 483 q 510 559 549 544 q 418 574 472 574 q 324 558 363 574 q 260 512 285 543 q 224 435 235 481 q 213 326 213 389 q 262 137 213 197 q 409 77 311 77 q 504 92 464 77 q 569 137 544 106 q 607 215 595 168 q 619 326 619 262 z "},"ñ":{"ha":833,"x_min":121,"x_max":711,"o":"m 589 0 l 589 471 q 577 561 589 526 q 546 616 566 595 q 499 645 526 637 q 439 653 472 653 q 365 638 399 653 q 303 594 330 623 q 262 523 277 565 q 248 425 248 480 l 248 0 l 125 0 l 125 577 q 125 626 125 600 q 124 674 125 651 q 123 713 123 696 q 121 734 122 729 l 237 734 q 238 715 237 730 q 240 681 239 701 q 241 642 241 662 q 242 608 242 622 l 244 608 q 282 666 260 640 q 333 710 304 692 q 398 738 362 728 q 479 747 434 747 q 578 732 535 747 q 651 686 622 718 q 696 606 681 655 q 711 489 711 557 l 711 0 l 589 0 m 529 814 q 472 827 500 814 q 416 855 444 840 q 363 883 389 870 q 313 895 337 895 q 288 890 298 895 q 272 874 278 884 q 262 849 265 864 q 255 814 258 834 l 180 814 q 190 875 183 845 q 212 929 197 905 q 252 968 227 953 q 317 983 277 983 q 376 970 347 983 q 431 942 404 958 q 484 915 458 927 q 531 902 509 902 q 557 907 547 902 q 574 923 567 913 q 584 949 581 934 q 590 983 587 964 l 666 983 q 656 923 663 953 q 634 869 649 893 q 595 830 620 845 q 529 814 570 814 z "},"ò":{"ha":833,"x_min":88,"x_max":744,"o":"m 744 368 q 721 200 744 271 q 656 81 699 128 q 552 10 613 33 q 413 -14 490 -14 q 279 9 339 -14 q 177 80 219 33 q 111 199 134 127 q 88 368 88 271 q 174 652 88 557 q 417 747 260 747 q 663 653 583 747 q 744 368 744 559 m 616 368 q 601 509 616 453 q 561 597 587 564 q 498 644 534 631 q 419 657 463 657 q 338 643 375 657 q 274 596 300 629 q 232 507 247 562 q 216 368 216 451 q 232 226 216 282 q 275 137 248 170 q 337 90 302 104 q 412 77 373 77 q 493 90 456 77 q 558 136 531 103 q 601 226 585 170 q 616 368 616 282 m 429 814 l 225 970 l 225 990 l 359 990 l 513 828 l 513 814 l 429 814 z "},"ó":{"ha":833,"x_min":88,"x_max":744,"o":"m 744 368 q 721 200 744 271 q 656 81 699 128 q 552 10 613 33 q 413 -14 490 -14 q 279 9 339 -14 q 177 80 219 33 q 111 199 134 127 q 88 368 88 271 q 174 652 88 557 q 417 747 260 747 q 663 653 583 747 q 744 368 744 559 m 616 368 q 601 509 616 453 q 561 597 587 564 q 498 644 534 631 q 419 657 463 657 q 338 643 375 657 q 274 596 300 629 q 232 507 247 562 q 216 368 216 451 q 232 226 216 282 q 275 137 248 170 q 337 90 302 104 q 412 77 373 77 q 493 90 456 77 q 558 136 531 103 q 601 226 585 170 q 616 368 616 282 m 341 814 l 341 828 l 495 990 l 629 990 l 629 970 l 425 814 l 341 814 z "},"ô":{"ha":833,"x_min":88,"x_max":744,"o":"m 744 368 q 721 200 744 271 q 656 81 699 128 q 552 10 613 33 q 413 -14 490 -14 q 279 9 339 -14 q 177 80 219 33 q 111 199 134 127 q 88 368 88 271 q 174 652 88 557 q 417 747 260 747 q 663 653 583 747 q 744 368 744 559 m 616 368 q 601 509 616 453 q 561 597 587 564 q 498 644 534 631 q 419 657 463 657 q 338 643 375 657 q 274 596 300 629 q 232 507 247 562 q 216 368 216 451 q 232 226 216 282 q 275 137 248 170 q 337 90 302 104 q 412 77 373 77 q 493 90 456 77 q 558 136 531 103 q 601 226 585 170 q 616 368 616 282 m 641 828 l 641 814 l 570 814 l 421 908 l 420 908 l 262 814 l 192 814 l 192 828 l 364 990 l 475 990 l 641 828 z "},"õ":{"ha":833,"x_min":88,"x_max":744,"o":"m 744 368 q 721 200 744 271 q 656 81 699 128 q 552 10 613 33 q 413 -14 490 -14 q 279 9 339 -14 q 177 80 219 33 q 111 199 134 127 q 88 368 88 271 q 174 652 88 557 q 417 747 260 747 q 663 653 583 747 q 744 368 744 559 m 616 368 q 601 509 616 453 q 561 597 587 564 q 498 644 534 631 q 419 657 463 657 q 338 643 375 657 q 274 596 300 629 q 232 507 247 562 q 216 368 216 451 q 232 226 216 282 q 275 137 248 170 q 337 90 302 104 q 412 77 373 77 q 493 90 456 77 q 558 136 531 103 q 601 226 585 170 q 616 368 616 282 m 522 814 q 465 827 494 814 q 410 855 437 840 q 356 883 382 870 q 307 895 330 895 q 281 890 291 895 q 265 874 271 884 q 255 849 258 864 q 248 814 252 834 l 173 814 q 183 875 176 845 q 205 929 190 905 q 245 968 220 953 q 311 983 271 983 q 369 970 340 983 q 425 942 397 958 q 477 915 452 927 q 524 902 502 902 q 550 907 540 902 q 567 923 560 913 q 577 949 574 934 q 583 983 581 964 l 659 983 q 649 923 656 953 q 628 869 642 893 q 588 830 613 845 q 522 814 563 814 z "},"ö":{"ha":833,"x_min":88,"x_max":744,"o":"m 744 368 q 721 200 744 271 q 656 81 699 128 q 552 10 613 33 q 413 -14 490 -14 q 279 9 339 -14 q 177 80 219 33 q 111 199 134 127 q 88 368 88 271 q 174 652 88 557 q 417 747 260 747 q 663 653 583 747 q 744 368 744 559 m 616 368 q 601 509 616 453 q 561 597 587 564 q 498 644 534 631 q 419 657 463 657 q 338 643 375 657 q 274 596 300 629 q 232 507 247 562 q 216 368 216 451 q 232 226 216 282 q 275 137 248 170 q 337 90 302 104 q 412 77 373 77 q 493 90 456 77 q 558 136 531 103 q 601 226 585 170 q 616 368 616 282 m 494 827 l 494 951 l 605 951 l 605 827 l 494 827 m 227 827 l 227 951 l 339 951 l 339 827 l 227 827 z "},"÷":{"ha":833,"x_min":79,"x_max":753,"o":"m 359 650 l 359 774 l 473 774 l 473 650 l 359 650 m 79 412 l 79 511 l 753 511 l 753 412 l 79 412 m 359 151 l 359 275 l 473 275 l 473 151 l 359 151 z "},"ø":{"ha":833,"x_min":75,"x_max":758,"o":"m 758 368 q 734 200 758 271 q 666 81 710 128 q 557 10 621 33 q 413 -14 494 -14 q 288 4 345 -14 q 189 59 232 22 l 136 0 l 85 46 l 142 111 q 92 221 109 157 q 75 368 75 285 q 97 533 75 463 q 164 652 120 604 q 271 724 208 700 q 417 747 335 747 q 644 680 562 747 l 693 735 l 746 689 l 692 628 q 758 368 758 535 m 629 368 q 624 460 629 419 q 607 532 618 500 l 262 141 q 330 91 291 105 q 412 77 368 77 q 498 90 458 77 q 568 136 538 103 q 613 226 597 170 q 629 368 629 282 m 203 368 q 209 277 203 317 q 226 206 214 237 l 571 597 q 504 644 543 631 q 419 657 466 657 q 333 643 372 657 q 264 596 293 629 q 219 507 235 562 q 203 368 203 451 z "},"ù":{"ha":833,"x_min":125,"x_max":715,"o":"m 248 734 l 248 269 q 255 179 248 215 q 281 121 263 143 q 328 90 299 99 q 399 81 357 81 q 478 96 443 81 q 537 140 513 111 q 575 211 562 169 q 589 309 589 254 l 589 734 l 711 734 l 711 157 q 712 108 711 134 q 713 60 712 83 q 714 21 713 37 q 715 0 715 5 l 600 0 q 599 18 600 3 q 597 53 598 33 q 595 92 596 72 q 595 125 595 112 l 593 125 q 554 68 575 94 q 505 24 533 42 q 441 -4 477 6 q 358 -14 406 -14 q 253 1 297 -14 q 180 47 209 16 q 139 128 152 79 q 125 245 125 177 l 125 734 l 248 734 m 412 814 l 209 970 l 209 990 l 342 990 l 496 828 l 496 814 l 412 814 z "},"ú":{"ha":833,"x_min":125,"x_max":715,"o":"m 248 734 l 248 269 q 255 179 248 215 q 281 121 263 143 q 328 90 299 99 q 399 81 357 81 q 478 96 443 81 q 537 140 513 111 q 575 211 562 169 q 589 309 589 254 l 589 734 l 711 734 l 711 157 q 712 108 711 134 q 713 60 712 83 q 714 21 713 37 q 715 0 715 5 l 600 0 q 599 18 600 3 q 597 53 598 33 q 595 92 596 72 q 595 125 595 112 l 593 125 q 554 68 575 94 q 505 24 533 42 q 441 -4 477 6 q 358 -14 406 -14 q 253 1 297 -14 q 180 47 209 16 q 139 128 152 79 q 125 245 125 177 l 125 734 l 248 734 m 334 814 l 334 828 l 488 990 l 621 990 l 621 970 l 418 814 l 334 814 z "},"û":{"ha":833,"x_min":125,"x_max":715,"o":"m 248 734 l 248 269 q 255 179 248 215 q 281 121 263 143 q 328 90 299 99 q 399 81 357 81 q 478 96 443 81 q 537 140 513 111 q 575 211 562 169 q 589 309 589 254 l 589 734 l 711 734 l 711 157 q 712 108 711 134 q 713 60 712 83 q 714 21 713 37 q 715 0 715 5 l 600 0 q 599 18 600 3 q 597 53 598 33 q 595 92 596 72 q 595 125 595 112 l 593 125 q 554 68 575 94 q 505 24 533 42 q 441 -4 477 6 q 358 -14 406 -14 q 253 1 297 -14 q 180 47 209 16 q 139 128 152 79 q 125 245 125 177 l 125 734 l 248 734 m 641 828 l 641 814 l 570 814 l 421 908 l 420 908 l 262 814 l 192 814 l 192 828 l 364 990 l 475 990 l 641 828 z "},"ü":{"ha":833,"x_min":125,"x_max":715,"o":"m 248 734 l 248 269 q 255 179 248 215 q 281 121 263 143 q 328 90 299 99 q 399 81 357 81 q 478 96 443 81 q 537 140 513 111 q 575 211 562 169 q 589 309 589 254 l 589 734 l 711 734 l 711 157 q 712 108 711 134 q 713 60 712 83 q 714 21 713 37 q 715 0 715 5 l 600 0 q 599 18 600 3 q 597 53 598 33 q 595 92 596 72 q 595 125 595 112 l 593 125 q 554 68 575 94 q 505 24 533 42 q 441 -4 477 6 q 358 -14 406 -14 q 253 1 297 -14 q 180 47 209 16 q 139 128 152 79 q 125 245 125 177 l 125 734 l 248 734 m 494 827 l 494 951 l 605 951 l 605 827 l 494 827 m 227 827 l 227 951 l 339 951 l 339 827 l 227 827 z "},"ý":{"ha":833,"x_min":45,"x_max":787,"o":"m 478 0 q 426 -120 453 -66 q 366 -211 399 -173 q 292 -268 332 -248 q 198 -288 251 -288 q 155 -287 175 -288 q 114 -281 136 -286 l 114 -189 q 143 -192 127 -191 q 171 -193 159 -193 q 272 -153 224 -193 q 351 -26 319 -113 l 363 7 l 45 734 l 175 734 l 354 298 q 372 253 361 280 q 393 200 383 227 q 411 153 404 174 q 420 126 419 132 q 430 154 422 134 q 448 200 438 175 q 469 253 458 226 q 488 299 479 279 l 659 734 l 787 734 l 478 0 m 345 814 l 345 828 l 499 990 l 633 990 l 633 970 l 429 814 l 345 814 z "},"þ":{"ha":833,"x_min":125,"x_max":739,"o":"m 613 370 q 605 491 613 438 q 577 580 597 544 q 524 635 557 616 q 441 654 491 654 q 366 642 401 654 q 305 596 331 629 q 263 505 279 564 q 248 355 248 447 q 261 224 248 277 q 298 138 273 171 q 358 91 322 105 q 440 77 394 77 q 523 96 490 77 q 576 153 556 115 q 605 245 596 190 q 613 370 613 300 m 250 613 q 288 674 267 648 q 336 716 309 700 q 397 741 363 733 q 473 749 431 749 q 599 722 548 749 q 681 645 650 694 q 726 525 712 595 q 739 370 739 455 q 726 216 739 287 q 681 95 712 146 q 599 15 650 44 q 473 -14 548 -14 q 402 -7 436 -14 q 339 15 368 0 q 287 54 310 30 q 249 111 264 77 l 245 111 q 247 99 246 110 q 247 73 247 89 q 248 38 248 58 q 248 -1 248 18 l 248 -288 l 125 -288 l 125 1006 l 248 1006 l 248 720 q 247 681 248 700 q 246 646 247 661 q 245 613 245 629 l 250 613 z "},"ÿ":{"ha":833,"x_min":45,"x_max":787,"o":"m 478 0 q 426 -120 453 -66 q 366 -211 399 -173 q 292 -268 332 -248 q 198 -288 251 -288 q 155 -287 175 -288 q 114 -281 136 -286 l 114 -189 q 143 -192 127 -191 q 171 -193 159 -193 q 272 -153 224 -193 q 351 -26 319 -113 l 363 7 l 45 734 l 175 734 l 354 298 q 372 253 361 280 q 393 200 383 227 q 411 153 404 174 q 420 126 419 132 q 430 154 422 134 q 448 200 438 175 q 469 253 458 226 q 488 299 479 279 l 659 734 l 787 734 l 478 0 m 498 827 l 498 951 l 608 951 l 608 827 l 498 827 m 231 827 l 231 951 l 342 951 l 342 827 l 231 827 z "},"Ā":{"ha":833,"x_min":0,"x_max":833,"o":"m 701 0 l 608 259 l 226 259 l 133 0 l 0 0 l 346 915 l 493 915 l 833 0 l 701 0 m 475 647 q 457 699 467 673 q 440 749 448 726 q 426 791 432 773 q 418 817 420 809 q 410 791 415 809 q 396 749 404 772 q 380 699 389 725 q 363 647 372 672 l 260 360 l 574 360 l 475 647 m 604 1019 l 230 1019 l 230 1105 l 604 1105 l 604 1019 z "},"ā":{"ha":833,"x_min":87,"x_max":787,"o":"m 747 75 q 767 77 757 75 q 787 80 777 78 l 787 4 q 741 -4 764 -1 q 692 -7 718 -7 q 633 2 658 -7 q 593 30 608 12 q 569 76 577 49 q 559 140 561 104 l 555 140 q 513 77 536 105 q 460 28 490 48 q 391 -3 430 8 q 302 -14 353 -14 q 141 45 195 -14 q 87 205 87 103 q 114 324 87 277 q 184 397 140 370 q 282 434 227 423 q 395 445 338 444 l 555 448 l 555 488 q 546 565 555 533 q 518 616 536 597 q 471 645 499 636 q 404 654 442 654 q 343 649 370 654 q 296 631 315 644 q 263 595 276 618 q 247 538 251 572 l 119 549 q 145 629 126 593 q 197 692 163 665 q 282 733 231 718 q 406 747 334 747 q 610 684 542 747 q 678 500 678 621 l 678 184 q 692 103 678 130 q 747 75 707 75 m 334 79 q 431 101 390 79 q 500 155 473 122 q 541 227 528 187 q 555 302 555 266 l 555 362 l 426 359 q 351 354 389 359 q 283 332 313 349 q 234 285 253 316 q 215 203 215 254 q 245 113 215 147 q 334 79 275 79 m 577 838 l 203 838 l 203 924 l 577 924 l 577 838 z "},"Ă":{"ha":833,"x_min":0,"x_max":833,"o":"m 701 0 l 608 259 l 226 259 l 133 0 l 0 0 l 346 915 l 493 915 l 833 0 l 701 0 m 475 647 q 457 699 467 673 q 440 749 448 726 q 426 791 432 773 q 418 817 420 809 q 410 791 415 809 q 396 749 404 772 q 380 699 389 725 q 363 647 372 672 l 260 360 l 574 360 l 475 647 m 416 981 q 328 997 366 981 q 265 1038 291 1013 q 224 1095 239 1063 q 204 1156 210 1126 l 290 1156 q 331 1090 302 1114 q 416 1066 360 1066 q 502 1090 473 1066 q 543 1156 531 1114 l 629 1156 q 608 1095 623 1126 q 567 1038 593 1063 q 505 997 542 1013 q 416 981 467 981 z "},"ă":{"ha":833,"x_min":87,"x_max":787,"o":"m 747 75 q 767 77 757 75 q 787 80 777 78 l 787 4 q 741 -4 764 -1 q 692 -7 718 -7 q 633 2 658 -7 q 593 30 608 12 q 569 76 577 49 q 559 140 561 104 l 555 140 q 513 77 536 105 q 460 28 490 48 q 391 -3 430 8 q 302 -14 353 -14 q 141 45 195 -14 q 87 205 87 103 q 114 324 87 277 q 184 397 140 370 q 282 434 227 423 q 395 445 338 444 l 555 448 l 555 488 q 546 565 555 533 q 518 616 536 597 q 471 645 499 636 q 404 654 442 654 q 343 649 370 654 q 296 631 315 644 q 263 595 276 618 q 247 538 251 572 l 119 549 q 145 629 126 593 q 197 692 163 665 q 282 733 231 718 q 406 747 334 747 q 610 684 542 747 q 678 500 678 621 l 678 184 q 692 103 678 130 q 747 75 707 75 m 334 79 q 431 101 390 79 q 500 155 473 122 q 541 227 528 187 q 555 302 555 266 l 555 362 l 426 359 q 351 354 389 359 q 283 332 313 349 q 234 285 253 316 q 215 203 215 254 q 245 113 215 147 q 334 79 275 79 m 403 814 q 315 830 353 814 q 252 872 278 846 q 212 928 227 897 q 191 990 197 960 l 277 990 q 318 924 289 947 q 403 900 347 900 q 489 924 460 900 q 530 990 518 947 l 616 990 q 595 928 610 960 q 554 872 580 897 q 492 830 529 846 q 403 814 454 814 z "},"Ą":{"ha":833,"x_min":0,"x_max":846,"o":"m 701 0 l 608 259 l 226 259 l 133 0 l 0 0 l 346 915 l 493 915 l 833 0 l 701 0 m 475 647 q 457 699 467 673 q 440 749 448 726 q 426 791 432 773 q 418 817 420 809 q 410 791 415 809 q 396 749 404 772 q 380 699 389 725 q 363 647 372 672 l 260 360 l 574 360 l 475 647 m 846 -264 q 803 -277 827 -272 q 751 -282 779 -282 q 644 -248 680 -282 q 608 -155 608 -213 q 620 -97 608 -123 q 648 -49 631 -70 q 682 -14 664 -28 q 713 7 701 0 l 804 7 q 769 -17 787 -2 q 737 -53 751 -33 q 713 -96 722 -73 q 704 -146 704 -120 q 721 -191 704 -175 q 768 -208 737 -208 q 807 -203 787 -208 q 846 -191 827 -199 l 846 -264 z "},"ą":{"ha":833,"x_min":87,"x_max":787,"o":"m 747 75 q 767 77 757 75 q 787 80 777 78 l 787 4 q 741 -4 764 -1 q 692 -7 718 -7 q 633 2 658 -7 q 593 30 608 12 q 569 76 577 49 q 559 140 561 104 l 555 140 q 513 77 536 105 q 460 28 490 48 q 391 -3 430 8 q 302 -14 353 -14 q 141 45 195 -14 q 87 205 87 103 q 114 324 87 277 q 184 397 140 370 q 282 434 227 423 q 395 445 338 444 l 555 448 l 555 488 q 546 565 555 533 q 518 616 536 597 q 471 645 499 636 q 404 654 442 654 q 343 649 370 654 q 296 631 315 644 q 263 595 276 618 q 247 538 251 572 l 119 549 q 145 629 126 593 q 197 692 163 665 q 282 733 231 718 q 406 747 334 747 q 610 684 542 747 q 678 500 678 621 l 678 184 q 692 103 678 130 q 747 75 707 75 m 334 79 q 431 101 390 79 q 500 155 473 122 q 541 227 528 187 q 555 302 555 266 l 555 362 l 426 359 q 351 354 389 359 q 283 332 313 349 q 234 285 253 316 q 215 203 215 254 q 245 113 215 147 q 334 79 275 79 m 787 -271 q 744 -284 768 -279 q 692 -290 720 -290 q 585 -255 621 -290 q 549 -163 549 -220 q 561 -104 549 -131 q 589 -57 572 -77 q 623 -22 605 -36 q 654 0 642 -7 l 745 0 q 710 -25 728 -9 q 678 -60 692 -40 q 654 -104 663 -80 q 645 -154 645 -127 q 662 -199 645 -182 q 709 -215 678 -215 q 748 -211 728 -215 q 787 -199 768 -206 l 787 -271 z "},"Ć":{"ha":833,"x_min":77,"x_max":774,"o":"m 213 462 q 227 304 213 373 q 269 188 240 235 q 341 116 297 140 q 448 92 386 92 q 525 108 491 92 q 586 151 559 124 q 633 212 613 177 q 667 283 652 246 l 774 239 q 728 146 755 191 q 661 65 700 101 q 569 8 621 30 q 447 -14 516 -14 q 282 21 351 -14 q 166 117 212 55 q 99 267 121 180 q 77 462 77 355 q 98 662 77 574 q 165 808 120 749 q 278 898 210 867 q 440 929 347 929 q 560 910 509 929 q 649 860 612 892 q 713 788 687 829 q 756 702 739 747 l 642 658 q 614 719 632 689 q 572 772 597 749 q 514 809 547 795 q 441 823 481 823 q 337 800 380 823 q 267 731 294 777 q 226 618 239 686 q 213 462 213 551 m 362 980 l 362 994 l 516 1156 l 650 1156 l 650 1136 l 446 980 l 362 980 z "},"ć":{"ha":833,"x_min":88,"x_max":732,"o":"m 88 368 q 117 551 88 478 q 194 668 146 625 q 303 729 242 711 q 429 747 364 747 q 547 730 495 747 q 637 684 600 713 q 699 614 675 654 q 731 528 722 574 l 601 519 q 547 616 590 581 q 423 652 503 652 q 325 633 365 652 q 261 579 286 614 q 227 491 237 543 q 216 370 216 438 q 227 249 216 302 q 261 157 237 195 q 325 100 286 120 q 422 81 365 81 q 544 117 496 81 q 604 227 592 153 l 732 218 q 703 131 726 173 q 642 57 680 89 q 549 6 603 25 q 428 -14 496 -14 q 270 16 335 -14 q 165 96 205 45 q 106 217 125 147 q 88 368 88 286 m 342 814 l 342 828 l 496 990 l 629 990 l 629 970 l 426 814 l 342 814 z "},"Ĉ":{"ha":833,"x_min":77,"x_max":774,"o":"m 213 462 q 227 304 213 373 q 269 188 240 235 q 341 116 297 140 q 448 92 386 92 q 525 108 491 92 q 586 151 559 124 q 633 212 613 177 q 667 283 652 246 l 774 239 q 728 146 755 191 q 661 65 700 101 q 569 8 621 30 q 447 -14 516 -14 q 282 21 351 -14 q 166 117 212 55 q 99 267 121 180 q 77 462 77 355 q 98 662 77 574 q 165 808 120 749 q 278 898 210 867 q 440 929 347 929 q 560 910 509 929 q 649 860 612 892 q 713 788 687 829 q 756 702 739 747 l 642 658 q 614 719 632 689 q 572 772 597 749 q 514 809 547 795 q 441 823 481 823 q 337 800 380 823 q 267 731 294 777 q 226 618 239 686 q 213 462 213 551 m 654 994 l 654 981 l 583 981 l 435 1074 l 433 1074 l 276 981 l 205 981 l 205 994 l 378 1156 l 489 1156 l 654 994 z "},"ĉ":{"ha":833,"x_min":88,"x_max":732,"o":"m 88 368 q 117 551 88 478 q 194 668 146 625 q 303 729 242 711 q 429 747 364 747 q 547 730 495 747 q 637 684 600 713 q 699 614 675 654 q 731 528 722 574 l 601 519 q 547 616 590 581 q 423 652 503 652 q 325 633 365 652 q 261 579 286 614 q 227 491 237 543 q 216 370 216 438 q 227 249 216 302 q 261 157 237 195 q 325 100 286 120 q 422 81 365 81 q 544 117 496 81 q 604 227 592 153 l 732 218 q 703 131 726 173 q 642 57 680 89 q 549 6 603 25 q 428 -14 496 -14 q 270 16 335 -14 q 165 96 205 45 q 106 217 125 147 q 88 368 88 286 m 641 828 l 641 814 l 570 814 l 421 908 l 420 908 l 262 814 l 192 814 l 192 828 l 364 990 l 475 990 l 641 828 z "},"Ċ":{"ha":833,"x_min":77,"x_max":774,"o":"m 213 462 q 227 304 213 373 q 269 188 240 235 q 341 116 297 140 q 448 92 386 92 q 525 108 491 92 q 586 151 559 124 q 633 212 613 177 q 667 283 652 246 l 774 239 q 728 146 755 191 q 661 65 700 101 q 569 8 621 30 q 447 -14 516 -14 q 282 21 351 -14 q 166 117 212 55 q 99 267 121 180 q 77 462 77 355 q 98 662 77 574 q 165 808 120 749 q 278 898 210 867 q 440 929 347 929 q 560 910 509 929 q 649 860 612 892 q 713 788 687 829 q 756 702 739 747 l 642 658 q 614 719 632 689 q 572 772 597 749 q 514 809 547 795 q 441 823 481 823 q 337 800 380 823 q 267 731 294 777 q 226 618 239 686 q 213 462 213 551 m 370 981 l 370 1111 l 505 1111 l 505 981 l 370 981 z "},"ċ":{"ha":833,"x_min":88,"x_max":732,"o":"m 88 368 q 117 551 88 478 q 194 668 146 625 q 303 729 242 711 q 429 747 364 747 q 547 730 495 747 q 637 684 600 713 q 699 614 675 654 q 731 528 722 574 l 601 519 q 547 616 590 581 q 423 652 503 652 q 325 633 365 652 q 261 579 286 614 q 227 491 237 543 q 216 370 216 438 q 227 249 216 302 q 261 157 237 195 q 325 100 286 120 q 422 81 365 81 q 544 117 496 81 q 604 227 592 153 l 732 218 q 703 131 726 173 q 642 57 680 89 q 549 6 603 25 q 428 -14 496 -14 q 270 16 335 -14 q 165 96 205 45 q 106 217 125 147 q 88 368 88 286 m 363 876 l 363 1006 l 498 1006 l 498 876 l 363 876 z "},"Č":{"ha":833,"x_min":77,"x_max":774,"o":"m 213 462 q 227 304 213 373 q 269 188 240 235 q 341 116 297 140 q 448 92 386 92 q 525 108 491 92 q 586 151 559 124 q 633 212 613 177 q 667 283 652 246 l 774 239 q 728 146 755 191 q 661 65 700 101 q 569 8 621 30 q 447 -14 516 -14 q 282 21 351 -14 q 166 117 212 55 q 99 267 121 180 q 77 462 77 355 q 98 662 77 574 q 165 808 120 749 q 278 898 210 867 q 440 929 347 929 q 560 910 509 929 q 649 860 612 892 q 713 788 687 829 q 756 702 739 747 l 642 658 q 614 719 632 689 q 572 772 597 749 q 514 809 547 795 q 441 823 481 823 q 337 800 380 823 q 267 731 294 777 q 226 618 239 686 q 213 462 213 551 m 487 981 l 376 981 l 203 1143 l 203 1156 l 274 1156 l 431 1063 l 433 1063 l 581 1156 l 652 1156 l 652 1143 l 487 981 z "},"č":{"ha":833,"x_min":88,"x_max":732,"o":"m 88 368 q 117 551 88 478 q 194 668 146 625 q 303 729 242 711 q 429 747 364 747 q 547 730 495 747 q 637 684 600 713 q 699 614 675 654 q 731 528 722 574 l 601 519 q 547 616 590 581 q 423 652 503 652 q 325 633 365 652 q 261 579 286 614 q 227 491 237 543 q 216 370 216 438 q 227 249 216 302 q 261 157 237 195 q 325 100 286 120 q 422 81 365 81 q 544 117 496 81 q 604 227 592 153 l 732 218 q 703 131 726 173 q 642 57 680 89 q 549 6 603 25 q 428 -14 496 -14 q 270 16 335 -14 q 165 96 205 45 q 106 217 125 147 q 88 368 88 286 m 473 814 l 361 814 l 189 977 l 189 990 l 260 990 l 417 897 l 418 897 l 567 990 l 638 990 l 638 977 l 473 814 z "},"Ď":{"ha":833,"x_min":110,"x_max":763,"o":"m 763 467 q 736 266 763 353 q 657 119 709 178 q 531 30 606 60 q 361 0 456 0 l 110 0 l 110 915 l 321 915 q 510 889 428 915 q 649 808 593 863 q 734 668 705 753 q 763 467 763 583 m 633 467 q 614 623 633 558 q 556 729 595 688 q 459 790 517 770 q 321 809 401 809 l 239 809 l 239 106 l 349 106 q 563 196 493 106 q 633 467 633 286 m 456 981 l 345 981 l 172 1143 l 172 1156 l 243 1156 l 400 1063 l 401 1063 l 550 1156 l 621 1156 l 621 1143 l 456 981 z "},"ď":{"ha":833,"x_min":21,"x_max":835,"o":"m 450 118 q 371 15 416 47 q 260 -18 326 -18 q 162 6 206 -18 q 86 77 117 29 q 38 195 55 124 q 21 361 21 266 q 39 529 21 457 q 88 649 56 602 q 164 721 120 697 q 260 745 208 745 q 372 715 327 745 q 450 620 416 686 l 451 620 q 451 637 451 623 q 450 669 450 652 q 450 701 450 686 q 450 722 450 716 l 450 1006 l 572 1006 l 572 151 q 572 100 572 125 q 573 56 572 76 q 574 21 574 35 q 576 0 575 6 l 459 0 q 457 15 458 3 q 455 44 456 27 q 453 81 454 61 q 452 118 452 100 l 450 118 m 147 365 q 155 235 147 289 q 180 145 163 180 q 221 93 196 110 q 281 77 247 77 q 345 95 315 77 q 398 150 375 113 q 436 243 422 187 q 450 376 450 300 q 436 502 450 449 q 399 588 422 554 q 345 638 376 623 q 282 654 315 654 q 224 639 250 654 q 182 589 199 623 q 156 499 165 554 q 147 365 147 444 m 648 786 l 648 808 l 701 1006 l 835 1006 l 835 981 l 719 786 l 648 786 z "},"Đ":{"ha":833,"x_min":18,"x_max":763,"o":"m 763 467 q 736 266 763 353 q 657 119 709 178 q 531 30 606 60 q 361 0 456 0 l 110 0 l 110 405 l 18 405 l 18 506 l 110 506 l 110 915 l 321 915 q 510 889 428 915 q 649 808 593 863 q 734 668 705 753 q 763 467 763 583 m 435 405 l 239 405 l 239 106 l 349 106 q 563 196 493 106 q 633 467 633 286 q 614 623 633 558 q 556 729 595 688 q 459 790 517 770 q 321 809 401 809 l 239 809 l 239 506 l 435 506 l 435 405 z "},"đ":{"ha":833,"x_min":94,"x_max":796,"o":"m 707 811 l 707 151 q 708 100 707 125 q 709 56 708 76 q 710 21 709 35 q 711 0 711 6 l 595 0 q 593 15 594 3 q 590 44 591 27 q 589 81 589 61 q 588 118 588 100 l 585 118 q 496 15 551 47 q 359 -18 441 -18 q 158 74 222 -18 q 94 351 94 166 q 359 727 94 727 q 497 698 441 727 q 585 602 552 669 l 587 602 q 586 620 587 606 q 586 651 586 634 q 586 683 586 668 q 585 705 585 699 l 585 811 l 382 811 l 382 900 l 585 900 l 585 1006 l 707 1006 l 707 900 l 796 900 l 796 811 l 707 811 m 220 355 q 230 229 220 281 q 260 142 239 176 q 313 93 281 109 q 391 77 346 77 q 474 92 438 77 q 535 142 511 108 q 573 232 560 177 q 585 365 585 287 q 573 493 585 441 q 536 577 560 545 q 475 623 511 609 q 393 637 439 637 q 317 621 349 637 q 263 572 284 606 q 231 484 241 538 q 220 355 220 431 z "},"Ē":{"ha":833,"x_min":110,"x_max":761,"o":"m 110 0 l 110 915 l 733 915 l 733 809 l 239 809 l 239 523 l 692 523 l 692 418 l 239 418 l 239 106 l 761 106 l 761 0 l 110 0 m 614 1019 l 241 1019 l 241 1105 l 614 1105 l 614 1019 z "},"ē":{"ha":833,"x_min":90,"x_max":742,"o":"m 218 341 q 231 235 218 283 q 270 152 244 186 q 334 97 296 117 q 422 78 372 78 q 491 86 460 78 q 548 110 523 95 q 590 145 573 125 q 615 191 607 166 l 722 160 q 690 99 711 130 q 632 43 668 68 q 545 2 596 18 q 422 -14 493 -14 q 283 11 345 -14 q 178 83 221 35 q 113 204 136 132 q 90 372 90 276 q 117 549 90 477 q 189 665 144 621 q 294 728 235 709 q 418 747 353 747 q 569 719 507 747 q 669 639 630 690 q 725 516 707 588 q 742 357 742 444 l 742 341 l 218 341 m 420 657 q 354 647 389 657 q 291 612 320 637 q 242 544 262 587 q 220 435 222 501 l 616 435 q 593 541 610 498 q 549 610 575 584 q 490 646 523 635 q 420 657 456 657 m 604 838 l 230 838 l 230 924 l 604 924 l 604 838 z "},"Ĕ":{"ha":833,"x_min":110,"x_max":761,"o":"m 110 0 l 110 915 l 733 915 l 733 809 l 239 809 l 239 523 l 692 523 l 692 418 l 239 418 l 239 106 l 761 106 l 761 0 l 110 0 m 416 981 q 328 997 366 981 q 265 1038 291 1013 q 224 1095 239 1063 q 204 1156 210 1126 l 290 1156 q 331 1090 302 1114 q 416 1066 360 1066 q 502 1090 473 1066 q 543 1156 531 1114 l 629 1156 q 608 1095 623 1126 q 567 1038 593 1063 q 505 997 542 1013 q 416 981 467 981 z "},"ĕ":{"ha":833,"x_min":90,"x_max":742,"o":"m 218 341 q 231 235 218 283 q 270 152 244 186 q 334 97 296 117 q 422 78 372 78 q 491 86 460 78 q 548 110 523 95 q 590 145 573 125 q 615 191 607 166 l 722 160 q 690 99 711 130 q 632 43 668 68 q 545 2 596 18 q 422 -14 493 -14 q 283 11 345 -14 q 178 83 221 35 q 113 204 136 132 q 90 372 90 276 q 117 549 90 477 q 189 665 144 621 q 294 728 235 709 q 418 747 353 747 q 569 719 507 747 q 669 639 630 690 q 725 516 707 588 q 742 357 742 444 l 742 341 l 218 341 m 420 657 q 354 647 389 657 q 291 612 320 637 q 242 544 262 587 q 220 435 222 501 l 616 435 q 593 541 610 498 q 549 610 575 584 q 490 646 523 635 q 420 657 456 657 m 418 814 q 331 830 368 814 q 268 872 294 846 q 227 928 242 897 q 207 990 212 960 l 293 990 q 334 924 304 947 q 418 900 363 900 q 505 924 476 900 q 545 990 534 947 l 631 990 q 610 928 625 960 q 570 872 595 897 q 507 830 545 846 q 418 814 470 814 z "},"Ė":{"ha":833,"x_min":110,"x_max":761,"o":"m 110 0 l 110 915 l 733 915 l 733 809 l 239 809 l 239 523 l 692 523 l 692 418 l 239 418 l 239 106 l 761 106 l 761 0 l 110 0 m 349 981 l 349 1111 l 485 1111 l 485 981 l 349 981 z "},"ė":{"ha":833,"x_min":90,"x_max":742,"o":"m 218 341 q 231 235 218 283 q 270 152 244 186 q 334 97 296 117 q 422 78 372 78 q 491 86 460 78 q 548 110 523 95 q 590 145 573 125 q 615 191 607 166 l 722 160 q 690 99 711 130 q 632 43 668 68 q 545 2 596 18 q 422 -14 493 -14 q 283 11 345 -14 q 178 83 221 35 q 113 204 136 132 q 90 372 90 276 q 117 549 90 477 q 189 665 144 621 q 294 728 235 709 q 418 747 353 747 q 569 719 507 747 q 669 639 630 690 q 725 516 707 588 q 742 357 742 444 l 742 341 l 218 341 m 420 657 q 354 647 389 657 q 291 612 320 637 q 242 544 262 587 q 220 435 222 501 l 616 435 q 593 541 610 498 q 549 610 575 584 q 490 646 523 635 q 420 657 456 657 m 351 876 l 351 1006 l 486 1006 l 486 876 l 351 876 z "},"Ę":{"ha":833,"x_min":110,"x_max":761,"o":"m 110 0 l 110 915 l 733 915 l 733 809 l 239 809 l 239 523 l 692 523 l 692 418 l 239 418 l 239 106 l 761 106 l 761 0 l 110 0 m 761 -271 q 718 -284 742 -279 q 667 -290 694 -290 q 559 -255 595 -290 q 524 -163 524 -220 q 535 -104 524 -131 q 563 -57 547 -77 q 597 -22 579 -36 q 629 0 616 -7 l 719 0 q 684 -25 702 -9 q 652 -60 667 -40 q 628 -104 637 -80 q 619 -154 619 -127 q 636 -199 619 -182 q 683 -215 652 -215 q 722 -211 703 -215 q 761 -199 742 -206 l 761 -271 z "},"ę":{"ha":833,"x_min":90,"x_max":742,"o":"m 218 341 q 231 235 218 283 q 270 152 244 186 q 334 97 296 117 q 422 78 372 78 q 491 86 460 78 q 548 110 523 95 q 590 145 573 125 q 615 191 607 166 l 722 160 q 690 99 711 130 q 632 43 668 68 q 545 2 596 18 q 422 -14 493 -14 q 283 11 345 -14 q 178 83 221 35 q 113 204 136 132 q 90 372 90 276 q 117 549 90 477 q 189 665 144 621 q 294 728 235 709 q 418 747 353 747 q 569 719 507 747 q 669 639 630 690 q 725 516 707 588 q 742 357 742 444 l 742 341 l 218 341 m 420 657 q 354 647 389 657 q 291 612 320 637 q 242 544 262 587 q 220 435 222 501 l 616 435 q 593 541 610 498 q 549 610 575 584 q 490 646 523 635 q 420 657 456 657 m 578 -271 q 535 -284 559 -279 q 484 -290 511 -290 q 377 -255 413 -290 q 341 -163 341 -220 q 353 -104 341 -131 q 380 -57 364 -77 q 415 -22 397 -36 q 446 0 433 -7 l 536 0 q 502 -25 519 -9 q 470 -60 484 -40 q 446 -104 455 -80 q 437 -154 437 -127 q 453 -199 437 -182 q 500 -215 470 -215 q 540 -211 520 -215 q 578 -199 559 -206 l 578 -271 z "},"Ě":{"ha":833,"x_min":110,"x_max":761,"o":"m 110 0 l 110 915 l 733 915 l 733 809 l 239 809 l 239 523 l 692 523 l 692 418 l 239 418 l 239 106 l 761 106 l 761 0 l 110 0 m 475 981 l 364 981 l 192 1143 l 192 1156 l 262 1156 l 420 1063 l 421 1063 l 570 1156 l 641 1156 l 641 1143 l 475 981 z "},"ě":{"ha":833,"x_min":90,"x_max":742,"o":"m 218 341 q 231 235 218 283 q 270 152 244 186 q 334 97 296 117 q 422 78 372 78 q 491 86 460 78 q 548 110 523 95 q 590 145 573 125 q 615 191 607 166 l 722 160 q 690 99 711 130 q 632 43 668 68 q 545 2 596 18 q 422 -14 493 -14 q 283 11 345 -14 q 178 83 221 35 q 113 204 136 132 q 90 372 90 276 q 117 549 90 477 q 189 665 144 621 q 294 728 235 709 q 418 747 353 747 q 569 719 507 747 q 669 639 630 690 q 725 516 707 588 q 742 357 742 444 l 742 341 l 218 341 m 420 657 q 354 647 389 657 q 291 612 320 637 q 242 544 262 587 q 220 435 222 501 l 616 435 q 593 541 610 498 q 549 610 575 584 q 490 646 523 635 q 420 657 456 657 m 471 814 l 359 814 l 187 977 l 187 990 l 258 990 l 415 897 l 416 897 l 565 990 l 636 990 l 636 977 l 471 814 z "},"Ĝ":{"ha":833,"x_min":77,"x_max":748,"o":"m 747 90 q 690 56 722 74 q 618 22 658 37 q 533 -3 579 7 q 433 -14 486 -14 q 275 22 342 -14 q 164 121 208 58 q 98 271 120 184 q 77 462 77 358 q 98 662 77 575 q 163 809 119 749 q 275 899 207 868 q 435 929 342 929 q 554 911 503 929 q 643 864 606 894 q 706 792 681 833 q 748 705 732 751 l 632 667 q 559 782 606 741 q 437 823 512 823 q 333 800 376 823 q 263 731 290 777 q 225 617 237 685 q 213 462 213 550 q 270 186 213 280 q 444 92 328 92 q 505 97 477 92 q 556 111 533 103 q 595 127 578 119 q 621 142 612 136 l 621 370 l 422 370 l 422 478 l 747 478 l 747 90 m 641 994 l 641 981 l 570 981 l 421 1074 l 420 1074 l 262 981 l 192 981 l 192 994 l 364 1156 l 475 1156 l 641 994 z "},"ĝ":{"ha":833,"x_min":97,"x_max":715,"o":"m 417 -288 q 310 -275 356 -288 q 230 -238 263 -262 q 175 -180 196 -214 q 146 -106 155 -147 l 271 -90 q 320 -168 282 -140 q 421 -195 359 -195 q 491 -184 460 -195 q 544 -147 522 -172 q 577 -81 566 -121 q 589 18 589 -40 l 589 150 l 588 150 q 555 97 575 123 q 507 52 535 71 q 441 20 479 32 q 355 8 404 8 q 237 31 286 8 q 157 98 189 53 q 112 212 126 144 q 97 372 97 281 q 112 530 97 461 q 158 647 126 600 q 242 720 191 695 q 368 745 294 745 q 502 710 445 745 q 589 608 558 674 l 591 608 q 592 646 591 625 q 594 686 593 667 q 596 718 595 705 q 599 734 598 732 l 715 734 q 713 713 714 728 q 712 678 713 699 q 711 633 711 658 q 711 582 711 608 l 711 22 q 639 -210 711 -132 q 417 -288 567 -288 m 589 374 q 573 504 589 450 q 530 591 557 557 q 469 640 503 625 q 399 654 435 654 q 320 639 353 654 q 265 590 287 624 q 233 504 243 557 q 223 374 223 450 q 233 241 223 294 q 265 157 243 189 q 319 112 286 125 q 397 98 352 98 q 467 113 433 98 q 529 160 502 127 q 573 245 556 193 q 589 374 589 298 m 635 828 l 635 814 l 564 814 l 415 908 l 414 908 l 256 814 l 186 814 l 186 828 l 358 990 l 469 990 l 635 828 z "},"Ğ":{"ha":833,"x_min":77,"x_max":748,"o":"m 747 90 q 690 56 722 74 q 618 22 658 37 q 533 -3 579 7 q 433 -14 486 -14 q 275 22 342 -14 q 164 121 208 58 q 98 271 120 184 q 77 462 77 358 q 98 662 77 575 q 163 809 119 749 q 275 899 207 868 q 435 929 342 929 q 554 911 503 929 q 643 864 606 894 q 706 792 681 833 q 748 705 732 751 l 632 667 q 559 782 606 741 q 437 823 512 823 q 333 800 376 823 q 263 731 290 777 q 225 617 237 685 q 213 462 213 550 q 270 186 213 280 q 444 92 328 92 q 505 97 477 92 q 556 111 533 103 q 595 127 578 119 q 621 142 612 136 l 621 370 l 422 370 l 422 478 l 747 478 l 747 90 m 418 981 q 330 997 368 981 q 267 1038 293 1013 q 227 1095 241 1063 q 206 1156 212 1126 l 292 1156 q 333 1090 304 1114 q 418 1066 362 1066 q 504 1090 475 1066 q 545 1156 533 1114 l 631 1156 q 610 1095 625 1126 q 569 1038 595 1063 q 507 997 544 1013 q 418 981 469 981 z "},"ğ":{"ha":833,"x_min":97,"x_max":715,"o":"m 417 -288 q 310 -275 356 -288 q 230 -238 263 -262 q 175 -180 196 -214 q 146 -106 155 -147 l 271 -90 q 320 -168 282 -140 q 421 -195 359 -195 q 491 -184 460 -195 q 544 -147 522 -172 q 577 -81 566 -121 q 589 18 589 -40 l 589 150 l 588 150 q 555 97 575 123 q 507 52 535 71 q 441 20 479 32 q 355 8 404 8 q 237 31 286 8 q 157 98 189 53 q 112 212 126 144 q 97 372 97 281 q 112 530 97 461 q 158 647 126 600 q 242 720 191 695 q 368 745 294 745 q 502 710 445 745 q 589 608 558 674 l 591 608 q 592 646 591 625 q 594 686 593 667 q 596 718 595 705 q 599 734 598 732 l 715 734 q 713 713 714 728 q 712 678 713 699 q 711 633 711 658 q 711 582 711 608 l 711 22 q 639 -210 711 -132 q 417 -288 567 -288 m 589 374 q 573 504 589 450 q 530 591 557 557 q 469 640 503 625 q 399 654 435 654 q 320 639 353 654 q 265 590 287 624 q 233 504 243 557 q 223 374 223 450 q 233 241 223 294 q 265 157 243 189 q 319 112 286 125 q 397 98 352 98 q 467 113 433 98 q 529 160 502 127 q 573 245 556 193 q 589 374 589 298 m 410 814 q 322 830 359 814 q 259 872 285 846 q 218 928 233 897 q 198 990 203 960 l 284 990 q 325 924 296 947 q 410 900 354 900 q 496 924 467 900 q 536 990 525 947 l 623 990 q 602 928 616 960 q 561 872 587 897 q 498 830 536 846 q 410 814 461 814 z "},"Ġ":{"ha":833,"x_min":77,"x_max":748,"o":"m 747 90 q 690 56 722 74 q 618 22 658 37 q 533 -3 579 7 q 433 -14 486 -14 q 275 22 342 -14 q 164 121 208 58 q 98 271 120 184 q 77 462 77 358 q 98 662 77 575 q 163 809 119 749 q 275 899 207 868 q 435 929 342 929 q 554 911 503 929 q 643 864 606 894 q 706 792 681 833 q 748 705 732 751 l 632 667 q 559 782 606 741 q 437 823 512 823 q 333 800 376 823 q 263 731 290 777 q 225 617 237 685 q 213 462 213 550 q 270 186 213 280 q 444 92 328 92 q 505 97 477 92 q 556 111 533 103 q 595 127 578 119 q 621 142 612 136 l 621 370 l 422 370 l 422 478 l 747 478 l 747 90 m 356 981 l 356 1111 l 492 1111 l 492 981 l 356 981 z "},"ġ":{"ha":833,"x_min":97,"x_max":715,"o":"m 417 -288 q 310 -275 356 -288 q 230 -238 263 -262 q 175 -180 196 -214 q 146 -106 155 -147 l 271 -90 q 320 -168 282 -140 q 421 -195 359 -195 q 491 -184 460 -195 q 544 -147 522 -172 q 577 -81 566 -121 q 589 18 589 -40 l 589 150 l 588 150 q 555 97 575 123 q 507 52 535 71 q 441 20 479 32 q 355 8 404 8 q 237 31 286 8 q 157 98 189 53 q 112 212 126 144 q 97 372 97 281 q 112 530 97 461 q 158 647 126 600 q 242 720 191 695 q 368 745 294 745 q 502 710 445 745 q 589 608 558 674 l 591 608 q 592 646 591 625 q 594 686 593 667 q 596 718 595 705 q 599 734 598 732 l 715 734 q 713 713 714 728 q 712 678 713 699 q 711 633 711 658 q 711 582 711 608 l 711 22 q 639 -210 711 -132 q 417 -288 567 -288 m 589 374 q 573 504 589 450 q 530 591 557 557 q 469 640 503 625 q 399 654 435 654 q 320 639 353 654 q 265 590 287 624 q 233 504 243 557 q 223 374 223 450 q 233 241 223 294 q 265 157 243 189 q 319 112 286 125 q 397 98 352 98 q 467 113 433 98 q 529 160 502 127 q 573 245 556 193 q 589 374 589 298 m 343 876 l 343 1006 l 479 1006 l 479 876 l 343 876 z "},"Ģ":{"ha":833,"x_min":77,"x_max":748,"o":"m 747 90 q 690 56 722 74 q 618 22 658 37 q 533 -3 579 7 q 433 -14 486 -14 q 275 22 342 -14 q 164 121 208 58 q 98 271 120 184 q 77 462 77 358 q 98 662 77 575 q 163 809 119 749 q 275 899 207 868 q 435 929 342 929 q 554 911 503 929 q 643 864 606 894 q 706 792 681 833 q 748 705 732 751 l 632 667 q 559 782 606 741 q 437 823 512 823 q 333 800 376 823 q 263 731 290 777 q 225 617 237 685 q 213 462 213 550 q 270 186 213 280 q 444 92 328 92 q 505 97 477 92 q 556 111 533 103 q 595 127 578 119 q 621 142 612 136 l 621 370 l 422 370 l 422 478 l 747 478 l 747 90 m 322 -287 l 322 -264 l 376 -66 l 509 -66 l 509 -92 l 393 -287 l 322 -287 z "},"ģ":{"ha":833,"x_min":97,"x_max":715,"o":"m 417 -288 q 310 -275 356 -288 q 230 -238 263 -262 q 175 -180 196 -214 q 146 -106 155 -147 l 271 -90 q 320 -168 282 -140 q 421 -195 359 -195 q 491 -184 460 -195 q 544 -147 522 -172 q 577 -81 566 -121 q 589 18 589 -40 l 589 150 l 588 150 q 555 97 575 123 q 507 52 535 71 q 441 20 479 32 q 355 8 404 8 q 237 31 286 8 q 157 98 189 53 q 112 212 126 144 q 97 372 97 281 q 112 530 97 461 q 158 647 126 600 q 242 720 191 695 q 368 745 294 745 q 502 710 445 745 q 589 608 558 674 l 591 608 q 592 646 591 625 q 594 686 593 667 q 596 718 595 705 q 599 734 598 732 l 715 734 q 713 713 714 728 q 712 678 713 699 q 711 633 711 658 q 711 582 711 608 l 711 22 q 639 -210 711 -132 q 417 -288 567 -288 m 589 374 q 573 504 589 450 q 530 591 557 557 q 469 640 503 625 q 399 654 435 654 q 320 639 353 654 q 265 590 287 624 q 233 504 243 557 q 223 374 223 450 q 233 241 223 294 q 265 157 243 189 q 319 112 286 125 q 397 98 352 98 q 467 113 433 98 q 529 160 502 127 q 573 245 556 193 q 589 374 589 298 m 509 1042 l 509 1019 l 455 821 l 321 821 l 321 846 l 437 1042 l 509 1042 z "},"Ĥ":{"ha":833,"x_min":110,"x_max":723,"o":"m 593 0 l 593 422 l 239 422 l 239 0 l 110 0 l 110 915 l 239 915 l 239 531 l 593 531 l 593 915 l 723 915 l 723 0 l 593 0 m 641 994 l 641 981 l 570 981 l 421 1074 l 420 1074 l 262 981 l 192 981 l 192 994 l 364 1156 l 475 1156 l 641 994 z "},"ĥ":{"ha":833,"x_min":125,"x_max":711,"o":"m 125 915 l 248 915 l 248 701 q 246 633 248 667 q 242 568 244 599 l 244 568 q 282 625 260 600 q 332 669 304 651 q 395 697 359 687 q 474 707 431 707 q 574 692 530 707 q 649 646 618 677 q 695 566 680 614 q 711 448 711 517 l 711 0 l 589 0 l 589 431 q 577 520 589 485 q 546 575 566 555 q 499 604 526 596 q 439 612 472 612 q 365 597 399 612 q 303 553 330 582 q 262 482 277 524 q 248 385 248 439 l 248 0 l 125 0 l 125 915 m 641 994 l 641 980 l 570 980 l 421 1074 l 420 1074 l 262 980 l 192 980 l 192 994 l 364 1156 l 475 1156 l 641 994 z "},"Ħ":{"ha":833,"x_min":1,"x_max":831,"o":"m 110 782 l 110 915 l 239 915 l 239 782 l 593 782 l 593 915 l 723 915 l 723 782 l 831 782 l 831 682 l 723 682 l 723 0 l 593 0 l 593 422 l 239 422 l 239 0 l 110 0 l 110 682 l 1 682 l 1 782 l 110 782 m 593 531 l 593 682 l 239 682 l 239 531 l 593 531 z "},"ħ":{"ha":833,"x_min":36,"x_max":711,"o":"m 125 1006 l 248 1006 l 248 900 l 451 900 l 451 811 l 248 811 l 248 722 q 246 653 248 688 q 242 588 244 619 l 244 588 q 282 646 260 620 q 332 689 304 671 q 395 717 359 707 q 474 727 431 727 q 574 712 530 727 q 649 666 618 697 q 695 586 680 635 q 711 469 711 537 l 711 0 l 589 0 l 589 451 q 577 540 589 505 q 546 596 566 575 q 499 625 526 616 q 439 633 472 633 q 365 617 399 633 q 303 573 330 602 q 262 502 277 545 q 248 405 248 460 l 248 0 l 125 0 l 125 811 l 36 811 l 36 900 l 125 900 l 125 1006 z "},"Ĩ":{"ha":833,"x_min":137,"x_max":695,"o":"m 137 915 l 695 915 l 695 809 l 481 809 l 481 106 l 695 106 l 695 0 l 137 0 l 137 106 l 351 106 l 351 809 l 137 809 l 137 915 m 523 981 q 466 993 494 981 q 410 1021 437 1006 q 357 1049 383 1036 q 307 1061 331 1061 q 282 1056 292 1061 q 266 1040 272 1050 q 256 1015 259 1030 q 249 981 252 1000 l 174 981 q 184 1041 177 1011 q 206 1095 191 1071 q 246 1134 221 1119 q 311 1149 271 1149 q 370 1136 341 1149 q 425 1108 398 1124 q 477 1081 452 1093 q 525 1068 503 1068 q 551 1074 541 1068 q 568 1089 561 1079 q 578 1115 574 1100 q 584 1149 581 1130 l 660 1149 q 650 1089 656 1119 q 628 1035 643 1059 q 589 996 614 1011 q 523 981 564 981 z "},"ĩ":{"ha":833,"x_min":97,"x_max":763,"o":"m 505 96 l 763 96 l 763 0 l 97 0 l 97 96 l 383 96 l 383 637 l 167 637 l 167 734 l 505 734 l 505 96 m 522 814 q 465 827 494 814 q 410 855 437 840 q 356 883 382 870 q 307 895 330 895 q 281 890 291 895 q 265 874 271 884 q 255 849 258 864 q 248 814 252 834 l 173 814 q 183 875 176 845 q 205 929 190 905 q 245 968 220 953 q 311 983 271 983 q 369 970 340 983 q 425 942 397 958 q 477 915 452 927 q 524 902 502 902 q 550 907 540 902 q 567 923 560 913 q 577 949 574 934 q 583 983 581 964 l 659 983 q 649 923 656 953 q 628 869 642 893 q 588 830 613 845 q 522 814 563 814 z "},"Ī":{"ha":833,"x_min":137,"x_max":695,"o":"m 137 915 l 695 915 l 695 809 l 481 809 l 481 106 l 695 106 l 695 0 l 137 0 l 137 106 l 351 106 l 351 809 l 137 809 l 137 915 m 604 1019 l 230 1019 l 230 1105 l 604 1105 l 604 1019 z "},"ī":{"ha":833,"x_min":97,"x_max":763,"o":"m 505 96 l 763 96 l 763 0 l 97 0 l 97 96 l 383 96 l 383 637 l 167 637 l 167 734 l 505 734 l 505 96 m 608 838 l 234 838 l 234 924 l 608 924 l 608 838 z "},"Ĭ":{"ha":833,"x_min":137,"x_max":695,"o":"m 137 915 l 695 915 l 695 809 l 481 809 l 481 106 l 695 106 l 695 0 l 137 0 l 137 106 l 351 106 l 351 809 l 137 809 l 137 915 m 416 980 q 328 996 366 980 q 265 1037 291 1012 q 224 1094 239 1063 q 204 1156 210 1125 l 290 1156 q 331 1089 302 1113 q 416 1065 360 1065 q 502 1089 473 1065 q 543 1156 531 1113 l 629 1156 q 608 1094 623 1125 q 567 1037 593 1063 q 505 996 542 1012 q 416 980 467 980 z "},"ĭ":{"ha":833,"x_min":97,"x_max":763,"o":"m 505 96 l 763 96 l 763 0 l 97 0 l 97 96 l 383 96 l 383 637 l 167 637 l 167 734 l 505 734 l 505 96 m 429 814 q 342 830 379 814 q 279 872 304 846 q 238 928 253 897 q 218 990 223 960 l 304 990 q 345 924 315 947 q 429 900 374 900 q 516 924 487 900 q 556 990 545 947 l 642 990 q 621 928 636 960 q 581 872 606 897 q 518 830 555 846 q 429 814 481 814 z "},"Į":{"ha":833,"x_min":137,"x_max":695,"o":"m 137 915 l 695 915 l 695 809 l 481 809 l 481 106 l 695 106 l 695 0 l 137 0 l 137 106 l 351 106 l 351 809 l 137 809 l 137 915 m 545 -271 q 502 -284 526 -279 q 451 -290 478 -290 q 344 -255 380 -290 q 308 -163 308 -220 q 319 -104 308 -131 q 347 -57 331 -77 q 382 -22 363 -36 q 413 0 400 -7 l 503 0 q 469 -25 486 -9 q 436 -60 451 -40 q 413 -104 422 -80 q 404 -154 404 -127 q 420 -199 404 -182 q 467 -215 437 -215 q 507 -211 487 -215 q 545 -199 526 -206 l 545 -271 z "},"į":{"ha":833,"x_min":97,"x_max":763,"o":"m 505 96 l 763 96 l 763 0 l 97 0 l 97 96 l 383 96 l 383 637 l 167 637 l 167 734 l 505 734 l 505 96 m 370 876 l 370 1006 l 505 1006 l 505 876 l 370 876 m 574 -271 q 531 -284 555 -279 q 480 -290 507 -290 q 373 -255 409 -290 q 337 -163 337 -220 q 349 -104 337 -131 q 376 -57 360 -77 q 411 -22 393 -36 q 442 0 429 -7 l 532 0 q 498 -25 515 -9 q 466 -60 480 -40 q 442 -104 451 -80 q 433 -154 433 -127 q 449 -199 433 -182 q 496 -215 466 -215 q 536 -211 516 -215 q 574 -199 555 -206 l 574 -271 z "},"İ":{"ha":833,"x_min":137,"x_max":695,"o":"m 137 915 l 695 915 l 695 809 l 481 809 l 481 106 l 695 106 l 695 0 l 137 0 l 137 106 l 351 106 l 351 809 l 137 809 l 137 915 m 349 981 l 349 1111 l 485 1111 l 485 981 l 349 981 z "},"ı":{"ha":833,"x_min":97,"x_max":763,"o":"m 505 96 l 763 96 l 763 0 l 97 0 l 97 96 l 383 96 l 383 637 l 167 637 l 167 734 l 505 734 l 505 96 z "},"Ĳ":{"ha":833,"x_min":66,"x_max":785,"o":"m 66 915 l 196 915 l 196 0 l 66 0 l 66 915 m 521 92 q 624 140 591 92 q 656 282 656 189 l 656 809 l 472 809 l 472 915 l 785 915 l 785 285 q 768 162 785 217 q 719 67 752 106 q 636 7 686 28 q 520 -14 587 -14 q 418 1 463 -14 q 342 47 374 16 q 289 125 310 77 q 256 237 268 172 l 382 258 q 430 131 395 171 q 521 92 465 92 z "},"ĳ":{"ha":833,"x_min":146,"x_max":720,"o":"m 161 734 l 282 734 l 282 0 l 160 0 l 161 734 m 146 876 l 146 1006 l 282 1006 l 282 876 l 146 876 m 597 734 l 720 734 l 720 -19 q 695 -144 720 -93 q 631 -228 671 -195 q 538 -274 591 -260 q 427 -288 486 -288 q 372 -286 399 -288 q 318 -279 344 -283 q 270 -270 292 -275 q 232 -259 248 -265 l 232 -164 q 267 -172 247 -168 q 312 -179 288 -176 q 363 -185 336 -182 q 417 -187 390 -187 q 488 -178 455 -187 q 545 -148 521 -168 q 584 -95 570 -127 q 597 -17 597 -62 l 597 734 m 584 876 l 584 1006 l 720 1006 l 720 876 l 584 876 z "},"Ĵ":{"ha":833,"x_min":119,"x_max":722,"o":"m 669 285 q 651 162 669 217 q 600 67 634 106 q 515 7 566 28 q 397 -14 464 -14 q 212 47 281 -14 q 119 237 143 107 l 246 258 q 267 183 253 215 q 301 132 281 152 q 346 101 321 111 q 398 92 370 92 q 504 140 469 92 q 540 282 540 189 l 540 809 l 329 809 l 329 915 l 669 915 l 669 285 m 722 994 l 722 981 l 651 981 l 503 1074 l 501 1074 l 344 981 l 273 981 l 273 994 l 446 1156 l 557 1156 l 722 994 z "},"ĵ":{"ha":833,"x_min":144,"x_max":711,"o":"m 632 -19 q 608 -144 632 -93 q 544 -228 584 -195 q 451 -274 504 -260 q 340 -288 398 -288 q 284 -286 312 -288 q 231 -279 256 -283 q 183 -270 205 -275 q 144 -259 161 -265 l 144 -164 q 180 -172 159 -168 q 224 -179 200 -176 q 276 -185 249 -182 q 330 -187 302 -187 q 400 -178 368 -187 q 458 -148 433 -168 q 496 -95 482 -127 q 510 -17 510 -62 l 510 637 l 234 637 l 234 734 l 632 734 l 632 -19 m 711 828 l 711 814 l 640 814 l 491 908 l 490 908 l 332 814 l 262 814 l 262 828 l 434 990 l 545 990 l 711 828 z "},"Ķ":{"ha":833,"x_min":110,"x_max":832,"o":"m 680 0 l 350 433 l 239 318 l 239 0 l 110 0 l 110 915 l 239 915 l 239 458 l 627 915 l 780 915 l 438 527 l 832 0 l 680 0 m 322 -287 l 322 -264 l 376 -66 l 509 -66 l 509 -92 l 393 -287 l 322 -287 z "},"ķ":{"ha":833,"x_min":160,"x_max":763,"o":"m 620 0 l 372 338 l 282 272 l 282 0 l 160 0 l 160 1006 l 282 1006 l 282 378 l 604 734 l 747 734 l 450 418 l 763 0 l 620 0 m 322 -287 l 322 -264 l 376 -66 l 509 -66 l 509 -92 l 393 -287 l 322 -287 z "},"ĸ":{"ha":833,"x_min":160,"x_max":763,"o":"m 620 0 l 372 335 l 282 269 l 282 0 l 160 0 l 160 734 l 282 734 l 282 369 l 604 734 l 747 734 l 450 418 l 763 0 l 620 0 z "},"Ĺ":{"ha":833,"x_min":161,"x_max":746,"o":"m 161 0 l 161 915 l 290 915 l 290 106 l 746 106 l 746 0 l 161 0 m 206 981 l 206 994 l 360 1156 l 494 1156 l 494 1137 l 290 981 l 206 981 z "},"ĺ":{"ha":833,"x_min":91,"x_max":757,"o":"m 499 96 l 757 96 l 757 0 l 91 0 l 91 96 l 377 96 l 377 819 l 181 819 l 181 915 l 499 915 l 499 96 m 360 980 l 360 994 l 514 1156 l 648 1156 l 648 1137 l 444 980 l 360 980 z "},"Ļ":{"ha":833,"x_min":161,"x_max":746,"o":"m 161 0 l 161 915 l 290 915 l 290 106 l 746 106 l 746 0 l 161 0 m 329 -287 l 329 -264 l 382 -66 l 516 -66 l 516 -92 l 400 -287 l 329 -287 z "},"ļ":{"ha":833,"x_min":91,"x_max":757,"o":"m 499 96 l 757 96 l 757 0 l 91 0 l 91 96 l 377 96 l 377 910 l 181 910 l 181 1006 l 499 1006 l 499 96 m 322 -287 l 322 -264 l 376 -66 l 509 -66 l 509 -92 l 393 -287 l 322 -287 z "},"Ľ":{"ha":833,"x_min":161,"x_max":746,"o":"m 161 0 l 161 915 l 290 915 l 290 106 l 746 106 l 746 0 l 161 0 m 526 694 l 526 717 l 579 915 l 713 915 l 713 890 l 597 694 l 526 694 z "},"ľ":{"ha":833,"x_min":58,"x_max":794,"o":"m 466 96 l 724 96 l 724 0 l 58 0 l 58 96 l 344 96 l 344 910 l 148 910 l 148 1006 l 466 1006 l 466 96 m 607 786 l 607 808 l 661 1006 l 794 1006 l 794 981 l 678 786 l 607 786 z "},"Ŀ":{"ha":833,"x_min":161,"x_max":746,"o":"m 161 0 l 161 915 l 290 915 l 290 106 l 746 106 l 746 0 l 161 0 m 455 412 l 455 543 l 591 543 l 591 412 l 455 412 z "},"ŀ":{"ha":833,"x_min":91,"x_max":767,"o":"m 499 96 l 757 96 l 757 0 l 91 0 l 91 96 l 377 96 l 377 910 l 181 910 l 181 1006 l 499 1006 l 499 96 m 631 412 l 631 543 l 767 543 l 767 412 l 631 412 z "},"Ł":{"ha":833,"x_min":37,"x_max":746,"o":"m 161 0 l 161 311 l 81 269 l 37 351 l 161 416 l 161 915 l 290 915 l 290 484 l 488 586 l 530 504 l 290 378 l 290 106 l 746 106 l 746 0 l 161 0 z "},"ł":{"ha":833,"x_min":91,"x_max":757,"o":"m 499 600 l 652 687 l 694 610 l 499 499 l 499 96 l 757 96 l 757 0 l 91 0 l 91 96 l 377 96 l 377 431 l 229 347 l 186 423 l 377 531 l 377 910 l 147 910 l 147 1006 l 499 1006 l 499 600 z "},"Ń":{"ha":833,"x_min":110,"x_max":723,"o":"m 567 0 l 214 766 q 220 707 217 737 q 223 651 222 681 q 225 594 225 621 l 225 0 l 110 0 l 110 915 l 260 915 l 618 143 q 612 201 615 170 q 608 261 610 228 q 606 329 606 294 l 606 915 l 723 915 l 723 0 l 567 0 m 355 981 l 355 994 l 509 1156 l 643 1156 l 643 1137 l 439 981 l 355 981 z "},"ń":{"ha":833,"x_min":121,"x_max":711,"o":"m 589 0 l 589 471 q 577 561 589 526 q 546 616 566 595 q 499 645 526 637 q 439 653 472 653 q 365 638 399 653 q 303 594 330 623 q 262 523 277 565 q 248 425 248 480 l 248 0 l 125 0 l 125 577 q 125 626 125 600 q 124 674 125 651 q 123 713 123 696 q 121 734 122 729 l 237 734 q 238 715 237 730 q 240 681 239 701 q 241 642 241 662 q 242 608 242 622 l 244 608 q 282 666 260 640 q 333 710 304 692 q 398 738 362 728 q 479 747 434 747 q 578 732 535 747 q 651 686 622 718 q 696 606 681 655 q 711 489 711 557 l 711 0 l 589 0 m 366 814 l 366 828 l 519 990 l 653 990 l 653 970 l 450 814 l 366 814 z "},"Ņ":{"ha":833,"x_min":110,"x_max":723,"o":"m 567 0 l 214 766 q 220 707 217 737 q 223 651 222 681 q 225 594 225 621 l 225 0 l 110 0 l 110 915 l 260 915 l 618 143 q 612 201 615 170 q 608 261 610 228 q 606 329 606 294 l 606 915 l 723 915 l 723 0 l 567 0 m 301 -287 l 301 -264 l 355 -66 l 488 -66 l 488 -92 l 372 -287 l 301 -287 z "},"ņ":{"ha":833,"x_min":121,"x_max":711,"o":"m 589 0 l 589 471 q 577 561 589 526 q 546 616 566 595 q 499 645 526 637 q 439 653 472 653 q 365 638 399 653 q 303 594 330 623 q 262 523 277 565 q 248 425 248 480 l 248 0 l 125 0 l 125 577 q 125 626 125 600 q 124 674 125 651 q 123 713 123 696 q 121 734 122 729 l 237 734 q 238 715 237 730 q 240 681 239 701 q 241 642 241 662 q 242 608 242 622 l 244 608 q 282 666 260 640 q 333 710 304 692 q 398 738 362 728 q 479 747 434 747 q 578 732 535 747 q 651 686 622 718 q 696 606 681 655 q 711 489 711 557 l 711 0 l 589 0 m 304 -287 l 304 -264 l 357 -66 l 491 -66 l 491 -92 l 375 -287 l 304 -287 z "},"Ň":{"ha":833,"x_min":110,"x_max":723,"o":"m 567 0 l 214 766 q 220 707 217 737 q 223 651 222 681 q 225 594 225 621 l 225 0 l 110 0 l 110 915 l 260 915 l 618 143 q 612 201 615 170 q 608 261 610 228 q 606 329 606 294 l 606 915 l 723 915 l 723 0 l 567 0 m 479 981 l 368 981 l 196 1143 l 196 1156 l 267 1156 l 424 1063 l 425 1063 l 574 1156 l 645 1156 l 645 1143 l 479 981 z "},"ň":{"ha":833,"x_min":121,"x_max":711,"o":"m 589 0 l 589 471 q 577 561 589 526 q 546 616 566 595 q 499 645 526 637 q 439 653 472 653 q 365 638 399 653 q 303 594 330 623 q 262 523 277 565 q 248 425 248 480 l 248 0 l 125 0 l 125 577 q 125 626 125 600 q 124 674 125 651 q 123 713 123 696 q 121 734 122 729 l 237 734 q 238 715 237 730 q 240 681 239 701 q 241 642 241 662 q 242 608 242 622 l 244 608 q 282 666 260 640 q 333 710 304 692 q 398 738 362 728 q 479 747 434 747 q 578 732 535 747 q 651 686 622 718 q 696 606 681 655 q 711 489 711 557 l 711 0 l 589 0 m 475 814 l 364 814 l 192 977 l 192 990 l 262 990 l 420 897 l 421 897 l 570 990 l 641 990 l 641 977 l 475 814 z "},"ŉ":{"ha":833,"x_min":3,"x_max":783,"o":"m 660 0 l 660 471 q 649 561 660 526 q 617 616 637 595 q 570 645 597 637 q 511 653 543 653 q 436 638 471 653 q 375 594 401 623 q 334 523 349 565 q 319 425 319 480 l 319 0 l 197 0 l 197 577 q 196 626 197 600 q 195 674 196 651 q 194 713 195 696 q 193 734 193 729 l 308 734 q 309 715 309 730 q 311 681 310 701 q 313 642 312 662 q 313 608 313 622 l 315 608 q 354 666 332 640 q 405 710 376 692 q 469 738 433 728 q 550 747 505 747 q 650 732 606 747 q 723 686 693 718 q 767 606 752 655 q 783 489 783 557 l 783 0 l 660 0 m 3 695 l 3 718 l 57 916 l 191 916 l 191 890 l 75 695 l 3 695 z "},"Ŋ":{"ha":833,"x_min":121,"x_max":752,"o":"m 752 368 q 742 209 752 279 q 705 89 731 138 q 634 13 679 39 q 522 -14 590 -14 q 450 -5 480 -14 q 398 18 420 3 q 359 51 376 32 q 329 90 343 69 l 418 157 q 438 131 428 143 q 461 110 448 119 q 489 95 473 100 q 526 90 505 90 q 577 110 557 90 q 609 166 597 130 q 625 254 621 202 q 629 370 629 306 l 629 653 q 617 742 629 707 q 583 798 605 777 q 531 827 561 819 q 467 835 501 835 q 382 820 422 835 q 312 775 342 804 q 265 704 282 747 q 248 607 248 662 l 248 0 l 125 0 l 125 759 q 125 807 125 782 q 124 856 125 833 q 123 895 123 878 q 121 916 122 911 l 237 916 q 238 897 237 912 q 240 863 239 882 q 241 824 241 844 q 242 790 242 804 l 244 790 q 342 892 277 854 q 506 929 406 929 q 611 914 565 929 q 688 868 656 899 q 736 788 720 837 q 752 671 752 739 l 752 368 z "},"ŋ":{"ha":833,"x_min":121,"x_max":711,"o":"m 439 653 q 365 638 399 653 q 303 594 330 623 q 262 523 277 565 q 248 425 248 480 l 248 0 l 125 0 l 125 577 q 125 626 125 600 q 124 674 125 651 q 123 713 123 696 q 121 734 122 729 l 237 734 q 238 715 237 730 q 240 681 239 701 q 241 642 241 662 q 242 608 242 622 l 244 608 q 282 666 260 640 q 333 710 304 692 q 398 738 362 728 q 479 747 434 747 q 578 732 535 747 q 651 686 622 718 q 696 606 681 655 q 711 489 711 557 l 711 -91 q 704 -169 711 -133 q 678 -231 696 -205 q 628 -273 660 -258 q 548 -288 597 -288 q 503 -287 525 -288 q 462 -282 481 -286 l 462 -188 q 483 -191 471 -189 q 504 -192 495 -192 q 546 -185 530 -192 q 572 -164 563 -178 q 585 -126 582 -149 q 589 -73 589 -104 l 589 471 q 577 561 589 526 q 546 616 566 595 q 499 645 526 637 q 439 653 472 653 z "},"Ō":{"ha":833,"x_min":69,"x_max":764,"o":"m 764 462 q 740 256 764 345 q 671 107 716 167 q 562 17 627 47 q 416 -14 497 -14 q 264 18 330 -14 q 156 111 199 50 q 91 260 113 172 q 69 462 69 349 q 92 667 69 579 q 159 812 115 754 q 268 900 203 871 q 417 929 333 929 q 674 811 585 929 q 764 462 764 694 m 627 462 q 574 734 627 645 q 417 823 520 823 q 258 734 311 823 q 205 462 205 645 q 259 185 205 279 q 416 92 313 92 q 577 186 527 92 q 627 462 627 281 m 604 1019 l 230 1019 l 230 1105 l 604 1105 l 604 1019 z "},"ō":{"ha":833,"x_min":88,"x_max":744,"o":"m 744 368 q 721 200 744 271 q 656 81 699 128 q 552 10 613 33 q 413 -14 490 -14 q 279 9 339 -14 q 177 80 219 33 q 111 199 134 127 q 88 368 88 271 q 174 652 88 557 q 417 747 260 747 q 663 653 583 747 q 744 368 744 559 m 616 368 q 601 509 616 453 q 561 597 587 564 q 498 644 534 631 q 419 657 463 657 q 338 643 375 657 q 274 596 300 629 q 232 507 247 562 q 216 368 216 451 q 232 226 216 282 q 275 137 248 170 q 337 90 302 104 q 412 77 373 77 q 493 90 456 77 q 558 136 531 103 q 601 226 585 170 q 616 368 616 282 m 604 838 l 230 838 l 230 924 l 604 924 l 604 838 z "},"Ŏ":{"ha":833,"x_min":69,"x_max":764,"o":"m 764 462 q 740 256 764 345 q 671 107 716 167 q 562 17 627 47 q 416 -14 497 -14 q 264 18 330 -14 q 156 111 199 50 q 91 260 113 172 q 69 462 69 349 q 92 667 69 579 q 159 812 115 754 q 268 900 203 871 q 417 929 333 929 q 674 811 585 929 q 764 462 764 694 m 627 462 q 574 734 627 645 q 417 823 520 823 q 258 734 311 823 q 205 462 205 645 q 259 185 205 279 q 416 92 313 92 q 577 186 527 92 q 627 462 627 281 m 416 981 q 328 997 366 981 q 265 1038 291 1013 q 224 1095 239 1063 q 204 1156 210 1126 l 290 1156 q 331 1090 302 1114 q 416 1066 360 1066 q 502 1090 473 1066 q 543 1156 531 1114 l 629 1156 q 608 1095 623 1126 q 567 1038 593 1063 q 505 997 542 1013 q 416 981 467 981 z "},"ŏ":{"ha":833,"x_min":88,"x_max":744,"o":"m 744 368 q 721 200 744 271 q 656 81 699 128 q 552 10 613 33 q 413 -14 490 -14 q 279 9 339 -14 q 177 80 219 33 q 111 199 134 127 q 88 368 88 271 q 174 652 88 557 q 417 747 260 747 q 663 653 583 747 q 744 368 744 559 m 616 368 q 601 509 616 453 q 561 597 587 564 q 498 644 534 631 q 419 657 463 657 q 338 643 375 657 q 274 596 300 629 q 232 507 247 562 q 216 368 216 451 q 232 226 216 282 q 275 137 248 170 q 337 90 302 104 q 412 77 373 77 q 493 90 456 77 q 558 136 531 103 q 601 226 585 170 q 616 368 616 282 m 416 814 q 328 830 366 814 q 265 872 291 846 q 224 928 239 897 q 204 990 210 960 l 290 990 q 331 924 302 947 q 416 900 360 900 q 502 924 473 900 q 543 990 531 947 l 629 990 q 608 928 623 960 q 567 872 593 897 q 505 830 542 846 q 416 814 467 814 z "},"Ő":{"ha":833,"x_min":69,"x_max":764,"o":"m 764 462 q 740 256 764 345 q 671 107 716 167 q 562 17 627 47 q 416 -14 497 -14 q 264 18 330 -14 q 156 111 199 50 q 91 260 113 172 q 69 462 69 349 q 92 667 69 579 q 159 812 115 754 q 268 900 203 871 q 417 929 333 929 q 674 811 585 929 q 764 462 764 694 m 627 462 q 574 734 627 645 q 417 823 520 823 q 258 734 311 823 q 205 462 205 645 q 259 185 205 279 q 416 92 313 92 q 577 186 527 92 q 627 462 627 281 m 471 980 l 471 994 l 611 1156 l 738 1156 l 738 1136 l 534 980 l 471 980 m 224 980 l 224 994 l 364 1156 l 491 1156 l 491 1136 l 288 980 l 224 980 z "},"ő":{"ha":833,"x_min":88,"x_max":751,"o":"m 744 368 q 721 200 744 271 q 656 81 699 128 q 552 10 613 33 q 413 -14 490 -14 q 279 9 339 -14 q 177 80 219 33 q 111 199 134 127 q 88 368 88 271 q 174 652 88 557 q 417 747 260 747 q 663 653 583 747 q 744 368 744 559 m 616 368 q 601 509 616 453 q 561 597 587 564 q 498 644 534 631 q 419 657 463 657 q 338 643 375 657 q 274 596 300 629 q 232 507 247 562 q 216 368 216 451 q 232 226 216 282 q 275 137 248 170 q 337 90 302 104 q 412 77 373 77 q 493 90 456 77 q 558 136 531 103 q 601 226 585 170 q 616 368 616 282 m 484 814 l 484 828 l 624 990 l 751 990 l 751 970 l 547 814 l 484 814 m 237 814 l 237 828 l 377 990 l 504 990 l 504 970 l 300 814 l 237 814 z "},"Œ":{"ha":833,"x_min":14,"x_max":828,"o":"m 413 0 q 381 -2 397 -1 q 347 -3 364 -3 q 94 111 174 -3 q 14 462 14 226 q 34 671 14 584 q 97 812 55 758 q 201 893 138 867 q 348 919 264 919 q 422 915 387 919 l 800 915 l 800 812 l 530 812 l 530 513 l 779 513 l 779 412 l 530 412 l 530 103 l 828 103 l 828 0 l 413 0 m 347 95 q 382 96 362 95 q 415 99 402 96 l 415 816 q 382 819 402 818 q 348 820 362 820 q 255 800 295 820 q 189 738 216 781 q 150 627 163 694 q 136 462 136 559 q 150 296 136 366 q 190 182 163 227 q 256 116 217 138 q 347 95 296 95 z "},"œ":{"ha":833,"x_min":19,"x_max":817,"o":"m 483 341 q 489 235 483 283 q 510 152 496 186 q 545 97 524 117 q 597 78 567 78 q 667 110 641 78 q 703 191 694 142 l 797 160 q 776 99 789 130 q 739 43 762 68 q 682 2 716 18 q 598 -14 647 -14 q 420 111 475 -14 q 346 17 391 47 q 239 -14 301 -14 q 148 9 189 -14 q 78 80 107 33 q 34 199 50 127 q 19 368 19 271 q 77 652 19 557 q 244 747 134 747 q 425 627 371 747 q 500 719 455 691 q 600 747 545 747 q 704 718 662 747 q 770 635 745 688 q 806 511 795 583 q 817 357 817 440 l 817 341 l 483 341 m 368 368 q 360 509 368 453 q 337 597 352 564 q 301 644 322 631 q 253 657 279 657 q 204 643 227 657 q 166 596 182 629 q 142 507 151 562 q 134 368 134 451 q 143 226 134 282 q 168 137 152 170 q 204 90 183 104 q 249 77 225 77 q 298 90 276 77 q 336 136 320 103 q 360 226 351 170 q 368 368 368 282 m 593 657 q 558 647 576 657 q 523 612 539 637 q 496 544 507 587 q 484 435 486 501 l 704 435 q 671 604 699 551 q 593 657 644 657 z "},"Ŕ":{"ha":833,"x_min":110,"x_max":798,"o":"m 649 0 l 401 390 l 239 390 l 239 0 l 110 0 l 110 915 l 437 915 q 579 898 518 915 q 680 847 640 880 q 740 768 720 814 q 760 662 760 721 q 747 578 760 620 q 705 502 734 536 q 633 441 677 467 q 527 405 589 415 l 798 0 l 649 0 m 630 660 q 424 811 630 811 l 239 811 l 239 492 l 429 492 q 524 506 486 492 q 586 542 562 519 q 620 595 609 565 q 630 660 630 626 m 321 981 l 321 994 l 475 1156 l 609 1156 l 609 1137 l 406 981 l 321 981 z "},"ŕ":{"ha":833,"x_min":164,"x_max":709,"o":"m 709 623 q 642 632 677 628 q 565 635 607 635 q 463 612 508 635 q 386 550 417 589 q 338 457 355 510 q 321 345 321 404 l 321 0 l 199 0 l 199 475 q 195 553 199 513 q 186 627 191 592 q 174 690 180 662 q 164 734 168 718 l 280 734 q 290 696 285 718 q 300 653 295 675 q 308 607 304 630 q 313 564 311 584 l 316 564 q 356 640 335 606 q 406 698 377 674 q 474 734 435 722 q 569 747 513 747 q 644 744 607 747 q 709 736 680 741 l 709 623 m 333 814 l 333 828 l 487 990 l 621 990 l 621 970 l 417 814 l 333 814 z "},"Ŗ":{"ha":833,"x_min":110,"x_max":798,"o":"m 649 0 l 401 390 l 239 390 l 239 0 l 110 0 l 110 915 l 437 915 q 579 898 518 915 q 680 847 640 880 q 740 768 720 814 q 760 662 760 721 q 747 578 760 620 q 705 502 734 536 q 633 441 677 467 q 527 405 589 415 l 798 0 l 649 0 m 630 660 q 424 811 630 811 l 239 811 l 239 492 l 429 492 q 524 506 486 492 q 586 542 562 519 q 620 595 609 565 q 630 660 630 626 m 320 -287 l 320 -264 l 374 -66 l 507 -66 l 507 -92 l 391 -287 l 320 -287 z "},"ŗ":{"ha":833,"x_min":138,"x_max":709,"o":"m 709 623 q 642 632 677 628 q 565 635 607 635 q 463 612 508 635 q 386 550 417 589 q 338 457 355 510 q 321 345 321 404 l 321 0 l 199 0 l 199 475 q 195 553 199 513 q 186 627 191 592 q 174 690 180 662 q 164 734 168 718 l 280 734 q 290 696 285 718 q 300 653 295 675 q 308 607 304 630 q 313 564 311 584 l 316 564 q 356 640 335 606 q 406 698 377 674 q 474 734 435 722 q 569 747 513 747 q 644 744 607 747 q 709 736 680 741 l 709 623 m 138 -287 l 138 -264 l 191 -66 l 325 -66 l 325 -92 l 209 -287 l 138 -287 z "},"Ř":{"ha":833,"x_min":110,"x_max":798,"o":"m 649 0 l 401 390 l 239 390 l 239 0 l 110 0 l 110 915 l 437 915 q 579 898 518 915 q 680 847 640 880 q 740 768 720 814 q 760 662 760 721 q 747 578 760 620 q 705 502 734 536 q 633 441 677 467 q 527 405 589 415 l 798 0 l 649 0 m 630 660 q 424 811 630 811 l 239 811 l 239 492 l 429 492 q 524 506 486 492 q 586 542 562 519 q 620 595 609 565 q 630 660 630 626 m 463 981 l 351 981 l 179 1143 l 179 1156 l 250 1156 l 407 1063 l 408 1063 l 557 1156 l 628 1156 l 628 1143 l 463 981 z "},"ř":{"ha":833,"x_min":164,"x_max":709,"o":"m 709 623 q 642 632 677 628 q 565 635 607 635 q 463 612 508 635 q 386 550 417 589 q 338 457 355 510 q 321 345 321 404 l 321 0 l 199 0 l 199 475 q 195 553 199 513 q 186 627 191 592 q 174 690 180 662 q 164 734 168 718 l 280 734 q 290 696 285 718 q 300 653 295 675 q 308 607 304 630 q 313 564 311 584 l 316 564 q 356 640 335 606 q 406 698 377 674 q 474 734 435 722 q 569 747 513 747 q 644 744 607 747 q 709 736 680 741 l 709 623 m 489 814 l 378 814 l 205 977 l 205 990 l 276 990 l 433 897 l 435 897 l 583 990 l 654 990 l 654 977 l 489 814 z "},"Ś":{"ha":833,"x_min":54,"x_max":765,"o":"m 765 251 q 744 145 765 193 q 680 61 723 96 q 571 6 637 26 q 414 -14 505 -14 q 166 49 255 -14 q 54 229 78 111 l 179 254 q 203 186 187 217 q 248 134 220 156 q 318 100 277 112 q 417 87 359 87 q 506 97 466 87 q 575 125 547 106 q 621 176 604 145 q 637 249 637 206 q 615 326 637 296 q 557 375 593 356 q 476 406 521 394 q 385 429 431 418 q 316 448 351 438 q 250 471 281 458 q 190 502 218 484 q 142 546 163 520 q 110 605 121 571 q 98 685 98 640 q 123 797 98 750 q 190 872 147 843 q 291 916 233 902 q 417 929 349 929 q 551 915 496 929 q 645 873 606 901 q 706 805 683 846 q 743 709 729 764 l 615 687 q 593 749 608 722 q 554 794 578 776 q 496 822 530 812 q 416 831 463 831 q 326 820 362 831 q 267 790 289 809 q 234 744 244 770 q 224 687 224 718 q 242 621 224 646 q 291 579 260 595 q 363 551 322 562 q 451 528 404 541 q 526 508 488 519 q 599 484 564 498 q 664 450 634 469 q 717 403 694 431 q 752 338 739 375 q 765 251 765 300 m 354 981 l 354 994 l 508 1156 l 642 1156 l 642 1137 l 438 981 l 354 981 z "},"ś":{"ha":833,"x_min":113,"x_max":719,"o":"m 719 210 q 699 117 719 158 q 641 46 679 75 q 548 2 603 18 q 421 -14 492 -14 q 306 -4 357 -14 q 216 26 255 5 q 152 82 178 47 q 113 168 125 117 l 221 189 q 247 130 229 152 q 291 96 265 108 q 349 81 316 85 q 421 77 382 77 q 494 83 460 77 q 552 103 528 89 q 590 139 576 117 q 604 193 604 161 q 587 248 604 227 q 540 283 570 269 q 469 307 510 297 q 380 330 428 317 q 294 355 336 342 q 217 391 251 369 q 163 447 184 413 q 142 533 142 481 q 214 689 142 633 q 422 745 286 745 q 523 735 476 745 q 606 704 570 726 q 668 649 643 683 q 702 569 692 616 l 592 555 q 572 605 587 586 q 533 635 556 624 q 482 650 511 646 q 422 654 454 654 q 256 552 256 654 q 271 502 256 521 q 312 469 286 482 q 375 447 338 456 q 456 427 412 438 q 546 401 500 416 q 631 363 593 387 q 694 303 669 340 q 719 210 719 266 m 331 814 l 331 828 l 485 990 l 618 990 l 618 970 l 415 814 l 331 814 z "},"Ŝ":{"ha":833,"x_min":54,"x_max":765,"o":"m 765 251 q 744 145 765 193 q 680 61 723 96 q 571 6 637 26 q 414 -14 505 -14 q 166 49 255 -14 q 54 229 78 111 l 179 254 q 203 186 187 217 q 248 134 220 156 q 318 100 277 112 q 417 87 359 87 q 506 97 466 87 q 575 125 547 106 q 621 176 604 145 q 637 249 637 206 q 615 326 637 296 q 557 375 593 356 q 476 406 521 394 q 385 429 431 418 q 316 448 351 438 q 250 471 281 458 q 190 502 218 484 q 142 546 163 520 q 110 605 121 571 q 98 685 98 640 q 123 797 98 750 q 190 872 147 843 q 291 916 233 902 q 417 929 349 929 q 551 915 496 929 q 645 873 606 901 q 706 805 683 846 q 743 709 729 764 l 615 687 q 593 749 608 722 q 554 794 578 776 q 496 822 530 812 q 416 831 463 831 q 326 820 362 831 q 267 790 289 809 q 234 744 244 770 q 224 687 224 718 q 242 621 224 646 q 291 579 260 595 q 363 551 322 562 q 451 528 404 541 q 526 508 488 519 q 599 484 564 498 q 664 450 634 469 q 717 403 694 431 q 752 338 739 375 q 765 251 765 300 m 644 994 l 644 981 l 572 981 l 424 1074 l 422 1074 l 265 981 l 195 981 l 195 994 l 367 1156 l 478 1156 l 644 994 z "},"ŝ":{"ha":833,"x_min":113,"x_max":719,"o":"m 719 210 q 699 117 719 158 q 641 46 679 75 q 548 2 603 18 q 421 -14 492 -14 q 306 -4 357 -14 q 216 26 255 5 q 152 82 178 47 q 113 168 125 117 l 221 189 q 247 130 229 152 q 291 96 265 108 q 349 81 316 85 q 421 77 382 77 q 494 83 460 77 q 552 103 528 89 q 590 139 576 117 q 604 193 604 161 q 587 248 604 227 q 540 283 570 269 q 469 307 510 297 q 380 330 428 317 q 294 355 336 342 q 217 391 251 369 q 163 447 184 413 q 142 533 142 481 q 214 689 142 633 q 422 745 286 745 q 523 735 476 745 q 606 704 570 726 q 668 649 643 683 q 702 569 692 616 l 592 555 q 572 605 587 586 q 533 635 556 624 q 482 650 511 646 q 422 654 454 654 q 256 552 256 654 q 271 502 256 521 q 312 469 286 482 q 375 447 338 456 q 456 427 412 438 q 546 401 500 416 q 631 363 593 387 q 694 303 669 340 q 719 210 719 266 m 651 828 l 651 814 l 580 814 l 431 908 l 430 908 l 273 814 l 202 814 l 202 828 l 374 990 l 486 990 l 651 828 z "},"Ş":{"ha":833,"x_min":54,"x_max":765,"o":"m 765 251 q 744 145 765 193 q 680 61 723 96 q 571 6 637 26 q 414 -14 505 -14 q 166 49 255 -14 q 54 229 78 111 l 179 254 q 203 186 187 217 q 248 134 220 156 q 318 100 277 112 q 417 87 359 87 q 506 97 466 87 q 575 125 547 106 q 621 176 604 145 q 637 249 637 206 q 615 326 637 296 q 557 375 593 356 q 476 406 521 394 q 385 429 431 418 q 316 448 351 438 q 250 471 281 458 q 190 502 218 484 q 142 546 163 520 q 110 605 121 571 q 98 685 98 640 q 123 797 98 750 q 190 872 147 843 q 291 916 233 902 q 417 929 349 929 q 551 915 496 929 q 645 873 606 901 q 706 805 683 846 q 743 709 729 764 l 615 687 q 593 749 608 722 q 554 794 578 776 q 496 822 530 812 q 416 831 463 831 q 326 820 362 831 q 267 790 289 809 q 234 744 244 770 q 224 687 224 718 q 242 621 224 646 q 291 579 260 595 q 363 551 322 562 q 451 528 404 541 q 526 508 488 519 q 599 484 564 498 q 664 450 634 469 q 717 403 694 431 q 752 338 739 375 q 765 251 765 300 m 553 -175 q 543 -227 553 -203 q 510 -267 532 -250 q 453 -292 488 -283 q 367 -301 418 -301 q 338 -301 353 -301 q 306 -298 323 -300 l 306 -232 q 364 -236 340 -236 q 411 -232 392 -236 q 442 -220 431 -227 q 459 -201 454 -212 q 464 -178 464 -191 q 443 -136 464 -151 q 374 -122 422 -122 q 354 -122 364 -122 q 335 -123 345 -122 l 379 0 l 452 0 l 425 -68 q 521 -98 489 -70 q 553 -175 553 -126 z "},"ş":{"ha":833,"x_min":113,"x_max":719,"o":"m 719 210 q 699 117 719 158 q 641 46 679 75 q 548 2 603 18 q 421 -14 492 -14 q 306 -4 357 -14 q 216 26 255 5 q 152 82 178 47 q 113 168 125 117 l 221 189 q 247 130 229 152 q 291 96 265 108 q 349 81 316 85 q 421 77 382 77 q 494 83 460 77 q 552 103 528 89 q 590 139 576 117 q 604 193 604 161 q 587 248 604 227 q 540 283 570 269 q 469 307 510 297 q 380 330 428 317 q 294 355 336 342 q 217 391 251 369 q 163 447 184 413 q 142 533 142 481 q 214 689 142 633 q 422 745 286 745 q 523 735 476 745 q 606 704 570 726 q 668 649 643 683 q 702 569 692 616 l 592 555 q 572 605 587 586 q 533 635 556 624 q 482 650 511 646 q 422 654 454 654 q 256 552 256 654 q 271 502 256 521 q 312 469 286 482 q 375 447 338 456 q 456 427 412 438 q 546 401 500 416 q 631 363 593 387 q 694 303 669 340 q 719 210 719 266 m 559 -175 q 549 -227 559 -203 q 517 -267 539 -250 q 460 -292 495 -283 q 374 -301 425 -301 q 345 -301 360 -301 q 313 -298 330 -300 l 313 -232 q 371 -236 347 -236 q 418 -232 399 -236 q 449 -220 437 -227 q 466 -201 460 -212 q 471 -178 471 -191 q 450 -136 471 -151 q 380 -122 429 -122 q 361 -122 371 -122 q 342 -123 351 -122 l 386 0 l 458 0 l 432 -68 q 528 -98 496 -70 q 559 -175 559 -126 z "},"Š":{"ha":833,"x_min":54,"x_max":765,"o":"m 765 251 q 744 145 765 193 q 680 61 723 96 q 571 6 637 26 q 414 -14 505 -14 q 166 49 255 -14 q 54 229 78 111 l 179 254 q 203 186 187 217 q 248 134 220 156 q 318 100 277 112 q 417 87 359 87 q 506 97 466 87 q 575 125 547 106 q 621 176 604 145 q 637 249 637 206 q 615 326 637 296 q 557 375 593 356 q 476 406 521 394 q 385 429 431 418 q 316 448 351 438 q 250 471 281 458 q 190 502 218 484 q 142 546 163 520 q 110 605 121 571 q 98 685 98 640 q 123 797 98 750 q 190 872 147 843 q 291 916 233 902 q 417 929 349 929 q 551 915 496 929 q 645 873 606 901 q 706 805 683 846 q 743 709 729 764 l 615 687 q 593 749 608 722 q 554 794 578 776 q 496 822 530 812 q 416 831 463 831 q 326 820 362 831 q 267 790 289 809 q 234 744 244 770 q 224 687 224 718 q 242 621 224 646 q 291 579 260 595 q 363 551 322 562 q 451 528 404 541 q 526 508 488 519 q 599 484 564 498 q 664 450 634 469 q 717 403 694 431 q 752 338 739 375 q 765 251 765 300 m 475 980 l 364 980 l 192 1142 l 192 1156 l 262 1156 l 420 1062 l 421 1062 l 570 1156 l 641 1156 l 641 1142 l 475 980 z "},"š":{"ha":833,"x_min":113,"x_max":719,"o":"m 719 210 q 699 117 719 158 q 641 46 679 75 q 548 2 603 18 q 421 -14 492 -14 q 306 -4 357 -14 q 216 26 255 5 q 152 82 178 47 q 113 168 125 117 l 221 189 q 247 130 229 152 q 291 96 265 108 q 349 81 316 85 q 421 77 382 77 q 494 83 460 77 q 552 103 528 89 q 590 139 576 117 q 604 193 604 161 q 587 248 604 227 q 540 283 570 269 q 469 307 510 297 q 380 330 428 317 q 294 355 336 342 q 217 391 251 369 q 163 447 184 413 q 142 533 142 481 q 214 689 142 633 q 422 745 286 745 q 523 735 476 745 q 606 704 570 726 q 668 649 643 683 q 702 569 692 616 l 592 555 q 572 605 587 586 q 533 635 556 624 q 482 650 511 646 q 422 654 454 654 q 256 552 256 654 q 271 502 256 521 q 312 469 286 482 q 375 447 338 456 q 456 427 412 438 q 546 401 500 416 q 631 363 593 387 q 694 303 669 340 q 719 210 719 266 m 479 814 l 368 814 l 195 977 l 195 990 l 266 990 l 423 897 l 425 897 l 573 990 l 644 990 l 644 977 l 479 814 z "},"Ţ":{"ha":833,"x_min":52,"x_max":781,"o":"m 553 -175 q 543 -227 553 -203 q 510 -267 532 -250 q 453 -292 488 -283 q 367 -301 418 -301 q 338 -301 353 -301 q 306 -298 323 -300 l 306 -232 q 364 -236 340 -236 q 411 -232 392 -236 q 442 -220 431 -227 q 459 -201 454 -212 q 464 -178 464 -191 q 443 -136 464 -151 q 374 -122 422 -122 q 354 -122 364 -122 q 335 -123 345 -122 l 379 0 l 452 0 l 425 -68 q 521 -98 489 -70 q 553 -175 553 -126 m 481 809 l 481 0 l 352 0 l 352 809 l 52 809 l 52 915 l 781 915 l 781 809 l 481 809 z "},"ţ":{"ha":833,"x_min":129,"x_max":690,"o":"m 559 -175 q 549 -227 559 -203 q 517 -267 539 -250 q 460 -292 495 -283 q 374 -301 425 -301 q 345 -301 360 -301 q 313 -298 330 -300 l 313 -232 q 371 -236 347 -236 q 418 -232 399 -236 q 449 -220 437 -227 q 466 -201 460 -212 q 471 -178 471 -191 q 450 -136 471 -151 q 380 -122 429 -122 q 361 -122 371 -122 q 342 -123 351 -122 l 386 0 l 458 0 l 432 -68 q 528 -98 496 -70 q 559 -175 559 -126 m 129 637 l 129 734 l 244 734 l 283 925 l 365 925 l 365 734 l 658 734 l 658 637 l 365 637 l 365 195 q 394 116 365 142 q 488 90 422 90 q 544 93 515 90 q 600 98 573 95 q 650 106 627 102 q 690 113 673 110 l 690 20 q 651 11 675 16 q 598 1 627 5 q 534 -7 568 -4 q 463 -11 499 -11 q 298 36 353 -11 q 243 182 243 82 l 243 637 l 129 637 z "},"Ť":{"ha":833,"x_min":52,"x_max":781,"o":"m 481 809 l 481 0 l 352 0 l 352 809 l 52 809 l 52 915 l 781 915 l 781 809 l 481 809 m 475 981 l 364 981 l 192 1143 l 192 1156 l 262 1156 l 420 1063 l 421 1063 l 570 1156 l 641 1156 l 641 1143 l 475 981 z "},"ť":{"ha":833,"x_min":68,"x_max":828,"o":"m 68 637 l 68 734 l 184 734 l 223 925 l 304 925 l 304 734 l 597 734 l 597 637 l 304 637 l 304 195 q 333 116 304 142 q 428 90 362 90 q 484 93 455 90 q 539 98 513 95 q 590 106 566 102 q 629 113 613 110 l 629 20 q 591 11 614 16 q 537 1 567 5 q 473 -7 508 -4 q 402 -11 439 -11 q 237 36 292 -11 q 182 182 182 82 l 182 637 l 68 637 m 641 786 l 641 808 l 694 1006 l 828 1006 l 828 981 l 712 786 l 641 786 z "},"Ŧ":{"ha":833,"x_min":52,"x_max":781,"o":"m 481 809 l 481 522 l 644 522 l 644 420 l 481 420 l 481 0 l 352 0 l 352 420 l 189 420 l 189 522 l 352 522 l 352 809 l 52 809 l 52 915 l 781 915 l 781 809 l 481 809 z "},"ŧ":{"ha":833,"x_min":136,"x_max":696,"o":"m 665 439 l 665 349 l 372 349 l 372 195 q 400 116 372 142 q 495 90 429 90 q 551 93 522 90 q 607 98 580 95 q 657 106 633 102 q 696 113 680 110 l 696 20 q 658 11 682 16 q 605 1 634 5 q 541 -7 575 -4 q 469 -11 506 -11 q 304 36 359 -11 q 250 182 250 82 l 250 349 l 136 349 l 136 439 l 250 439 l 250 637 l 136 637 l 136 734 l 251 734 l 290 925 l 372 925 l 372 734 l 665 734 l 665 637 l 372 637 l 372 439 l 665 439 z "},"Ũ":{"ha":833,"x_min":96,"x_max":736,"o":"m 736 332 q 716 174 736 239 q 656 66 696 108 q 554 5 616 24 q 410 -14 493 -14 q 273 4 332 -14 q 175 62 214 22 q 116 165 136 102 q 96 320 96 229 l 96 915 l 226 915 l 226 338 q 234 225 226 272 q 263 149 243 178 q 320 105 284 119 q 410 92 355 92 q 504 105 466 92 q 564 149 541 119 q 597 228 587 179 q 607 347 607 277 l 607 915 l 736 915 l 736 332 m 523 981 q 466 993 494 981 q 410 1021 437 1006 q 357 1049 383 1036 q 307 1061 331 1061 q 282 1056 292 1061 q 266 1040 272 1050 q 256 1015 259 1030 q 249 981 252 1000 l 174 981 q 184 1041 177 1011 q 206 1095 191 1071 q 246 1134 221 1119 q 311 1149 271 1149 q 370 1136 341 1149 q 425 1108 398 1124 q 477 1081 452 1093 q 525 1068 503 1068 q 551 1074 541 1068 q 568 1089 561 1079 q 578 1115 574 1100 q 584 1149 581 1130 l 660 1149 q 650 1089 656 1119 q 628 1035 643 1059 q 589 996 614 1011 q 523 981 564 981 z "},"ũ":{"ha":833,"x_min":125,"x_max":715,"o":"m 248 734 l 248 269 q 255 179 248 215 q 281 121 263 143 q 328 90 299 99 q 399 81 357 81 q 478 96 443 81 q 537 140 513 111 q 575 211 562 169 q 589 309 589 254 l 589 734 l 711 734 l 711 157 q 712 108 711 134 q 713 60 712 83 q 714 21 713 37 q 715 0 715 5 l 600 0 q 599 18 600 3 q 597 53 598 33 q 595 92 596 72 q 595 125 595 112 l 593 125 q 554 68 575 94 q 505 24 533 42 q 441 -4 477 6 q 358 -14 406 -14 q 253 1 297 -14 q 180 47 209 16 q 139 128 152 79 q 125 245 125 177 l 125 734 l 248 734 m 523 814 q 466 827 494 814 q 410 855 437 840 q 357 883 383 870 q 307 895 331 895 q 282 890 292 895 q 266 874 272 884 q 256 849 259 864 q 249 814 252 834 l 174 814 q 184 875 177 845 q 206 929 191 905 q 246 968 221 953 q 311 983 271 983 q 370 970 341 983 q 425 942 398 958 q 477 915 452 927 q 525 902 503 902 q 551 907 541 902 q 568 923 561 913 q 578 949 574 934 q 584 983 581 964 l 660 983 q 650 923 656 953 q 628 869 643 893 q 589 830 614 845 q 523 814 564 814 z "},"Ū":{"ha":833,"x_min":96,"x_max":736,"o":"m 736 332 q 716 174 736 239 q 656 66 696 108 q 554 5 616 24 q 410 -14 493 -14 q 273 4 332 -14 q 175 62 214 22 q 116 165 136 102 q 96 320 96 229 l 96 915 l 226 915 l 226 338 q 234 225 226 272 q 263 149 243 178 q 320 105 284 119 q 410 92 355 92 q 504 105 466 92 q 564 149 541 119 q 597 228 587 179 q 607 347 607 277 l 607 915 l 736 915 l 736 332 m 604 1019 l 230 1019 l 230 1105 l 604 1105 l 604 1019 z "},"ū":{"ha":833,"x_min":125,"x_max":715,"o":"m 248 734 l 248 269 q 255 179 248 215 q 281 121 263 143 q 328 90 299 99 q 399 81 357 81 q 478 96 443 81 q 537 140 513 111 q 575 211 562 169 q 589 309 589 254 l 589 734 l 711 734 l 711 157 q 712 108 711 134 q 713 60 712 83 q 714 21 713 37 q 715 0 715 5 l 600 0 q 599 18 600 3 q 597 53 598 33 q 595 92 596 72 q 595 125 595 112 l 593 125 q 554 68 575 94 q 505 24 533 42 q 441 -4 477 6 q 358 -14 406 -14 q 253 1 297 -14 q 180 47 209 16 q 139 128 152 79 q 125 245 125 177 l 125 734 l 248 734 m 604 838 l 230 838 l 230 924 l 604 924 l 604 838 z "},"Ŭ":{"ha":833,"x_min":96,"x_max":736,"o":"m 736 332 q 716 174 736 239 q 656 66 696 108 q 554 5 616 24 q 410 -14 493 -14 q 273 4 332 -14 q 175 62 214 22 q 116 165 136 102 q 96 320 96 229 l 96 915 l 226 915 l 226 338 q 234 225 226 272 q 263 149 243 178 q 320 105 284 119 q 410 92 355 92 q 504 105 466 92 q 564 149 541 119 q 597 228 587 179 q 607 347 607 277 l 607 915 l 736 915 l 736 332 m 416 981 q 328 997 366 981 q 265 1038 291 1013 q 224 1095 239 1063 q 204 1156 210 1126 l 290 1156 q 331 1090 302 1114 q 416 1066 360 1066 q 502 1090 473 1066 q 543 1156 531 1114 l 629 1156 q 608 1095 623 1126 q 567 1038 593 1063 q 505 997 542 1013 q 416 981 467 981 z "},"ŭ":{"ha":833,"x_min":125,"x_max":715,"o":"m 248 734 l 248 269 q 255 179 248 215 q 281 121 263 143 q 328 90 299 99 q 399 81 357 81 q 478 96 443 81 q 537 140 513 111 q 575 211 562 169 q 589 309 589 254 l 589 734 l 711 734 l 711 157 q 712 108 711 134 q 713 60 712 83 q 714 21 713 37 q 715 0 715 5 l 600 0 q 599 18 600 3 q 597 53 598 33 q 595 92 596 72 q 595 125 595 112 l 593 125 q 554 68 575 94 q 505 24 533 42 q 441 -4 477 6 q 358 -14 406 -14 q 253 1 297 -14 q 180 47 209 16 q 139 128 152 79 q 125 245 125 177 l 125 734 l 248 734 m 416 814 q 328 830 366 814 q 265 872 291 846 q 224 928 239 897 q 204 990 210 960 l 290 990 q 331 924 302 947 q 416 900 360 900 q 502 924 473 900 q 543 990 531 947 l 629 990 q 608 928 623 960 q 567 872 593 897 q 505 830 542 846 q 416 814 467 814 z "},"Ů":{"ha":833,"x_min":96,"x_max":736,"o":"m 736 332 q 716 174 736 239 q 656 66 696 108 q 554 5 616 24 q 410 -14 493 -14 q 273 4 332 -14 q 175 62 214 22 q 116 165 136 102 q 96 320 96 229 l 96 915 l 226 915 l 226 338 q 234 225 226 272 q 263 149 243 178 q 320 105 284 119 q 410 92 355 92 q 504 105 466 92 q 564 149 541 119 q 597 228 587 179 q 607 347 607 277 l 607 915 l 736 915 l 736 332 m 581 1021 q 570 970 581 995 q 540 927 560 946 q 489 897 519 908 q 416 886 458 886 q 344 897 375 886 q 293 927 313 908 q 262 970 273 946 q 252 1021 252 995 q 262 1072 252 1048 q 293 1115 273 1097 q 344 1145 313 1134 q 416 1156 375 1156 q 489 1145 458 1156 q 540 1115 519 1134 q 570 1072 560 1097 q 581 1021 581 1048 m 498 1021 q 494 1041 498 1031 q 480 1059 490 1051 q 454 1073 470 1067 q 416 1078 439 1078 q 378 1073 394 1078 q 353 1059 363 1067 q 338 1041 342 1051 q 334 1021 334 1031 q 338 1001 334 1011 q 353 983 342 991 q 378 969 363 975 q 416 964 394 964 q 454 969 439 964 q 480 983 470 975 q 494 1001 490 991 q 498 1021 498 1011 z "},"ů":{"ha":833,"x_min":125,"x_max":715,"o":"m 248 734 l 248 269 q 255 179 248 215 q 281 121 263 143 q 328 90 299 99 q 399 81 357 81 q 478 96 443 81 q 537 140 513 111 q 575 211 562 169 q 589 309 589 254 l 589 734 l 711 734 l 711 157 q 712 108 711 134 q 713 60 712 83 q 714 21 713 37 q 715 0 715 5 l 600 0 q 599 18 600 3 q 597 53 598 33 q 595 92 596 72 q 595 125 595 112 l 593 125 q 554 68 575 94 q 505 24 533 42 q 441 -4 477 6 q 358 -14 406 -14 q 253 1 297 -14 q 180 47 209 16 q 139 128 152 79 q 125 245 125 177 l 125 734 l 248 734 m 581 914 q 570 863 581 888 q 540 820 560 839 q 489 790 519 801 q 416 779 458 779 q 344 790 375 779 q 293 820 313 801 q 262 863 273 839 q 252 914 252 888 q 262 965 252 941 q 293 1008 273 989 q 344 1038 313 1027 q 416 1049 375 1049 q 489 1038 458 1049 q 540 1008 519 1027 q 570 965 560 989 q 581 914 581 941 m 498 914 q 494 934 498 924 q 480 952 490 944 q 454 965 470 960 q 416 970 439 970 q 378 965 394 970 q 353 952 363 960 q 338 934 342 944 q 334 914 334 924 q 338 894 334 904 q 353 876 342 884 q 378 862 363 867 q 416 857 394 857 q 454 862 439 857 q 480 876 470 867 q 494 894 490 884 q 498 914 498 904 z "},"Ű":{"ha":833,"x_min":96,"x_max":745,"o":"m 736 332 q 716 174 736 239 q 656 66 696 108 q 554 5 616 24 q 410 -14 493 -14 q 273 4 332 -14 q 175 62 214 22 q 116 165 136 102 q 96 320 96 229 l 96 915 l 226 915 l 226 338 q 234 225 226 272 q 263 149 243 178 q 320 105 284 119 q 410 92 355 92 q 504 105 466 92 q 564 149 541 119 q 597 228 587 179 q 607 347 607 277 l 607 915 l 736 915 l 736 332 m 478 981 l 478 994 l 618 1156 l 745 1156 l 745 1137 l 542 981 l 478 981 m 231 981 l 231 994 l 372 1156 l 498 1156 l 498 1137 l 295 981 l 231 981 z "},"ű":{"ha":833,"x_min":125,"x_max":749,"o":"m 248 734 l 248 269 q 255 179 248 215 q 281 121 263 143 q 328 90 299 99 q 399 81 357 81 q 478 96 443 81 q 537 140 513 111 q 575 211 562 169 q 589 309 589 254 l 589 734 l 711 734 l 711 157 q 712 108 711 134 q 713 60 712 83 q 714 21 713 37 q 715 0 715 5 l 600 0 q 599 18 600 3 q 597 53 598 33 q 595 92 596 72 q 595 125 595 112 l 593 125 q 554 68 575 94 q 505 24 533 42 q 441 -4 477 6 q 358 -14 406 -14 q 253 1 297 -14 q 180 47 209 16 q 139 128 152 79 q 125 245 125 177 l 125 734 l 248 734 m 482 814 l 482 828 l 623 990 l 749 990 l 749 970 l 546 814 l 482 814 m 235 814 l 235 828 l 376 990 l 503 990 l 503 970 l 299 814 l 235 814 z "},"Ų":{"ha":833,"x_min":96,"x_max":736,"o":"m 736 332 q 716 174 736 239 q 656 66 696 108 q 554 5 616 24 q 410 -14 493 -14 q 273 4 332 -14 q 175 62 214 22 q 116 165 136 102 q 96 320 96 229 l 96 915 l 226 915 l 226 338 q 234 225 226 272 q 263 149 243 178 q 320 105 284 119 q 410 92 355 92 q 504 105 466 92 q 564 149 541 119 q 597 228 587 179 q 607 347 607 277 l 607 915 l 736 915 l 736 332 m 576 -271 q 533 -284 557 -279 q 482 -290 509 -290 q 375 -255 411 -290 q 339 -163 339 -220 q 351 -104 339 -131 q 378 -57 362 -77 q 413 -22 395 -36 q 444 0 431 -7 l 534 0 q 500 -25 517 -9 q 468 -60 482 -40 q 444 -104 453 -80 q 435 -154 435 -127 q 451 -199 435 -182 q 498 -215 468 -215 q 538 -211 518 -215 q 576 -199 557 -206 l 576 -271 z "},"ų":{"ha":833,"x_min":125,"x_max":732,"o":"m 248 734 l 248 269 q 255 179 248 215 q 281 121 263 143 q 328 90 299 99 q 399 81 357 81 q 478 96 443 81 q 537 140 513 111 q 575 211 562 169 q 589 309 589 254 l 589 734 l 711 734 l 711 157 q 712 108 711 134 q 713 60 712 83 q 714 21 713 37 q 715 0 715 5 l 600 0 q 599 18 600 3 q 597 53 598 33 q 595 92 596 72 q 595 125 595 112 l 593 125 q 554 68 575 94 q 505 24 533 42 q 441 -4 477 6 q 358 -14 406 -14 q 253 1 297 -14 q 180 47 209 16 q 139 128 152 79 q 125 245 125 177 l 125 734 l 248 734 m 732 -271 q 689 -284 713 -279 q 638 -290 665 -290 q 531 -255 567 -290 q 495 -163 495 -220 q 507 -104 495 -131 q 534 -57 518 -77 q 569 -22 551 -36 q 600 0 587 -7 l 690 0 q 656 -25 673 -9 q 624 -60 638 -40 q 600 -104 609 -80 q 591 -154 591 -127 q 607 -199 591 -182 q 654 -215 624 -215 q 694 -211 674 -215 q 732 -199 713 -206 l 732 -271 z "},"Ŵ":{"ha":833,"x_min":0,"x_max":833,"o":"m 690 0 l 549 0 l 479 262 q 471 293 475 275 q 461 331 466 311 q 451 372 456 351 q 441 414 446 393 q 418 513 429 461 q 394 413 406 460 q 384 371 389 393 q 374 330 379 350 q 364 293 369 310 q 356 262 359 275 l 284 0 l 143 0 l 0 915 l 128 915 l 202 349 q 211 262 208 304 q 218 187 215 220 q 224 114 222 149 q 246 206 235 161 q 256 247 251 226 q 266 288 260 267 q 275 327 271 308 q 284 361 280 345 l 358 631 l 477 631 l 551 361 q 559 327 555 346 q 569 288 564 308 q 579 247 574 268 q 589 207 584 227 q 610 114 600 161 q 613 137 611 114 q 618 195 615 160 q 626 271 622 229 q 634 349 630 312 l 705 915 l 833 915 l 690 0 m 638 994 l 638 981 l 567 981 l 418 1074 l 417 1074 l 260 981 l 189 981 l 189 994 l 361 1156 l 473 1156 l 638 994 z "},"ŵ":{"ha":833,"x_min":14,"x_max":819,"o":"m 690 0 l 552 0 l 455 319 q 443 361 450 338 q 430 406 436 385 q 416 456 422 431 q 403 407 410 431 q 390 362 397 386 q 376 317 383 338 l 276 0 l 138 0 l 14 734 l 135 734 l 198 322 q 204 277 200 306 q 211 216 208 248 q 218 152 215 183 q 220 101 220 121 q 235 159 228 132 q 248 208 241 183 q 260 246 255 233 l 351 534 l 482 534 l 570 245 q 581 208 574 232 q 593 160 587 184 q 608 101 601 132 q 610 152 608 121 q 617 215 613 182 q 625 276 621 247 q 631 322 629 305 l 700 734 l 819 734 l 690 0 m 638 828 l 638 814 l 567 814 l 418 908 l 417 908 l 260 814 l 189 814 l 189 828 l 361 990 l 473 990 l 638 828 z "},"Ŷ":{"ha":833,"x_min":24,"x_max":808,"o":"m 480 396 l 480 0 l 353 0 l 353 396 l 24 915 l 163 915 l 417 500 l 669 915 l 808 915 l 480 396 m 638 994 l 638 981 l 567 981 l 418 1074 l 417 1074 l 260 981 l 189 981 l 189 994 l 361 1156 l 473 1156 l 638 994 z "},"ŷ":{"ha":833,"x_min":45,"x_max":787,"o":"m 478 0 q 426 -120 453 -66 q 366 -211 399 -173 q 292 -268 332 -248 q 198 -288 251 -288 q 155 -287 175 -288 q 114 -281 136 -286 l 114 -189 q 143 -192 127 -191 q 171 -193 159 -193 q 272 -153 224 -193 q 351 -26 319 -113 l 363 7 l 45 734 l 175 734 l 354 298 q 372 253 361 280 q 393 200 383 227 q 411 153 404 174 q 420 126 419 132 q 430 154 422 134 q 448 200 438 175 q 469 253 458 226 q 488 299 479 279 l 659 734 l 787 734 l 478 0 m 638 828 l 638 814 l 567 814 l 418 908 l 417 908 l 260 814 l 189 814 l 189 828 l 361 990 l 473 990 l 638 828 z "},"Ÿ":{"ha":833,"x_min":24,"x_max":808,"o":"m 480 396 l 480 0 l 353 0 l 353 396 l 24 915 l 163 915 l 417 500 l 669 915 l 808 915 l 480 396 m 495 980 l 495 1105 l 606 1105 l 606 980 l 495 980 m 228 980 l 228 1105 l 340 1105 l 340 980 l 228 980 z "},"Ź":{"ha":833,"x_min":50,"x_max":783,"o":"m 783 0 l 50 0 l 50 97 l 604 809 l 99 809 l 99 915 l 751 915 l 751 821 l 197 106 l 783 106 l 783 0 m 342 981 l 342 994 l 496 1156 l 629 1156 l 629 1137 l 426 981 l 342 981 z "},"ź":{"ha":833,"x_min":100,"x_max":724,"o":"m 100 0 l 100 93 l 562 640 l 127 640 l 127 734 l 699 734 l 699 641 l 237 94 l 724 94 l 724 0 l 100 0 m 330 814 l 330 828 l 484 990 l 618 990 l 618 970 l 414 814 l 330 814 z "},"Ż":{"ha":833,"x_min":50,"x_max":783,"o":"m 783 0 l 50 0 l 50 97 l 604 809 l 99 809 l 99 915 l 751 915 l 751 821 l 197 106 l 783 106 l 783 0 m 358 981 l 358 1111 l 494 1111 l 494 981 l 358 981 z "},"ż":{"ha":833,"x_min":100,"x_max":724,"o":"m 100 0 l 100 93 l 562 640 l 127 640 l 127 734 l 699 734 l 699 641 l 237 94 l 724 94 l 724 0 l 100 0 m 347 876 l 347 1006 l 483 1006 l 483 876 l 347 876 z "},"Ž":{"ha":833,"x_min":50,"x_max":783,"o":"m 783 0 l 50 0 l 50 97 l 604 809 l 99 809 l 99 915 l 751 915 l 751 821 l 197 106 l 783 106 l 783 0 m 482 980 l 371 980 l 199 1142 l 199 1156 l 269 1156 l 427 1062 l 428 1062 l 576 1156 l 648 1156 l 648 1142 l 482 980 z "},"ž":{"ha":833,"x_min":100,"x_max":724,"o":"m 100 0 l 100 93 l 562 640 l 127 640 l 127 734 l 699 734 l 699 641 l 237 94 l 724 94 l 724 0 l 100 0 m 476 814 l 365 814 l 193 977 l 193 990 l 263 990 l 420 897 l 422 897 l 570 990 l 642 990 l 642 977 l 476 814 z "},"ſ":{"ha":833,"x_min":271,"x_max":745,"o":"m 393 0 l 271 0 l 271 751 q 287 868 271 819 q 336 947 302 916 q 424 992 370 978 q 555 1006 477 1006 q 602 1005 574 1006 q 656 1002 629 1004 q 707 998 683 1000 q 745 992 731 995 l 745 894 q 709 898 733 896 q 657 902 684 900 q 606 904 631 903 q 569 905 582 905 q 491 899 524 905 q 436 873 458 892 q 404 823 414 855 q 393 741 393 791 l 393 0 z "},"ƒ":{"ha":833,"x_min":159,"x_max":725,"o":"m 616 928 q 677 923 648 928 q 725 913 706 918 l 698 821 q 659 829 684 825 q 610 833 633 833 q 558 828 579 833 q 524 810 538 823 q 502 777 510 798 q 488 728 494 757 l 469 635 l 674 635 l 657 546 l 452 546 l 287 -288 l 165 -288 l 330 546 l 159 546 l 177 635 l 347 635 l 367 738 q 392 812 376 778 q 437 873 408 847 q 509 913 465 899 q 616 928 552 928 z "},"Ǻ":{"ha":833,"x_min":0,"x_max":833,"o":"m 581 821 q 566 761 581 789 q 522 713 551 732 l 833 0 l 701 0 l 608 219 l 226 219 l 133 0 l 0 0 l 315 710 q 268 759 283 730 q 252 821 252 788 q 262 872 252 848 q 293 915 273 897 q 344 945 313 934 q 416 956 375 956 q 489 945 458 956 q 540 915 519 934 q 570 872 560 897 q 581 821 581 848 m 475 550 q 461 587 469 568 q 447 624 454 606 q 434 658 439 642 q 424 686 428 674 l 412 686 q 402 658 408 674 q 390 623 397 642 q 377 586 384 605 q 363 550 370 567 l 268 323 l 567 323 l 475 550 m 356 980 l 356 994 l 510 1156 l 644 1156 l 644 1137 l 440 980 l 356 980 m 498 821 q 494 841 498 831 q 480 859 490 851 q 454 872 470 867 q 416 878 439 878 q 378 872 394 878 q 353 859 363 867 q 338 841 342 851 q 334 821 334 831 q 338 801 334 811 q 353 783 342 791 q 378 769 363 774 q 416 764 394 764 q 454 769 439 764 q 480 783 470 774 q 494 801 490 791 q 498 821 498 811 z "},"ǻ":{"ha":833,"x_min":87,"x_max":787,"o":"m 574 852 q 556 786 574 817 q 503 736 539 755 q 634 656 591 716 q 678 500 678 597 l 678 184 q 692 103 678 130 q 747 75 707 75 q 767 77 757 75 q 787 80 777 78 l 787 4 q 741 -4 764 -1 q 692 -7 718 -7 q 633 2 658 -7 q 593 30 608 12 q 569 76 577 49 q 559 140 561 104 l 555 140 q 513 77 536 105 q 460 28 490 48 q 391 -3 430 8 q 302 -14 353 -14 q 141 45 195 -14 q 87 205 87 103 q 114 324 87 277 q 184 397 140 370 q 282 434 227 423 q 395 445 338 444 l 555 448 l 555 488 q 546 565 555 533 q 518 616 536 597 q 471 645 499 636 q 404 654 442 654 q 343 649 370 654 q 296 631 315 644 q 263 595 276 618 q 247 538 251 572 l 119 549 q 138 615 125 585 q 174 671 151 646 q 231 713 197 695 q 311 739 264 730 q 262 788 278 758 q 245 852 245 818 q 256 903 245 878 q 286 946 266 927 q 337 976 307 964 q 410 987 368 987 q 482 976 451 987 q 533 946 513 964 q 564 903 553 927 q 574 852 574 878 m 334 79 q 431 101 390 79 q 500 155 473 122 q 541 227 528 187 q 555 302 555 266 l 555 362 l 426 359 q 351 354 389 359 q 283 332 313 349 q 234 285 253 316 q 215 203 215 254 q 245 113 215 147 q 334 79 275 79 m 345 1015 l 345 1028 l 498 1156 l 632 1156 l 632 1137 l 429 1015 l 345 1015 m 492 852 q 487 872 492 862 q 473 890 483 882 q 448 903 463 898 q 410 908 432 908 q 372 903 387 908 q 346 890 356 898 q 331 872 336 882 q 327 852 327 862 q 331 831 327 842 q 346 813 336 821 q 372 800 356 805 q 410 795 387 795 q 448 800 432 795 q 473 813 463 805 q 487 831 483 821 q 492 852 492 842 z "},"Ǽ":{"ha":833,"x_min":1,"x_max":810,"o":"m 438 279 l 211 279 l 115 0 l 1 0 l 330 915 l 783 915 l 783 812 l 554 812 l 554 520 l 776 520 l 776 418 l 554 418 l 554 103 l 810 103 l 810 0 l 438 0 l 438 279 m 438 815 l 389 815 q 379 782 386 804 q 365 735 372 760 q 351 688 358 711 q 340 652 344 665 l 245 380 l 438 380 l 438 815 m 439 981 l 439 994 l 593 1156 l 726 1156 l 726 1137 l 523 981 l 439 981 z "},"ǽ":{"ha":833,"x_min":14,"x_max":819,"o":"m 460 341 l 460 330 q 468 228 461 274 q 490 149 475 182 q 529 97 505 115 q 586 78 553 78 q 667 110 637 78 q 708 191 697 142 l 802 160 q 779 99 793 130 q 740 43 764 68 q 678 2 715 18 q 589 -14 641 -14 q 519 -5 550 -14 q 463 21 488 3 q 421 70 439 40 q 391 144 403 100 q 358 82 376 111 q 315 32 340 53 q 259 -1 290 11 q 189 -14 228 -14 q 110 1 142 -14 q 55 45 77 16 q 24 114 34 73 q 14 205 14 154 q 33 324 14 277 q 84 397 52 370 q 155 434 115 423 q 237 445 195 444 l 351 448 l 351 488 q 346 565 351 533 q 329 616 340 597 q 300 645 318 636 q 258 654 283 654 q 219 649 237 654 q 189 631 202 644 q 169 595 176 618 q 158 538 161 572 l 44 549 q 63 629 50 593 q 102 692 77 665 q 165 733 127 718 q 258 747 203 747 q 360 724 319 747 q 425 653 401 700 q 498 725 456 703 q 592 747 541 747 q 701 718 657 747 q 771 635 745 688 q 808 511 798 583 q 819 357 819 440 l 819 341 l 460 341 m 128 203 q 148 113 128 147 q 205 79 167 79 q 271 101 243 79 q 316 155 298 122 q 342 227 334 187 q 351 302 351 266 l 351 362 l 268 359 q 218 354 243 359 q 173 332 193 349 q 141 285 153 316 q 128 203 128 254 m 583 657 q 543 647 564 657 q 504 612 522 637 q 475 544 487 587 q 462 435 463 501 l 707 435 q 671 604 701 551 q 583 657 641 657 m 334 814 l 334 828 l 488 990 l 621 990 l 621 970 l 418 814 l 334 814 z "},"Ǿ":{"ha":833,"x_min":38,"x_max":793,"o":"m 764 462 q 740 256 764 345 q 671 107 716 167 q 562 17 627 47 q 416 -14 497 -14 q 282 10 340 -14 q 181 80 224 34 l 102 -26 l 38 18 l 134 146 q 85 285 101 206 q 69 462 69 363 q 92 667 69 579 q 159 812 115 754 q 268 900 203 871 q 417 929 333 929 q 651 838 564 929 l 730 944 l 793 900 l 699 773 q 747 638 731 715 q 764 462 764 561 m 627 462 q 607 650 627 573 l 260 185 q 416 92 313 92 q 577 186 527 92 q 627 462 627 281 m 205 462 q 226 271 205 349 l 573 734 q 507 801 547 779 q 417 823 468 823 q 258 734 311 823 q 205 462 205 645 m 340 981 l 340 994 l 494 1156 l 628 1156 l 628 1137 l 425 981 l 340 981 z "},"ǿ":{"ha":833,"x_min":75,"x_max":758,"o":"m 758 368 q 734 200 758 271 q 666 81 710 128 q 557 10 621 33 q 413 -14 494 -14 q 288 4 345 -14 q 189 59 232 22 l 136 0 l 85 46 l 142 111 q 92 221 109 157 q 75 368 75 285 q 97 533 75 463 q 164 652 120 604 q 271 724 208 700 q 417 747 335 747 q 644 680 562 747 l 693 735 l 746 689 l 692 628 q 758 368 758 535 m 629 368 q 624 460 629 419 q 607 532 618 500 l 262 141 q 330 91 291 105 q 412 77 368 77 q 498 90 458 77 q 568 136 538 103 q 613 226 597 170 q 629 368 629 282 m 203 368 q 209 277 203 317 q 226 206 214 237 l 571 597 q 504 644 543 631 q 419 657 466 657 q 333 643 372 657 q 264 596 293 629 q 219 507 235 562 q 203 368 203 451 m 340 814 l 340 828 l 494 990 l 628 990 l 628 970 l 425 814 l 340 814 z "},"Ș":{"ha":833,"x_min":54,"x_max":765,"o":"m 302 -287 l 302 -264 l 356 -66 l 490 -66 l 490 -92 l 374 -287 l 302 -287 m 765 251 q 744 145 765 193 q 680 61 723 96 q 571 6 637 26 q 414 -14 505 -14 q 166 49 255 -14 q 54 229 78 111 l 179 254 q 203 186 187 217 q 248 134 220 156 q 318 100 277 112 q 417 87 359 87 q 506 97 466 87 q 575 125 547 106 q 621 176 604 145 q 637 249 637 206 q 615 326 637 296 q 557 375 593 356 q 476 406 521 394 q 385 429 431 418 q 316 448 351 438 q 250 471 281 458 q 190 502 218 484 q 142 546 163 520 q 110 605 121 571 q 98 685 98 640 q 123 797 98 750 q 190 872 147 843 q 291 916 233 902 q 417 929 349 929 q 551 915 496 929 q 645 873 606 901 q 706 805 683 846 q 743 709 729 764 l 615 687 q 593 749 608 722 q 554 794 578 776 q 496 822 530 812 q 416 831 463 831 q 326 820 362 831 q 267 790 289 809 q 234 744 244 770 q 224 687 224 718 q 242 621 224 646 q 291 579 260 595 q 363 551 322 562 q 451 528 404 541 q 526 508 488 519 q 599 484 564 498 q 664 450 634 469 q 717 403 694 431 q 752 338 739 375 q 765 251 765 300 z "},"ș":{"ha":833,"x_min":113,"x_max":719,"o":"m 326 -287 l 326 -264 l 379 -66 l 513 -66 l 513 -92 l 397 -287 l 326 -287 m 719 210 q 699 117 719 158 q 641 46 679 75 q 548 2 603 18 q 421 -14 492 -14 q 306 -4 357 -14 q 216 26 255 5 q 152 82 178 47 q 113 168 125 117 l 221 189 q 247 130 229 152 q 291 96 265 108 q 349 81 316 85 q 421 77 382 77 q 494 83 460 77 q 552 103 528 89 q 590 139 576 117 q 604 193 604 161 q 587 248 604 227 q 540 283 570 269 q 469 307 510 297 q 380 330 428 317 q 294 355 336 342 q 217 391 251 369 q 163 447 184 413 q 142 533 142 481 q 214 689 142 633 q 422 745 286 745 q 523 735 476 745 q 606 704 570 726 q 668 649 643 683 q 702 569 692 616 l 592 555 q 572 605 587 586 q 533 635 556 624 q 482 650 511 646 q 422 654 454 654 q 256 552 256 654 q 271 502 256 521 q 312 469 286 482 q 375 447 338 456 q 456 427 412 438 q 546 401 500 416 q 631 363 593 387 q 694 303 669 340 q 719 210 719 266 z "},"Ț":{"ha":833,"x_min":52,"x_max":781,"o":"m 302 -287 l 302 -264 l 356 -66 l 490 -66 l 490 -92 l 374 -287 l 302 -287 m 481 809 l 481 0 l 352 0 l 352 809 l 52 809 l 52 915 l 781 915 l 781 809 l 481 809 z "},"ț":{"ha":833,"x_min":129,"x_max":690,"o":"m 326 -287 l 326 -264 l 379 -66 l 513 -66 l 513 -92 l 397 -287 l 326 -287 m 129 637 l 129 734 l 244 734 l 283 925 l 365 925 l 365 734 l 658 734 l 658 637 l 365 637 l 365 195 q 394 116 365 142 q 488 90 422 90 q 544 93 515 90 q 600 98 573 95 q 650 106 627 102 q 690 113 673 110 l 690 20 q 651 11 675 16 q 598 1 627 5 q 534 -7 568 -4 q 463 -11 499 -11 q 298 36 353 -11 q 243 182 243 82 l 243 637 l 129 637 z "},"ˆ":{"ha":833,"x_min":192,"x_max":641,"o":"m 641 828 l 641 814 l 570 814 l 421 908 l 420 908 l 262 814 l 192 814 l 192 828 l 364 990 l 475 990 l 641 828 z "},"ˇ":{"ha":833,"x_min":192,"x_max":641,"o":"m 475 814 l 364 814 l 192 977 l 192 990 l 262 990 l 420 897 l 421 897 l 570 990 l 641 990 l 641 977 l 475 814 z "},"ˉ":{"ha":833,"x_min":229,"x_max":602,"o":"m 602 838 l 229 838 l 229 924 l 602 924 l 602 838 z "},"˘":{"ha":833,"x_min":204,"x_max":629,"o":"m 416 814 q 328 830 366 814 q 265 872 291 846 q 224 928 239 897 q 204 990 210 960 l 290 990 q 331 924 302 947 q 416 900 360 900 q 502 924 473 900 q 543 990 531 947 l 629 990 q 608 928 623 960 q 567 872 593 897 q 505 830 542 846 q 416 814 467 814 z "},"˙":{"ha":833,"x_min":349,"x_max":485,"o":"m 349 876 l 349 1006 l 485 1006 l 485 876 l 349 876 z "},"˚":{"ha":833,"x_min":252,"x_max":581,"o":"m 581 914 q 570 863 581 888 q 540 820 560 839 q 489 790 519 801 q 416 779 458 779 q 344 790 375 779 q 293 820 313 801 q 262 863 273 839 q 252 914 252 888 q 262 965 252 941 q 293 1008 273 989 q 344 1038 313 1027 q 416 1049 375 1049 q 489 1038 458 1049 q 540 1008 519 1027 q 570 965 560 989 q 581 914 581 941 m 498 914 q 494 934 498 924 q 480 952 490 944 q 454 965 470 960 q 416 970 439 970 q 378 965 394 970 q 353 952 363 960 q 338 934 342 944 q 334 914 334 924 q 338 894 334 904 q 353 876 342 884 q 378 862 363 867 q 416 857 394 857 q 454 862 439 857 q 480 876 470 867 q 494 894 490 884 q 498 914 498 904 z "},"˛":{"ha":833,"x_min":299,"x_max":536,"o":"m 536 -271 q 493 -284 517 -279 q 442 -290 469 -290 q 335 -255 371 -290 q 299 -163 299 -220 q 311 -104 299 -131 q 338 -57 322 -77 q 373 -22 355 -36 q 404 0 391 -7 l 494 0 q 460 -25 477 -9 q 428 -60 442 -40 q 404 -104 413 -80 q 395 -154 395 -127 q 411 -199 395 -182 q 458 -215 428 -215 q 498 -211 478 -215 q 536 -199 517 -206 l 536 -271 z "},"˜":{"ha":833,"x_min":173,"x_max":659,"o":"m 522 814 q 465 827 494 814 q 410 855 437 840 q 356 883 382 870 q 307 895 330 895 q 281 890 291 895 q 265 874 271 884 q 255 849 258 864 q 248 814 252 834 l 173 814 q 183 875 176 845 q 205 929 190 905 q 245 968 220 953 q 311 983 271 983 q 369 970 340 983 q 425 942 397 958 q 477 915 452 927 q 524 902 502 902 q 550 907 540 902 q 567 923 560 913 q 577 949 574 934 q 583 983 581 964 l 659 983 q 649 923 656 953 q 628 869 642 893 q 588 830 613 845 q 522 814 563 814 z "},"˝":{"ha":833,"x_min":20,"x_max":534,"o":"m 267 814 l 267 828 l 407 990 l 534 990 l 534 970 l 330 814 l 267 814 m 20 814 l 20 828 l 160 990 l 287 990 l 287 970 l 83 814 l 20 814 z "},"΄":{"ha":833,"x_min":322,"x_max":509,"o":"m 322 814 l 322 837 l 376 1035 l 509 1035 l 509 1010 l 393 814 l 322 814 z "},"΅":{"ha":833,"x_min":211,"x_max":623,"o":"m 353 814 l 353 837 l 390 1086 l 524 1086 l 524 1061 l 425 814 l 353 814 m 526 827 l 526 951 l 623 951 l 623 827 l 526 827 m 211 827 l 211 951 l 309 951 l 309 827 l 211 827 z "},"Ά":{"ha":833,"x_min":0,"x_max":833,"o":"m 701 0 l 608 259 l 226 259 l 133 0 l 0 0 l 346 915 l 493 915 l 833 0 l 701 0 m 475 647 q 457 699 467 673 q 440 749 448 726 q 426 791 432 773 q 418 817 420 809 q 410 791 415 809 q 396 749 404 772 q 380 699 389 725 q 363 647 372 672 l 260 360 l 574 360 l 475 647 m 1 695 l 1 718 l 54 916 l 188 916 l 188 890 l 72 695 l 1 695 z "},"·":{"ha":833,"x_min":336,"x_max":496,"o":"m 336 285 l 336 488 l 496 488 l 496 285 l 336 285 z "},"Έ":{"ha":833,"x_min":-33,"x_max":827,"o":"m 176 0 l 176 915 l 799 915 l 799 809 l 305 809 l 305 523 l 758 523 l 758 418 l 305 418 l 305 106 l 827 106 l 827 0 l 176 0 m -33 695 l -33 718 l 20 916 l 154 916 l 154 890 l 38 695 l -33 695 z "},"Ή":{"ha":833,"x_min":0,"x_max":766,"o":"m 640 0 l 640 422 l 352 422 l 352 0 l 222 0 l 222 915 l 352 915 l 352 531 l 640 531 l 640 915 l 766 915 l 766 0 l 640 0 m 0 694 l 0 717 l 54 915 l 187 915 l 187 890 l 71 694 l 0 694 z "},"Ί":{"ha":833,"x_min":1,"x_max":781,"o":"m 223 915 l 781 915 l 781 809 l 567 809 l 567 106 l 781 106 l 781 0 l 223 0 l 223 106 l 437 106 l 437 809 l 223 809 l 223 915 m 1 695 l 1 718 l 54 916 l 188 916 l 188 890 l 72 695 l 1 695 z "},"Ό":{"ha":833,"x_min":-33,"x_max":811,"o":"m 811 462 q 787 256 811 345 q 719 107 764 167 q 609 17 674 47 q 463 -14 545 -14 q 312 18 377 -14 q 203 111 247 50 q 138 260 160 172 q 117 462 117 349 q 140 667 117 579 q 207 812 163 754 q 316 900 251 871 q 465 929 380 929 q 722 811 632 929 q 811 462 811 694 m 675 462 q 621 734 675 645 q 465 823 568 823 q 306 734 359 823 q 253 462 253 645 q 307 185 253 279 q 464 92 360 92 q 625 186 574 92 q 675 462 675 281 m -33 695 l -33 718 l 20 916 l 154 916 l 154 890 l 38 695 l -33 695 z "},"Ύ":{"ha":833,"x_min":0,"x_max":813,"o":"m 573 396 l 573 0 l 446 0 l 446 396 l 205 915 l 342 915 l 510 507 l 677 915 l 813 915 l 573 396 m 0 694 l 0 717 l 54 915 l 187 915 l 187 890 l 71 694 l 0 694 z "},"Ώ":{"ha":833,"x_min":-34,"x_max":800,"o":"m 443 929 q 582 900 519 929 q 690 818 645 871 q 759 690 734 765 q 783 523 783 615 q 770 398 783 458 q 731 283 758 337 q 664 182 704 229 q 568 98 623 135 q 604 102 568 98 q 635 105 618 104 q 664 106 651 106 l 800 106 l 800 0 l 486 0 l 486 152 q 569 232 536 189 q 619 320 601 274 q 644 415 637 366 q 651 514 651 464 q 638 642 651 585 q 599 740 625 699 q 534 802 573 780 q 444 823 495 823 q 352 802 391 823 q 287 740 313 780 q 248 642 261 699 q 235 514 235 585 q 241 415 235 464 q 267 320 248 366 q 317 232 285 274 q 400 152 349 189 l 400 0 l 86 0 l 86 106 l 222 106 q 251 105 235 106 q 282 102 267 104 q 317 98 282 102 q 222 182 262 135 q 155 283 182 229 q 115 398 128 337 q 102 523 102 458 q 127 690 102 615 q 197 818 152 765 q 304 900 241 871 q 443 929 367 929 m -34 694 l -34 717 l 20 915 l 153 915 l 153 890 l 37 694 l -34 694 z "},"ΐ":{"ha":833,"x_min":101,"x_max":758,"o":"m 439 235 q 467 125 439 159 q 551 91 494 91 q 630 112 595 91 q 694 163 665 133 l 758 81 q 668 12 718 38 q 550 -14 617 -14 q 444 2 488 -14 q 371 49 399 18 q 330 127 343 80 q 317 237 317 174 l 317 637 l 101 637 l 101 734 l 439 734 l 439 235 m 345 814 l 345 837 l 381 1086 l 515 1086 l 515 1061 l 416 814 l 345 814 m 517 827 l 517 951 l 614 951 l 614 827 l 517 827 m 202 827 l 202 951 l 300 951 l 300 827 l 202 827 z "},"Α":{"ha":833,"x_min":0,"x_max":833,"o":"m 701 0 l 608 259 l 226 259 l 133 0 l 0 0 l 346 915 l 493 915 l 833 0 l 701 0 m 475 647 q 457 699 467 673 q 440 749 448 726 q 426 791 432 773 q 418 817 420 809 q 410 791 415 809 q 396 749 404 772 q 380 699 389 725 q 363 647 372 672 l 260 360 l 574 360 l 475 647 z "},"Β":{"ha":833,"x_min":110,"x_max":781,"o":"m 781 258 q 753 139 781 188 q 676 59 724 90 q 564 14 628 28 q 430 0 500 0 l 110 0 l 110 915 l 389 915 q 531 902 469 915 q 637 862 593 889 q 703 793 680 836 q 726 693 726 751 q 714 621 726 655 q 681 559 703 587 q 624 512 658 532 q 544 482 590 492 q 646 457 602 476 q 720 409 690 438 q 766 341 750 379 q 781 258 781 302 m 595 677 q 544 780 595 749 q 391 811 493 811 l 239 811 l 239 529 l 392 529 q 486 539 447 529 q 549 569 524 550 q 584 616 573 589 q 595 677 595 643 m 650 269 q 633 342 650 312 q 584 391 616 372 q 509 419 553 410 q 410 428 465 428 l 239 428 l 239 104 l 420 104 q 512 112 469 104 q 585 138 554 119 q 633 189 616 157 q 650 269 650 221 z "},"Γ":{"ha":833,"x_min":152,"x_max":756,"o":"m 281 0 l 152 0 l 152 915 l 756 915 l 756 809 l 281 809 l 281 0 z "},"Δ":{"ha":833,"x_min":8,"x_max":825,"o":"m 8 0 l 8 98 l 332 915 l 497 915 l 825 100 l 825 0 l 8 0 m 481 635 q 458 699 469 667 q 437 757 446 730 q 422 802 428 784 q 415 823 416 821 q 408 802 414 821 q 393 757 402 784 q 372 698 384 730 q 349 635 361 666 l 138 106 l 694 106 l 481 635 z "},"Ε":{"ha":833,"x_min":110,"x_max":761,"o":"m 110 0 l 110 915 l 733 915 l 733 809 l 239 809 l 239 523 l 692 523 l 692 418 l 239 418 l 239 106 l 761 106 l 761 0 l 110 0 z "},"Ζ":{"ha":833,"x_min":50,"x_max":783,"o":"m 783 0 l 50 0 l 50 97 l 604 809 l 99 809 l 99 915 l 751 915 l 751 821 l 197 106 l 783 106 l 783 0 z "},"Η":{"ha":833,"x_min":110,"x_max":723,"o":"m 593 0 l 593 422 l 239 422 l 239 0 l 110 0 l 110 915 l 239 915 l 239 531 l 593 531 l 593 915 l 723 915 l 723 0 l 593 0 z "},"Θ":{"ha":833,"x_min":69,"x_max":764,"o":"m 764 462 q 740 256 764 345 q 671 107 716 167 q 562 17 627 47 q 416 -14 497 -14 q 264 18 330 -14 q 156 111 199 50 q 91 260 113 172 q 69 462 69 349 q 92 667 69 579 q 159 812 115 754 q 268 900 203 871 q 417 929 333 929 q 674 811 585 929 q 764 462 764 694 m 627 462 q 574 734 627 645 q 417 823 520 823 q 258 734 311 823 q 205 462 205 645 q 259 185 205 279 q 416 92 313 92 q 577 186 527 92 q 627 462 627 281 m 530 513 l 530 409 l 303 409 l 303 513 l 530 513 z "},"Ι":{"ha":833,"x_min":137,"x_max":695,"o":"m 137 915 l 695 915 l 695 809 l 481 809 l 481 106 l 695 106 l 695 0 l 137 0 l 137 106 l 351 106 l 351 809 l 137 809 l 137 915 z "},"Κ":{"ha":833,"x_min":110,"x_max":832,"o":"m 680 0 l 350 433 l 239 318 l 239 0 l 110 0 l 110 915 l 239 915 l 239 458 l 627 915 l 780 915 l 438 527 l 832 0 l 680 0 z "},"Λ":{"ha":833,"x_min":7,"x_max":826,"o":"m 826 0 l 690 0 l 474 612 q 453 677 463 644 q 435 738 443 710 q 417 801 425 770 q 399 736 408 769 q 381 675 391 708 q 360 612 371 642 l 143 0 l 7 0 l 349 915 l 484 915 l 826 0 z "},"Μ":{"ha":833,"x_min":87,"x_max":745,"o":"m 635 0 l 635 589 q 636 659 635 623 q 637 725 636 695 q 640 793 639 760 q 616 720 628 755 q 596 655 607 689 q 575 595 585 621 l 464 298 l 371 298 l 258 595 q 250 620 254 606 q 240 649 245 633 q 229 682 235 665 q 218 715 224 699 q 193 793 206 752 q 195 725 194 760 q 196 659 195 694 q 196 589 196 623 l 196 0 l 87 0 l 87 915 l 248 915 l 374 583 q 388 542 380 568 q 403 490 395 515 q 420 427 411 460 q 437 488 429 458 q 453 539 445 513 q 467 583 461 566 l 593 915 l 745 915 l 745 0 l 635 0 z "},"Ν":{"ha":833,"x_min":110,"x_max":723,"o":"m 567 0 l 214 766 q 220 707 217 737 q 223 651 222 681 q 225 594 225 621 l 225 0 l 110 0 l 110 915 l 260 915 l 618 143 q 612 201 615 170 q 608 261 610 228 q 606 329 606 294 l 606 915 l 723 915 l 723 0 l 567 0 z "},"Ξ":{"ha":833,"x_min":92,"x_max":742,"o":"m 105 809 l 105 915 l 728 915 l 728 809 l 105 809 m 92 0 l 92 106 l 742 106 l 742 0 l 92 0 m 644 523 l 644 418 l 190 418 l 190 523 l 644 523 z "},"Ο":{"ha":833,"x_min":69,"x_max":764,"o":"m 764 462 q 740 256 764 345 q 671 107 716 167 q 562 17 627 47 q 416 -14 497 -14 q 264 18 330 -14 q 156 111 199 50 q 91 260 113 172 q 69 462 69 349 q 92 667 69 579 q 159 812 115 754 q 268 900 203 871 q 417 929 333 929 q 674 811 585 929 q 764 462 764 694 m 627 462 q 574 734 627 645 q 417 823 520 823 q 258 734 311 823 q 205 462 205 645 q 259 185 205 279 q 416 92 313 92 q 577 186 527 92 q 627 462 627 281 z "},"Π":{"ha":833,"x_min":111,"x_max":723,"o":"m 111 0 l 111 915 l 723 915 l 723 0 l 593 0 l 593 809 l 240 809 l 240 0 l 111 0 z "},"Ρ":{"ha":833,"x_min":110,"x_max":759,"o":"m 759 641 q 739 531 759 584 q 678 438 719 479 q 575 373 637 397 q 430 349 513 349 l 239 349 l 239 0 l 110 0 l 110 915 l 422 915 q 570 895 507 915 q 675 840 633 876 q 738 753 717 804 q 759 641 759 703 m 629 639 q 573 767 629 724 q 406 811 517 811 l 239 811 l 239 451 l 412 451 q 508 466 467 451 q 576 505 549 480 q 616 565 603 530 q 629 639 629 600 z "},"Σ":{"ha":833,"x_min":73,"x_max":804,"o":"m 73 0 l 73 110 l 438 482 l 85 806 l 85 915 l 762 915 l 762 809 l 231 809 l 541 528 l 541 444 l 209 106 l 804 106 l 804 0 l 73 0 z "},"Τ":{"ha":833,"x_min":52,"x_max":781,"o":"m 481 809 l 481 0 l 352 0 l 352 809 l 52 809 l 52 915 l 781 915 l 781 809 l 481 809 z "},"Υ":{"ha":833,"x_min":24,"x_max":808,"o":"m 480 396 l 480 0 l 353 0 l 353 396 l 24 915 l 163 915 l 417 500 l 669 915 l 808 915 l 480 396 z "},"Φ":{"ha":833,"x_min":5,"x_max":828,"o":"m 828 479 q 807 352 828 413 q 744 243 785 290 q 643 168 703 196 q 506 140 583 140 l 478 140 l 478 -7 l 355 -7 l 355 140 l 328 140 q 190 168 250 140 q 89 243 130 196 q 27 352 48 290 q 5 479 5 413 q 27 611 5 551 q 92 714 50 671 q 195 781 134 757 q 335 805 256 805 l 355 805 l 355 922 l 478 922 l 478 805 l 498 805 q 638 781 576 805 q 742 714 700 757 q 806 611 784 671 q 828 479 828 551 m 696 476 q 681 578 696 534 q 638 650 666 621 q 570 693 610 679 q 481 708 530 708 l 478 708 l 478 236 l 486 236 q 575 253 536 236 q 641 301 614 270 q 682 377 668 333 q 696 476 696 422 m 137 476 q 151 377 137 422 q 192 301 165 333 q 258 253 219 270 q 347 236 298 236 l 355 236 l 355 708 l 350 708 q 262 693 301 708 q 195 650 222 679 q 152 578 167 621 q 137 476 137 534 z "},"Χ":{"ha":833,"x_min":24,"x_max":809,"o":"m 416 567 l 642 915 l 781 915 l 486 478 l 809 0 l 670 0 l 416 389 l 163 0 l 24 0 l 347 478 l 52 915 l 191 915 l 416 567 z "},"Ψ":{"ha":833,"x_min":33,"x_max":800,"o":"m 364 0 l 364 269 l 325 269 q 192 298 248 269 q 102 375 137 326 q 50 487 66 423 q 33 621 33 551 l 33 915 l 142 915 l 142 618 q 153 517 142 564 q 186 435 163 470 q 244 381 209 401 q 330 361 280 361 l 364 361 l 364 915 l 469 915 l 469 361 l 504 361 q 589 381 553 361 q 647 435 624 401 q 680 517 669 470 q 691 618 691 564 l 691 915 l 800 915 l 800 621 q 784 487 800 551 q 731 375 767 423 q 641 298 696 326 q 509 269 586 269 l 469 269 l 469 0 l 364 0 z "},"Ω":{"ha":833,"x_min":40,"x_max":794,"o":"m 417 929 q 568 900 501 929 q 682 818 635 871 q 753 690 728 765 q 778 523 778 615 q 763 398 778 458 q 719 283 747 337 q 647 182 690 229 q 549 98 604 135 q 591 102 571 100 q 627 105 609 104 q 659 106 646 106 l 794 106 l 794 0 l 467 0 l 467 152 q 552 232 517 189 q 607 320 587 274 q 637 415 628 366 q 646 514 646 464 q 632 642 646 585 q 591 740 619 699 q 520 802 563 780 q 418 823 477 823 q 315 802 358 823 q 243 740 271 780 q 202 642 216 699 q 189 514 189 585 q 197 415 189 464 q 227 320 206 366 q 282 232 248 274 q 368 152 317 189 l 368 0 l 40 0 l 40 106 l 176 106 q 207 105 189 106 q 243 102 225 104 q 285 98 263 100 q 187 182 230 135 q 116 283 144 229 q 72 398 87 337 q 56 523 56 458 q 81 690 56 615 q 153 818 106 765 q 266 900 199 871 q 417 929 333 929 z "},"Ϊ":{"ha":833,"x_min":137,"x_max":695,"o":"m 137 915 l 695 915 l 695 809 l 481 809 l 481 106 l 695 106 l 695 0 l 137 0 l 137 106 l 351 106 l 351 809 l 137 809 l 137 915 m 496 1008 l 496 1133 l 606 1133 l 606 1008 l 496 1008 m 229 1008 l 229 1133 l 340 1133 l 340 1008 l 229 1008 z "},"Ϋ":{"ha":833,"x_min":24,"x_max":808,"o":"m 480 396 l 480 0 l 353 0 l 353 396 l 24 915 l 163 915 l 417 500 l 669 915 l 808 915 l 480 396 m 507 1008 l 507 1133 l 617 1133 l 617 1008 l 507 1008 m 239 1008 l 239 1133 l 351 1133 l 351 1008 l 239 1008 z "},"ά":{"ha":833,"x_min":87,"x_max":792,"o":"m 601 161 q 562 91 584 123 q 510 36 539 59 q 443 -1 480 12 q 357 -14 405 -14 q 153 80 218 -14 q 87 363 87 174 q 161 652 87 556 q 376 747 235 747 q 461 734 423 747 q 528 697 499 721 q 579 643 557 674 q 614 574 600 611 l 615 574 q 623 608 618 589 q 634 648 627 627 q 648 691 640 669 q 665 734 656 713 l 792 734 q 762 659 777 702 q 733 568 746 615 q 709 474 720 521 q 696 387 699 427 q 706 258 698 317 q 724 150 713 199 q 747 64 734 101 q 771 0 759 26 l 647 0 q 632 41 640 19 q 620 86 625 64 q 610 127 614 108 q 604 161 606 147 l 601 161 m 216 368 q 225 237 216 292 q 255 148 235 183 q 306 97 275 113 q 382 81 338 81 q 453 98 419 81 q 515 152 487 116 q 563 243 543 189 q 593 370 584 297 q 570 481 585 429 q 531 572 555 533 q 472 634 507 611 q 390 657 437 657 q 313 642 345 657 q 258 591 280 626 q 226 502 237 557 q 216 368 216 446 m 363 814 l 363 837 l 416 1035 l 550 1035 l 550 1010 l 434 814 l 363 814 z "},"έ":{"ha":833,"x_min":119,"x_max":739,"o":"m 421 77 q 507 88 468 77 q 577 115 546 98 q 630 150 608 131 q 667 186 653 170 l 739 119 q 687 68 717 92 q 617 26 656 44 q 527 -3 577 8 q 413 -14 476 -14 q 279 2 335 -14 q 188 46 224 18 q 136 114 153 75 q 119 200 119 153 q 134 272 119 239 q 175 327 149 304 q 234 365 200 351 q 304 382 268 379 l 304 384 q 240 401 270 388 q 188 437 210 415 q 154 488 166 458 q 141 551 141 517 q 160 629 141 593 q 215 691 178 665 q 306 732 252 718 q 431 747 360 747 q 603 718 532 747 q 720 622 675 689 l 633 562 q 552 633 602 610 q 432 656 503 656 q 305 628 345 656 q 264 549 264 599 q 289 486 264 510 q 354 450 313 463 q 446 433 394 437 q 555 429 498 429 l 555 338 q 482 336 519 338 q 410 330 445 335 q 346 317 376 326 q 294 293 316 308 q 258 255 271 277 q 245 202 245 233 q 290 109 245 140 q 421 77 335 77 m 376 814 l 376 837 l 430 1035 l 564 1035 l 564 1010 l 448 814 l 376 814 z "},"ή":{"ha":833,"x_min":121,"x_max":711,"o":"m 589 -288 l 589 471 q 577 561 589 526 q 546 616 566 595 q 499 645 526 637 q 439 653 472 653 q 365 638 399 653 q 303 594 330 623 q 262 523 277 565 q 248 425 248 480 l 248 0 l 125 0 l 125 577 q 125 626 125 600 q 124 674 125 651 q 123 713 123 696 q 121 734 122 729 l 237 734 q 238 715 237 730 q 240 681 239 701 q 241 642 241 662 q 242 608 242 622 l 244 608 q 282 666 260 640 q 333 710 304 692 q 398 738 362 728 q 479 747 434 747 q 578 732 535 747 q 651 686 622 718 q 696 606 681 655 q 711 489 711 557 l 711 -288 l 589 -288 m 376 814 l 376 837 l 430 1035 l 564 1035 l 564 1010 l 448 814 l 376 814 z "},"ί":{"ha":833,"x_min":101,"x_max":758,"o":"m 439 235 q 467 125 439 159 q 551 91 494 91 q 630 112 595 91 q 694 163 665 133 l 758 81 q 668 12 718 38 q 550 -14 617 -14 q 444 2 488 -14 q 371 49 399 18 q 330 127 343 80 q 317 237 317 174 l 317 637 l 101 637 l 101 734 l 439 734 l 439 235 m 342 814 l 342 837 l 396 1035 l 530 1035 l 530 1010 l 414 814 l 342 814 z "},"ΰ":{"ha":833,"x_min":111,"x_max":741,"o":"m 741 387 q 721 221 741 295 q 660 94 701 146 q 557 14 618 42 q 412 -14 495 -14 q 281 3 338 -14 q 187 57 225 20 q 130 149 149 93 q 111 284 111 205 l 111 734 l 233 734 l 233 280 q 280 131 233 181 q 417 81 326 81 q 504 98 467 81 q 566 151 541 115 q 603 245 591 188 q 615 385 615 303 q 608 480 615 431 q 590 577 602 530 q 566 666 579 625 q 538 734 552 707 l 665 734 q 691 668 677 707 q 715 585 705 630 q 733 489 726 539 q 741 387 741 438 m 343 814 l 343 837 l 380 1086 l 513 1086 l 513 1061 l 414 814 l 343 814 m 515 827 l 515 951 l 612 951 l 612 827 l 515 827 m 201 827 l 201 951 l 299 951 l 299 827 l 201 827 z "},"α":{"ha":833,"x_min":87,"x_max":792,"o":"m 601 161 q 562 91 584 123 q 510 36 539 59 q 443 -1 480 12 q 357 -14 405 -14 q 153 80 218 -14 q 87 363 87 174 q 161 652 87 556 q 376 747 235 747 q 461 734 423 747 q 528 697 499 721 q 579 643 557 674 q 614 574 600 611 l 615 574 q 623 608 618 589 q 634 648 627 627 q 648 691 640 669 q 665 734 656 713 l 792 734 q 762 659 777 702 q 733 568 746 615 q 709 474 720 521 q 696 387 699 427 q 706 258 698 317 q 724 150 713 199 q 747 64 734 101 q 771 0 759 26 l 647 0 q 632 41 640 19 q 620 86 625 64 q 610 127 614 108 q 604 161 606 147 l 601 161 m 216 368 q 225 237 216 292 q 255 148 235 183 q 306 97 275 113 q 382 81 338 81 q 453 98 419 81 q 515 152 487 116 q 563 243 543 189 q 593 370 584 297 q 570 481 585 429 q 531 572 555 533 q 472 634 507 611 q 390 657 437 657 q 313 642 345 657 q 258 591 280 626 q 226 502 237 557 q 216 368 216 446 z "}}}
